<?xml version="1.0" encoding="UTF-8" standalone="no"?>
<svg width="668px" height="299px" viewBox="0 0 668 299" version="1.1" xmlns="http://www.w3.org/2000/svg" xmlns:xlink="http://www.w3.org/1999/xlink">
    <!-- Generator: Sketch 3.7.2 (28276) - http://www.bohemiancoding.com/sketch -->
    <title>Slice 1</title>
    <desc>Created with Sketch.</desc>
    <defs></defs>
    <g id="Page-1" stroke="none" stroke-width="1" fill="none" fill-rule="evenodd">
        <g id="Group-12" fill="#F10083">
            <g id="Group-11">
                <path d="M157.965327,271.181101 C157.965327,278.463381 164.86368,278.908689 166.26467,278.938377 L178.242602,278.938377 C186.25261,278.938377 186.487124,271.979688 186.487124,271.181101 L186.487124,237.616709 C186.487124,230.465053 179.594862,230.010838 178.218237,230.010838 L157.965327,230.010838 L157.965327,271.181101 Z M172.429026,296.922906 C145.006169,296.922906 138.357558,284.685826 138.357558,271.510629 L138.357558,188.364847 L157.965327,188.364847 L157.965327,212.029278 L178.242602,212.029278 C187.86984,212.029278 206.110121,217.375949 206.110121,237.616709 L206.110121,271.181101 C206.110121,291.558422 187.86984,296.922906 178.242602,296.922906 L172.429026,296.922906 Z M246.231733,230.010244 C244.830743,230.010244 237.971983,230.464459 237.971983,237.619084 L237.971983,271.180507 C237.978074,272.468933 238.471466,278.937783 246.210413,278.937783 L258.20662,278.937783 C259.580199,278.908096 266.484643,278.462787 266.484643,271.180507 L266.484643,237.619084 C266.457233,236.363314 265.960795,230.010244 258.20662,230.010244 L246.231733,230.010244 Z M246.210413,296.922312 C236.570993,296.922312 218.327667,291.557828 218.327667,271.180507 L218.327667,237.619084 C218.327667,228.766349 224.160049,212.028684 246.210413,212.028684 L258.20662,212.028684 C267.882588,212.028684 286.104594,217.375356 286.104594,237.619084 L286.104594,271.180507 C286.104594,280.05996 280.281349,296.922312 258.20662,296.922312 L246.210413,296.922312 Z M334.202409,297.631313 C324.480757,297.631313 306.152153,292.266829 306.152153,271.889508 L306.152153,228.990071 L296.394275,228.990071 L296.394275,212.675756 L306.152153,212.675756 L306.152153,188.331169 L325.632006,188.331169 L325.632005,212.737685 L343.726356,212.737685 L343.726356,228.672159 L325.632005,228.672159 L325.632005,271.889508 C325.641142,273.177935 327.010896,278.670484 334.202409,278.670481 L343.774826,278.670481 L343.774826,297.631313 L334.202409,297.631313 Z M362.724227,212.029278 L383.337191,212.029278 L383.337191,296.922906 L362.724227,296.922906 L362.724227,212.029278 Z M524.068935,297.898912 L501.832787,261.77548 L495.272499,270.773682 L495.272499,297.898912 L475.829195,297.898912 L475.829195,211.351357 L495.272499,211.351357 L495.272499,245.254531 C503.617526,235.083683 513.439685,223.072227 520.511638,214.243242 L521.510605,213.005284 L546.119299,213.005284 L516.540136,249.223715 C521.793849,257.752859 527.175478,266.436376 532.584517,275.096144 C536.345871,281.167184 540.125498,287.279787 543.856395,293.338952 L546.697969,297.898912 L524.068935,297.898912 Z M587.151606,245.404859 C588.567824,245.404859 595.594094,244.935801 595.594094,237.617896 C595.594094,230.46624 588.567824,230.009057 587.151606,230.009057 L578.267502,230.009057 C576.845193,230.009057 569.840243,230.46624 569.840243,237.617896 L569.840243,245.404859 L587.151606,245.404859 Z M578.267502,296.924093 C568.558033,296.924093 550.208109,291.559609 550.208109,271.182289 L550.208109,237.617896 C550.208109,228.76813 556.095313,212.030465 578.267502,212.030465 L587.151606,212.030465 C596.882395,212.030465 615.204908,217.377137 615.204908,237.617896 C615.204908,246.592349 609.335978,263.549699 587.151606,263.549699 L569.840243,263.549699 L569.840243,271.182289 C569.840243,272.467746 570.339726,278.939564 578.267502,278.939564 L615.204908,278.939564 L615.204908,296.924093 L578.267502,296.924093 Z" id="Fill-3-Copy-40"></path>
                <path d="M426.486499,297.94803 C416.448812,297.94803 397.463531,292.398725 397.463531,271.319347 L397.463531,236.598566 C397.463531,227.4439 403.540963,210.129575 426.486499,210.129575 L460.030394,210.129575 L460.030394,228.730652 L426.486499,228.730652 C425.046693,228.730652 417.778348,229.200515 417.778348,236.598566 L417.778348,271.319347 C417.797252,272.652163 418.29504,279.343883 426.486499,279.343883 L460.030394,279.343883 L460.030394,297.94803 L426.486499,297.94803 Z" id="Fill-13-Copy-31"></path>
                <path d="M90.3049705,298.125504 L75.1078865,298.125504 C65.9517969,298.125504 48.634778,292.049017 48.634778,269.107049 L48.634778,239.473583 L67.2387481,239.473583 L67.2387481,269.107049 C67.2387481,270.546632 67.7086849,278.790149 75.1078865,278.790149 L90.3049705,278.790149 C91.637994,278.771248 98.3307545,277.297234 98.3307545,269.107049 L98.3307545,239.473583 L116.937796,239.473583 L116.937796,269.107049 C116.937796,279.143176 111.387627,298.125504 90.3049705,298.125504 Z" id="Fill-13-Copy-33"></path>
                <path d="M0,298.567018 L0,240.761895 C0,229.488377 7.53879808,209.914798 33.3964648,211.01223 L145.546711,211.01223 L140.739252,230.552673 L35.3194485,230.552673 C28.9917257,230.552672 21.3570674,233.521304 21.3570677,243.630961 L21.3570677,298.567018 L0,298.567018 Z" id="Fill-13-Copy-30"></path>
                <path d="M658.32082,297.631313 C648.599168,297.631313 630.270564,292.266829 630.270564,271.889508 L630.270564,228.990071 L620.512685,228.990071 L620.512685,212.675756 L630.270564,212.675756 L630.270564,188.331169 L649.750417,188.331169 L649.750416,212.737685 L667.844767,212.737685 L667.844767,228.672159 L649.750416,228.672159 L649.750416,271.889508 C649.759553,273.177935 651.129306,278.670484 658.32082,278.670481 L667.893236,278.670481 L667.893236,297.631313 L658.32082,297.631313 Z" id="Fill-9-Copy-44"></path>
                <path d="M413.604265,61.1367472 C414.882962,66.763434 415.55814,72.6194396 415.55814,78.6331169 C415.55814,122.060988 380.347418,157.266234 336.912791,157.266234 C336.544002,157.266234 336.175807,157.263696 335.80822,157.258636 L335.80822,84.1369781 C335.80822,67.3631279 348.506114,62.4376016 359.030325,62.4376023 L413.604265,62.4376033 L413.604265,61.1367472 Z M396.511399,27.3253387 C382.089127,10.5929321 360.738207,0 336.912791,0 C293.478164,0 258.267442,35.2052456 258.267442,78.6331169 C258.267442,108.838243 275.300756,135.065645 300.287339,148.236688 L300.287339,76.6857075 C300.287339,57.9807902 312.8258,25.504488 355.832036,27.325338 L396.511399,27.3253387 Z" id="Combined-Shape-Copy"></path>
            </g>
        </g>
    </g>
</svg>