<?xml version="1.0" encoding="UTF-8" standalone="no"?>
<svg width="200px" height="34px" viewBox="0 0 200 34" version="1.1" xmlns="http://www.w3.org/2000/svg" xmlns:xlink="http://www.w3.org/1999/xlink" xmlns:sketch="http://www.bohemiancoding.com/sketch/ns">
    <!-- Generator: Sketch 3.4 (15588) - http://www.bohemiancoding.com/sketch -->
    <title>Slice 1</title>
    <desc>Created with Sketch.</desc>
    <defs></defs>
    <g id="Page-1" stroke="none" stroke-width="1" fill="none" fill-rule="evenodd" sketch:type="MSPage">
        <g id="Group" sketch:type="MSLayerGroup">
            <path d="M47.1561893,24.7977593 C47.1561893,26.9774137 49.2206097,27.1106987 49.6398738,27.1195844 L53.2244235,27.1195844 C55.6215209,27.1195844 55.691702,25.0367837 55.691702,24.7977593 L55.691702,14.7516229 C55.691702,12.6110654 53.6291046,12.4751147 53.2171319,12.4751147 L47.1561893,12.4751147 L47.1561893,24.7977593 Z M51.4846362,32.5025221 C43.2779956,32.5025221 41.2883136,28.8398497 41.2883136,24.8963902 L41.2883136,0.0100801769 L47.1561893,0.0100801769 L47.1561893,7.09306553 L53.2244235,7.09306553 C56.1054976,7.09306553 61.5641349,8.69337436 61.5641349,14.7516229 L61.5641349,24.7977593 C61.5641349,30.8968819 56.1054976,32.5025221 53.2244235,32.5025221 L51.4846362,32.5025221 Z M73.5710408,12.474937 C73.1517766,12.474937 71.099205,12.6108877 71.099205,14.7523337 L71.099205,24.7975816 C71.1010279,25.1832196 71.2486818,27.1194066 73.5646607,27.1194066 L77.154679,27.1194066 C77.5657402,27.110521 79.6319834,26.9772359 79.6319834,24.7975816 L79.6319834,14.7523337 C79.6237804,14.37647 79.4752151,12.474937 77.154679,12.474937 L73.5710408,12.474937 Z M73.5646607,32.5023444 C70.6799408,32.5023444 65.220392,30.8967042 65.220392,24.7975816 L65.220392,14.7523337 C65.220392,12.1026275 66.965807,7.09288781 73.5646607,7.09288781 L77.154679,7.09288781 C80.0503362,7.09288781 85.5035049,8.69319664 85.5035049,14.7523337 L85.5035049,24.7975816 C85.5035049,27.4552849 83.7608242,32.5023444 77.154679,32.5023444 L73.5646607,32.5023444 Z M99.8973915,32.714555 C96.9880627,32.714555 91.5029934,31.1089148 91.5029934,25.0097922 L91.5029934,12.1695897 L88.5828233,12.1695897 L88.5828233,7.28656265 L91.5029934,7.28656265 L91.5029934,0 L97.3325887,0 L97.3325884,7.30509847 L102.747554,7.30509847 L102.747554,12.0744354 L97.3325884,12.0744354 L97.3325884,25.0097922 C97.3353228,25.3954302 97.745239,27.0394017 99.8973915,27.0394007 L102.76206,27.0394007 L102.76206,32.714555 L99.8973915,32.714555 Z M108.43291,7.09306553 L114.601604,7.09306553 L114.601604,32.5025221 L108.43291,32.5025221 L108.43291,7.09306553 Z M156.717379,32.7946499 L150.062927,21.9825689 L148.099677,24.6758149 L148.099677,32.7946499 L142.281019,32.7946499 L142.281019,6.89015756 L148.099677,6.89015756 L148.099677,17.0376946 C150.597033,13.9934647 153.53644,10.3983234 155.652812,7.75572566 L155.951766,7.3851933 L163.316232,7.3851933 L154.46429,18.2257084 C156.03653,20.7785609 157.647052,23.3776188 159.265776,25.9695682 C160.391409,27.7866873 161.522511,29.6162464 162.63903,31.4298112 L163.489407,32.7946499 L156.717379,32.7946499 Z M175.595675,17.0826891 C176.019497,17.0826891 178.122198,16.9422955 178.122198,14.7519783 C178.122198,12.6114209 176.019497,12.4745816 175.595675,12.4745816 L172.936994,12.4745816 C172.511349,12.4745816 170.415029,12.6114209 170.415029,14.7519783 L170.415029,17.0826891 L175.595675,17.0826891 Z M172.936994,32.5028775 C170.031311,32.5028775 164.539861,30.8972373 164.539861,24.7981147 L164.539861,14.7519783 C164.539861,12.1031606 166.301682,7.09342095 172.936994,7.09342095 L175.595675,7.09342095 C178.507739,7.09342095 183.990985,8.69372978 183.990985,14.7519783 C183.990985,17.4381158 182.234633,22.5136094 175.595675,22.5136094 L170.415029,22.5136094 L170.415029,24.7981147 C170.415029,25.1828641 170.564505,27.1199398 172.936994,27.1199398 L183.990985,27.1199398 L183.990985,32.5028775 L172.936994,32.5028775 Z" id="Fill-3-Copy-40" fill="#F20084" sketch:type="MSShapeGroup"></path>
            <path d="M127.641284,32.8698109 C124.637378,32.8698109 118.955789,31.2088518 118.955789,24.899597 L118.955789,14.5073426 C118.955789,11.7672657 120.774539,6.58492616 127.641284,6.58492616 L137.679724,6.58492616 L137.679724,12.1524023 L127.641284,12.1524023 C127.210404,12.1524023 125.035258,12.2930369 125.035258,14.5073426 L125.035258,24.899597 C125.040916,25.2985214 125.189885,27.3014156 127.641284,27.3014156 L137.679724,27.3014156 L137.679724,32.8698109 L127.641284,32.8698109 Z" id="Fill-13-Copy-31" fill="#F20084" sketch:type="MSShapeGroup"></path>
            <path d="M35.0049951,24.198509 C35.0049951,27.2024155 33.344036,32.8840037 27.0347813,32.8840037 L22.4868594,32.8840037 C19.7467824,32.8840037 14.5644429,31.0652543 14.5644429,24.198509 L14.5644429,15.3289356 L20.131919,15.3289356 L20.131919,24.198509 C20.131919,24.6293895 20.2725536,27.0967512 22.4868594,27.0967512 L27.0347813,27.0967512 C27.4337056,27.0910941 29.4365998,26.6499079 29.4365998,24.198509 L29.4365998,15.3289356 L35.0049951,15.3289356 L35.0049951,24.198509 L35.0049951,24.198509 Z" id="Fill-13-Copy-33" fill="#F20084" sketch:type="MSShapeGroup"></path>
            <path d="M0,33.1762203 L0,15.8746067 C0,12.5003373 2.25608179,6.64178203 9.99431946,6.97025385 L43.5567157,6.97025385 L42.118022,12.818891 L10.5697969,12.818891 C8.67614491,12.8188908 6.39137571,13.7074301 6.39137579,16.733345 L6.39137579,33.1762203 L0,33.1762203 Z" id="Fill-13-Copy-30" fill="#F10083" sketch:type="MSShapeGroup"></path>
            <path d="M196.949177,32.8840037 C194.039849,32.8840037 188.554779,31.2783635 188.554779,25.1792409 L188.554779,12.3390383 L185.634609,12.3390383 L185.634609,7.45601132 L188.554779,7.45601132 L188.554779,0.169448672 L194.384375,0.169448672 L194.384374,7.47454714 L199.79934,7.47454714 L199.79934,12.243884 L194.384374,12.243884 L194.384374,25.1792409 C194.387109,25.5648789 194.797025,27.2088503 196.949177,27.2088493 L199.813845,27.2088493 L199.813845,32.8840037 L196.949177,32.8840037 Z" id="Fill-9-Copy-44" fill="#F20084" sketch:type="MSShapeGroup"></path>
        </g>
    </g>
</svg>