<svg id="mainSeat" xmlns="http://www.w3.org/2000/svg" viewBox="0 0 26 38"><defs><style>
                                                                                    .cls-1 {
                                                                                        fill: #067dd6;
                                                                                    }

                                                                                    .cls-2 {
                                                                                        fill: #231f20;
                                                                                        opacity: 0.2;
                                                                                    }

                                                                                    .cls-3 {
                                                                                        fill: #353530;
                                                                                    }

                                                                                    .cls-4 {
                                                                                        fill: #5e5e5e;
                                                                                    }

                                                                                    .cls-5 {
                                                                                        fill: #f6f7d5;
                                                                                    }

                                                                                    .cls-6 {
                                                                                        fill: #e69c24;
                                                                                    }

                                                                                    .cls-7 {
                                                                                        fill-opacity: 0.16;
                                                                                    }

                                                                                    .cls-8 {
                                                                                        fill: #01282a;
                                                                                    }
</style></defs>
<title>seatMy</title>
<g id="BaseBody"><path id="r_foot" data-name="r foot" class="cls-3" d="M14.74,34c0.12,0.63-.09,2.86,3,2.86s3-2.76,3-3.62C19.89,34,14.72,33.93,14.74,34Z" /><path id="r_foot-2" data-name="r foot" class="cls-3" d="M11.19,34c-0.12.63,0.09,2.86-3,2.86s-3-2.76-3-3.62C6,34,11.2,33.93,11.19,34Z" /><path id="pants_inline" data-name="pants inline" class="cls-3" d="M11.5,25.44l0.14,8.22h0a4.5,4.5,0,0,0,1.09-.79A4,4,0,0,0,14.31,34V25.42C13.94,23.35,11.88,23.35,11.5,25.44Z" /><path id="pants" class="cls-4" d="M20.81,22.09s-15.4.12-16.08,0C2.88,22,3,23.94,4,31.4c0.32,2.51,1.23,3.33,4.4,3.33s3.11-1,3.28-1.07L11.5,25.44c0.37-2.09,2.44-2.09,2.81,0V34c0.15,0.07.45,0.76,3.4,0.76s3.82-1,4-3.33C22.33,25.12,22.6,22.49,20.81,22.09Z" /><path id="r_hand" data-name="r hand" class="cls-5" d="M1.24,22.1c-0.07,3,2.05,4.53,3.64,2.91,0.71-.73-1.59-1.06-1.21-2.12a1.18,1.18,0,0,0,.89.22c0.5-.21.28-0.91,0.18-1.09A5.58,5.58,0,0,0,1.24,22.1Z" /><path id="l_hand" data-name="l hand" class="cls-5" d="M21.44,21.94a4.56,4.56,0,0,0-.63.15,7.44,7.44,0,0,0-.33,1.09c-0.11.62,0.47,0.29,0.58,0.2s0.45-.44.45-0.44a3,3,0,0,1,.27.72,9.69,9.69,0,0,0-.43,1.73c0,0.19.17,0.58,1,.38a2.43,2.43,0,0,0,1.82-1.09,3.58,3.58,0,0,0,.48-1.52h0A3.55,3.55,0,0,0,21.44,21.94Z" /></g>
<path id="Short" class="cls-6" d="M7.79,5.83a11.26,11.26,0,0,0-5,3.44,26.77,26.77,0,0,0-2.32,6c0,1.05.61,6.8,0.7,6.83a7.24,7.24,0,0,1,3.59-.07,34.81,34.81,0,0,0,7.82,1.19,39.46,39.46,0,0,0,8.88-1.3,3.7,3.7,0,0,1,3.3,1.3s0.44-5.12.55-6.59-1.41-6.53-1.84-7.39c-0.91-1.84-5-3.45-5.86-3.48Z" />
<path id="shadow" class="cls-7" d="M5.86,14.52s2,3.15,7.65,3.6,6.72-1.68,6.72-1.74c0,1.46.6,5.72,0.6,5.72a34.84,34.84,0,0,1-8.66,1.15,41.92,41.92,0,0,1-7.45-1.18A13.68,13.68,0,0,1,5.86,14.52Z" />
<path class="cls-5" d="M17.21,7.25c0,1-1.17,6.47-4.17,6.47S9.25,10.52,8.73,9.05,17.26,6.27,17.21,7.25Z" />
<path class="cls-8" d="M12.86,0.77c-7.61,0-4.4,8.32-4.19,8.34s1.22-1.06,2.26-1.2a3.68,3.68,0,0,1,1.68,1.17,1.71,1.71,0,0,1,2.14-.78A2.35,2.35,0,0,1,15.6,7c0.79-.28,1.51.59,1.66,0.46S19.79,0.77,12.86.77Z" /></svg>