<svg id="mainSeat" xmlns="http://www.w3.org/2000/svg" viewBox="0 0 26 38"><defs><style>.cls-1{fill:#067dd6;}.cls-2{fill:#231f20;opacity:0.2;}</style></defs><title>seatEmpty</title><g id="Seat"><path id="Seatt" class="cls-1" d="M22.19,13.79a8.16,8.16,0,0,1,1.6-.54c0.43,0,1.54-3.84,1.54-4.58,0-1.51-.83-1.62-2.2-2.07-2.24-.73-17.31-0.87-20.3,0C2.21,6.78.47,7.21,1,8.67c0.24,0.65,1.16,4.58,1.61,4.58a6.67,6.67,0,0,1,1.49.54c-1.28.41-2.13,1-2.13,2v12C2,32.41,5.65,32,8,32.23s3.4,0.61,5,.61a42.94,42.94,0,0,0,5.14-.61c1.83-.23,6.27.18,6.27-4.49v-12C24.43,14.82,23.53,14.2,22.19,13.79Z"/><path id="ShadowSeat" class="cls-2" d="M23.79,13.25c0.43,0,1.54-3.84,1.54-4.58,0-1.51-.83-1.62-2.2-2.07-2.24-.73-17.31-0.87-20.3,0C2.21,6.78.47,7.21,1,8.67c0.24,0.65,1.16,4.58,1.61,4.58A3.5,3.5,0,0,1,4,13.72H22.34A4.27,4.27,0,0,1,23.79,13.25Z"/></g></svg>