<?xml version="1.0" encoding="UTF-8" standalone="no"?>
<svg width="182px" height="183px" viewBox="0 0 182 183" version="1.1" xmlns="http://www.w3.org/2000/svg" xmlns:xlink="http://www.w3.org/1999/xlink" xmlns:sketch="http://www.bohemiancoding.com/sketch/ns">
    <!-- Generator: Sketch 3.3.3 (12081) - http://www.bohemiancoding.com/sketch -->
    <title>Artboard 1</title>
    <desc>Created with Sketch.</desc>
    <defs></defs>
    <g id="Page-1" stroke="none" stroke-width="1" fill="none" fill-rule="evenodd" sketch:type="MSPage">
        <g id="Artboard-1" sketch:type="MSArtboardGroup">
            <g id="Layer_1" sketch:type="MSLayerGroup" transform="translate(1.000000, 1.000000)">
                <g id="Group" sketch:type="MSShapeGroup">
                    <path d="M179.781673,91.6402662 C179.781673,141.285361 139.536274,181.529392 89.8918631,181.529392 C40.2447148,181.529392 0,141.285361 0,91.6402662 C0,41.9924335 40.2447148,1.74771863 89.8918631,1.74771863 C139.536274,1.74771863 179.781673,41.9924335 179.781673,91.6402662" id="Path" fill-opacity="0.106119792" fill="#575757"></path>
                    <path d="M179.781673,89.8925475 C179.781673,139.537643 139.536274,179.781673 89.8918631,179.781673 C40.2447148,179.781673 0,139.537643 0,89.8925475 C0,40.2447148 40.2447148,0 89.8918631,0 C139.536274,0 179.781673,40.2447148 179.781673,89.8925475" id="Shape" fill="#FFFFFF"></path>
                    <path d="M87.9276046,24.0926236 L87.5142205,16.2636502 C86.4746008,16.2787072 85.3610646,16.3361977 84.2879087,16.4005323 C84.4932319,19.0101901 84.6314829,21.6198479 84.6992395,24.2301901 C83.3044106,24.3061597 81.7898099,24.391711 80.3046388,24.4355133 L79.3430418,5.48076046 C80.7330798,5.33977186 82.1908745,5.28228137 83.6698859,5.20562738 C83.8471483,7.59627376 83.994981,10.0478327 84.1318631,12.4521673 C85.2460837,12.3946768 86.1885171,12.3084411 87.2411407,12.2803802 C87.1596958,9.938327 87.1028897,7.4251711 86.9885932,5.05368821 C88.429962,4.91612167 89.919924,5.00030418 91.3619772,4.86273764 L92.3926996,23.8859316 L87.9276046,24.0926236 L87.9276046,24.0926236 Z" id="Shape" fill="#375197"></path>
                    <path d="M70.3464639,7.40326996 C71.5647148,7.02410646 72.7076806,6.68121673 74.0546008,6.37391635 C75.7040304,12.4165779 77.3514068,18.459924 78.8625856,24.5730798 L78.9337643,24.8194677 L74.4495057,26.0192395 C72.0205323,22.1386312 69.4793156,17.9644106 67.1940684,14.0796958 L67.3932319,14.8893536 L70.621597,26.97673 C69.2787833,27.3613688 68.1070722,27.704943 66.9079848,28.0471483 C65.259924,21.9353612 63.5468441,15.7825095 62.0356654,9.60091255 L66.6376426,8.36486692 C69.1097338,11.8669962 71.4463118,15.5696578 73.5057034,19.2777947 L70.3464639,7.40326996 L70.3464639,7.40326996 Z" id="Shape" fill="#375197"></path>
                    <path d="M114.918023,8.91376426 C114.438251,13.3090494 113.614221,17.7734601 112.925703,22.1003042 C114.987833,18.2539163 117.074601,14.166616 119.066236,10.2524715 C120.464487,10.7089734 121.949658,11.251711 123.321217,11.6520913 L123.159696,12.0045627 L113.683346,28.3503422 L113.545779,28.4872243 L108.669354,26.8761217 L108.669354,26.701597 L110.660989,7.5408365 C112.101673,8.02129278 113.545095,8.43262357 114.918023,8.91376426" id="Shape" fill="#375197"></path>
                    <path d="M101.732167,9.66935361 C100.77057,12.2796958 100.014297,15.0946768 99.3285171,17.6358935 L101.732167,18.0485932 C101.663042,15.3013688 101.801977,12.4158935 101.732167,9.66935361 L101.732167,9.66935361 Z M104.960532,6.30410646 C105.43962,12.7594677 105.783878,19.2846388 106.265019,25.74 C104.668973,25.5620532 103.269354,25.3622053 101.726692,25.1048669 C101.726692,23.7907985 101.754753,22.9346008 101.732167,21.481597 C100.564563,21.3453992 99.4647148,21.1387072 98.2977947,20.9326996 C98.0425095,21.5342966 97.9542205,22.1003042 97.6804563,22.718327 L97.0631179,24.4355133 C95.6196958,24.3670722 94.1769582,23.9543726 92.6657795,23.7490494 L93.1010646,22.5342205 L99.6727757,5.54851711 L104.960532,6.30410646 L104.960532,6.30410646 Z" id="Shape" fill="#375197"></path>
                    <path d="M47.6123954,16.3314068 L56.8170342,11.661673 C57.3974144,12.6807605 57.8819772,13.68 58.3959696,14.683346 L53.176654,17.4305703 C53.7255513,18.5974905 54.2751331,19.7657795 54.9629658,20.8642586 L59.9762738,18.3921673 C60.5094297,19.3352852 61.1103422,20.4495057 61.6243346,21.4487452 C60.0371863,22.2837262 58.189962,23.1310266 56.5419011,24.0228137 L58.603346,28.0758935 C60.4553612,27.3887452 62.241673,26.2902662 64.0971103,25.4662357 C64.7144487,26.4962738 65.1661597,27.4763498 65.6801521,28.5043346 L56.1394677,33.3602281 L55.991635,33.020076 L47.6123954,16.3314068 L47.6123954,16.3314068 Z" id="Shape" fill="#375197"></path>
                    <path d="M130.370646,15.9193916 C129.47749,20.0402281 128.516578,24.2301901 127.348973,28.2134601 C129.339924,24.7106464 131.46981,21.1387072 133.599011,17.6365779 C134.803574,18.3360456 135.832928,18.9355894 136.965627,19.6282129 L127.292167,36.0739163 L127.074525,35.9739924 C125.837795,35.149962 124.464867,34.4628137 123.228821,33.6387833 C124.259544,29.106616 125.357338,24.6422053 126.593384,20.3153612 C124.259544,24.0234981 122.198099,27.938327 119.864259,31.6464639 L116.568137,29.5863878 L126.182738,13.3097338 L130.405551,15.6504183 L130.370646,15.9193916 L130.370646,15.9193916 Z" id="Shape" fill="#375197"></path>
                    <path d="M47.0634981,30.96 C45.8958935,30.2735361 44.79673,31.3028897 43.973384,31.9907224 L47.1326236,35.9048669 L48.4364259,34.6681369 C48.8498099,34.1876806 48.8498099,33.4327757 48.6438023,32.8140684 C48.3679848,32.0584791 47.6822053,31.5095817 47.0634981,30.96 M41.7757414,24.9857795 C40.745019,24.5730798 39.8525475,25.4662357 39.1660837,26.0835741 L41.8434981,29.3803802 L43.0795437,28.2812167 C43.3560456,27.9376426 43.5613688,27.4571863 43.4238023,26.97673 C43.0795437,26.1526996 42.5313308,25.4662357 41.7757414,24.9857795 M46.7206084,24.0228137 C47.1326236,24.9857795 47.3386312,26.2902662 46.7206084,27.2518631 C46.9943726,27.3196198 47.3386312,27.0451711 47.6822053,27.0451711 C49.3980228,26.8391635 50.5656274,28.0067681 51.6654753,29.1743726 C52.6263878,30.6164259 53.5879848,32.4020532 52.9015209,34.3252471 C51.4594677,37.4160456 48.3139163,39.101749 45.6905703,41.261749 L44.6598479,40.0948289 L33.6018251,26.4271483 C35.5934601,24.6415209 37.7226616,23.0619011 39.7834221,21.4138403 C40.745019,20.7951331 42.0488213,20.5206844 43.2177947,20.864943 C44.7289734,21.2762738 45.965019,22.718327 46.7206084,24.0228137" id="Shape" fill="#375197"></path>
                    <path d="M34.2903422,39.201673 C35.0322433,41.24327 35.8590114,43.215057 36.6248669,45.1758935 C37.9457795,45.9568061 38.6014449,44.7850951 38.5480608,44.0089734 C38.2044867,41.8804563 35.831635,40.6156654 34.2903422,39.201673 L34.2903422,39.201673 Z M28.5898859,36.3853232 C28.3825095,36.7980228 28.1758175,37.1874525 28.3825095,37.6904943 C29.4823574,39.6136882 31.541749,40.9188593 33.1898099,42.4293536 C32.503346,40.3008365 31.541749,38.240076 30.718403,36.18 C30.1695057,35.6995437 29.0696578,35.6995437 28.5898859,36.3853232 L28.5898859,36.3853232 Z M31.0612928,31.3726996 C34.6339163,32.5396198 37.2428897,35.9048669 40.1968061,38.3776426 C41.9810646,40.0257034 43.4929278,42.223346 42.4622053,44.7645627 C41.6388593,46.6193156 40.0585551,48.473384 38.2044867,49.434981 L38.6842586,50.8079087 L36.8315589,51.5634981 L36.7610646,51.2890494 C36.0027376,52.4689734 35.2943726,53.7679848 34.5161977,55.0115589 L27.4209125,53.8302662 L27.3517871,53.8987072 L28.7267681,55.9587833 C29.9628137,56.7143726 31.1981749,57.469962 32.503346,58.2262357 C31.6895817,59.5526236 30.9880608,60.8304183 30.2324715,62.0664639 L30.0305703,61.9343726 L14.1221293,52.6120152 L13.8914829,52.456654 C14.6087452,51.1268441 15.3335361,49.9154373 16.0891255,48.6793916 C18.5222053,50.0701141 20.8984791,51.426616 23.300076,52.7995437 L23.300076,52.5942205 C21.3775665,50.3274525 19.661749,47.8553612 17.9445627,45.4510266 C18.5619011,44.1465399 19.4543726,42.8413688 20.209962,41.5375665 L25.4292776,49.2289734 L25.7044106,49.434981 L36.6241825,51.0139163 C36.4181749,50.6025856 36.344943,49.7840304 35.8008365,49.7094297 C32.0920152,48.6102662 29.3454753,44.9021293 26.2539924,42.3609125 C24.4676806,40.8497338 23.6443346,38.5836502 24.399924,36.3853232 C25.1555133,34.4628137 27.0540684,32.4136882 28.9752091,31.5896578 C28.8328517,31.1605323 28.6576426,30.6855513 28.451635,30.2044106 L30.3057034,29.5179468 L31.0612928,31.3726996 L31.0612928,31.3726996 Z" id="Shape" fill="#375197"></path>
                    <path d="M25.2246388,63.9253232 L29.2044867,65.2934601 C28.7473004,66.6075285 28.1765019,68.0461597 27.7651711,69.3513308 C26.3751331,68.9502662 25.0172624,68.526616 23.7120913,68.0461597 L25.2246388,63.9253232 L25.2246388,63.9253232 Z" id="Shape" fill="#375197"></path>
                    <path d="M15.0590875,67.0161217 C14.9222053,68.3206084 14.568365,69.7585551 14.2939163,71.0637262 C13.2077567,70.9781749 11.8998479,70.2438023 10.9396198,71.0678327 C10.4577947,71.4798479 10.3209125,72.1663118 10.390038,72.785019 C10.5269202,73.1970342 10.8691255,73.5406084 11.2818251,73.6781749 L21.3104943,75.738251 C21.7909506,75.738251 22.2714068,75.8758175 22.6142966,75.4631179 C23.0947529,74.9142205 23.2330038,74.0895057 22.8887452,73.4030418 C22.0660837,72.3730038 20.6069202,72.4065399 19.3181749,72.0985551 C19.5789354,70.6640304 19.7986312,69.4197719 20.0737643,68.0454753 C22.4760456,68.3206084 25.2246388,68.8708745 26.3922433,71.4120913 C27.0773384,73.746616 26.5291255,76.3562738 25.2930798,78.2794677 C23.9885932,80.1335361 21.5835741,80.4764259 19.5241825,79.996654 L10.1149049,77.9365779 C8.80973384,77.5923194 7.50387833,76.4247148 7.02479087,75.1202281 C6.40608365,72.3045627 6.9556654,69.2822053 9.08418251,67.3596958 C10.7322433,66.1920913 13.2727757,66.4665399 15.0590875,67.0161217" id="Shape" fill="#375197"></path>
                    <path d="M24.9488213,83.0320152 L24.491635,87.5162738 C23.0345247,87.3451711 21.5808365,87.196654 20.2079087,87.0590875 C20.3502662,85.6026616 20.470038,84.0175665 20.6069202,82.5748289 L24.9488213,83.0320152 L24.9488213,83.0320152 Z" id="Shape" fill="#375197"></path>
                    <path d="M9.01642586,89.1307985 C10.1149049,89.268365 11.3509506,89.268365 12.5876806,89.268365 C12.6663878,87.4594677 12.6663878,85.4596198 12.7231939,83.6315589 L16.2260076,83.7054753 L16.2260076,89.1992395 L16.2369582,89.3162738 L24.399924,89.5428137 L24.3307985,94.0065399 L23.9180989,94.0065399 L5.37467681,93.6629658 C5.37467681,90.02327 5.38220532,86.4027376 5.41095057,82.9177186 L9.01642586,83.0867681 L9.01642586,89.1307985 L9.01642586,89.1307985 Z" id="Shape" fill="#375197"></path>
                    <path d="M24.8810646,99.6385551 C26.0486692,106.438859 28.0389354,112.893536 31.1304183,118.869125 L30.8559696,119.143574 L25.0870722,122.096122 C21.6526996,115.640076 19.455057,108.635817 18.2874525,101.218175 C18.218327,100.943042 18.1492015,100.462586 18.5625856,100.531027 C20.6911027,100.325703 22.7511787,99.8445627 24.8810646,99.6385551" id="Shape" fill="#BF2227"></path>
                    <path d="M13.0667681,101.836198 C14.2343726,109.871863 16.9138403,117.288821 20.209962,124.36289 C18.2867681,125.462053 16.2951331,126.422966 14.2343726,127.385247 C10.3202281,119.62403 7.64212928,111.315285 6.26851711,102.523346 C8.46547529,102.042205 10.6644867,101.698631 12.9298859,101.492624 L13.0667681,101.836198 L13.0667681,101.836198 Z" id="Shape" fill="#BF2227"></path>
                    <path d="M53.4517871,144.418175 C57.7786312,147.301597 62.3107985,149.636806 67.1180989,151.422433 C67.0503422,151.490875 67.1180989,151.559316 67.1872243,151.559316 L67.2563498,151.559316 L66.0887452,158.358935 C64.44,158.015361 62.8610646,157.328897 61.2807605,156.641749 C48.0942205,151.422433 35.1828137,139.815513 27.8336122,127.247681 C29.5521673,125.943194 31.6806844,124.912471 33.6018251,123.676426 C38.4789354,131.368517 45.6221293,139.335057 53.4517871,144.418175" id="Shape" fill="#BF2227"></path>
                    <path d="M23.3007605,129.856654 C32.5724715,145.789734 48.7122433,158.358935 65.3331559,163.647376 C65.470038,165.981901 65.1257795,168.385551 65.2640304,170.79057 C46.4447909,165.158555 27.8336122,151.490875 17.5318631,133.291027 C19.455057,132.192548 21.3104943,130.887376 23.3007605,129.856654" id="Shape" fill="#BF2227"></path>
                    <path d="M89.6441065,70.7940684 C86.4848669,71.1369582 88.8207605,74.8457795 86.6908745,76.1502662 C85.8661597,76.7005323 84.0812167,76.5629658 84.2872243,78.005019 C85.1803802,77.8674525 86.0044106,77.3185551 86.8291255,76.9058555 C90.2614449,76.0126996 93.764943,75.6698099 97.4744487,75.3262357 L97.8864639,75.1209125 C97.816654,74.983346 97.7482129,74.8457795 97.6113308,74.7082129 C95.3452471,72.5105703 92.6664639,71.2060837 89.6441065,70.7940684 M160.110342,42.7044867 C167.04616,53.0746768 171.509886,64.4755894 173.433764,76.9756654 C164.161369,74.1593156 154.545399,72.0294297 144.657719,70.6565019 L144.58654,70.724943 C154.888973,74.021749 164.708897,78.4854753 174.1873,83.7739163 C174.94289,94.6943726 173.707529,105.339011 170.616046,114.954297 C162.169049,110.764335 153.721369,106.506616 144.793916,103.346692 C146.579544,104.788745 148.63962,106.025475 150.631255,107.399772 C156.744411,111.520608 162.65019,116.121901 168.556654,120.860076 C164.641141,130.818935 158.873612,140.022205 151.042586,148.263878 C142.458023,141.258251 134.079468,132.536122 126.936958,124.019316 C129.203042,129.239316 132.63673,134.115741 135.795285,138.990798 C139.160532,143.730342 142.457338,148.40076 146.302357,152.864487 C137.649354,160.69346 127.828745,166.187909 117.458555,169.828289 C112.032548,161.929506 108.392167,153.208061 104.891407,144.485932 C105.097414,148.057186 105.92076,151.558631 106.538099,155.062129 C107.841901,160.761901 109.286692,166.325475 111.001141,171.750114 C100.150494,174.70403 86.7593156,175.322738 75.4261597,173.124411 C74.4645627,166.669049 73.9163498,159.938555 74.3968061,153.13962 C74.535057,149.773688 75.0155133,146.408441 75.2201521,143.18076 C75.8388593,140.777795 75.8388593,138.167452 75.8388593,135.694677 C75.7697338,135.214221 75.6328517,134.73308 75.1523954,134.457947 C73.8472243,134.321065 72.9547529,135.213536 71.9240304,135.624867 C68.6970342,137.13673 65.88,139.815513 62.3771863,140.77711 C61.073384,141.120684 59.6306464,140.844867 58.6697338,139.952395 C56.7465399,137.892319 56.1278327,135.281977 55.2353612,132.809202 C54.1355133,128.550798 52.4874525,124.293764 52.9679087,119.622662 C53.2444106,119.07308 53.5873004,118.455057 54.2060076,118.112167 C56.2660837,117.562586 58.0503422,118.935513 59.7675285,119.897795 C63.2019011,121.957871 66.2242586,125.047985 70.2068441,125.803574 C70.893308,125.940456 71.5120152,125.666008 72.0609125,125.323802 C73.2969582,123.399924 73.5029658,120.515133 72.7487452,118.385932 C71.9931559,116.944563 70.6202281,115.501825 68.8339163,115.708517 C65.8108745,115.913156 63.2710266,117.149202 60.2479848,117.287452 C58.1885932,117.356578 56.1278327,117.425019 54.2060076,116.875437 C52.4874525,116.258099 50.5642586,115.844715 49.2604563,114.333536 C47.2681369,111.242738 46.8568061,107.46616 46.581673,103.688897 C46.6507985,102.658175 46.719924,101.559696 47.1312548,100.667224 C49.3973384,99.0869202 52.2136882,97.9891255 53.7926236,95.5156654 C54.2737643,94.2796198 54.2737643,92.4255513 53.9295057,91.1210646 C53.1061597,92.0135361 52.5565779,93.1126996 51.4587833,93.661597 C50.0160456,94.5547529 48.2297338,95.1043346 46.5125475,94.6923194 C44.5907224,93.1126996 45.3456274,90.2970342 45.4838783,88.0309506 C45.758327,86.9317871 46.1012167,85.695057 47.1312548,84.9401521 C54.8911027,79.1705703 63.6132319,75.6684411 72.2669202,72.0280608 C76.0448669,70.5175665 79.8214449,69.0063878 83.8053992,67.9072243 C84.4925475,67.2898859 84.4925475,66.2598479 84.9038783,65.5042586 C85.7977186,63.6501901 87.7893536,62.7570342 89.3689734,61.6578707 C93.0777947,59.4602281 96.9912548,57.6746008 100.975209,56.2325475 L101.45635,55.8889734 C102.279696,52.9357414 103.723118,50.1207605 106.194525,47.8539924 C110.178479,44.7631939 114.505323,42.6346768 119.243498,41.4663878 C128.446768,39.4754373 139.021597,39.611635 148.569125,40.5732319 C152.485323,41.1241825 156.400837,41.6737643 160.110342,42.7044867" id="Shape" fill="#375197"></path>
                </g>
            </g>
        </g>
    </g>
</svg>