<?xml version="1.0" encoding="UTF-8" standalone="no"?>
<svg width="190px" height="192px" viewBox="0 0 190 192" version="1.1" xmlns="http://www.w3.org/2000/svg" xmlns:xlink="http://www.w3.org/1999/xlink" xmlns:sketch="http://www.bohemiancoding.com/sketch/ns">
    <!-- Generator: Sketch 3.3.3 (12081) - http://www.bohemiancoding.com/sketch -->
    <title>Slice 1</title>
    <desc>Created with Sketch.</desc>
    <defs></defs>
    <g id="Page-1" stroke="none" stroke-width="1" fill="none" fill-rule="evenodd" sketch:type="MSPage">
        <g id="Group" sketch:type="MSLayerGroup" transform="translate(1.000000, 1.000000)">
            <path d="M188.0075,96.8547222 C188.0075,148.497778 146.144167,190.361111 94.5011111,190.361111 C42.8633333,190.361111 1,148.497778 1,96.8547222 C1,45.2169444 42.8633333,3.35361111 94.5011111,3.35361111 C146.144167,3.35361111 188.0075,45.2169444 188.0075,96.8547222" id="Fill-1-Copy" fill-opacity="0.229999989" fill="#010000" sketch:type="MSShapeGroup"></path>
            <path d="M187.0075,93.8547222 C187.0075,145.497778 145.144167,187.361111 93.5011111,187.361111 C41.8633333,187.361111 0,145.497778 0,93.8547222 C0,42.2169444 41.8633333,0.353611111 93.5011111,0.353611111 C145.144167,0.353611111 187.0075,42.2169444 187.0075,93.8547222" id="Fill-1" fill="#010000" sketch:type="MSShapeGroup"></path>
            <path d="M156.682708,93.8547222 C156.682708,128.747431 128.393819,157.037639 93.5011111,157.037639 C58.6070833,157.037639 30.3247917,128.747431 30.3247917,93.8547222 C30.3247917,58.9620139 58.6070833,30.6784028 93.5011111,30.6784028 C128.393819,30.6784028 156.682708,58.9620139 156.682708,93.8547222" id="Fill-2" fill="#AE252A" sketch:type="MSShapeGroup"></path>
            <path d="M156.682708,93.8547222 C156.682708,128.747431 128.393819,157.037639 93.5011111,157.037639 C58.6070833,157.037639 30.3247917,128.747431 30.3247917,93.8547222 C30.3247917,58.9620139 58.6070833,30.6784028 93.5011111,30.6784028 C128.393819,30.6784028 156.682708,58.9620139 156.682708,93.8547222 M187.0075,93.8547222 C187.0075,145.497778 145.144167,187.361111 93.5011111,187.361111 C41.8633333,187.361111 0,145.497778 0,93.8547222 C0,42.2169444 41.8633333,0.353611111 93.5011111,0.353611111 C145.144167,0.353611111 187.0075,42.2169444 187.0075,93.8547222" id="Stroke-3" stroke="#FFFFFF" stroke-width="2" sketch:type="MSShapeGroup"></path>
            <path d="M18.5988889,76.0026389 L21.6784722,76.7943056 L22.2392361,74.6370139 C22.3738194,74.1211111 22.5611806,73.779375 22.8065972,73.6118056 C23.0506944,73.4442361 23.334375,73.4059722 23.643125,73.4838194 C23.9597917,73.5669444 24.1854167,73.7411111 24.3134028,74.005 C24.4493056,74.2688889 24.4493056,74.6554861 24.3134028,75.1779861 L23.1351389,79.7577778 C22.9992361,80.2802778 22.8065972,80.6220139 22.5611806,80.7829861 C22.3170833,80.9505556 22.04,80.9954167 21.7233333,80.9109722 C21.4079861,80.8344444 21.1889583,80.6602778 21.0530556,80.3963889 C20.9184722,80.1311806 20.9184722,79.7393056 21.0530556,79.2168056 L21.1440972,78.8750694 L12.9107639,76.7428472 L12.8210417,77.0911806 C12.6851389,77.6123611 12.4925,77.9540972 12.2470833,78.1216667 C12.0029861,78.2826389 11.7259028,78.3275 11.4092361,78.244375 C11.1004861,78.1665278 10.8748611,77.9923611 10.7402778,77.7284722 C10.604375,77.4645833 10.604375,77.0713889 10.7402778,76.5502083 L13.3105556,66.6675694 L16.4930556,67.4922222 C17.0142361,67.6202083 17.3559722,67.8141667 17.5169444,68.0582639 C17.6845139,68.3036806 17.729375,68.5807639 17.6449306,68.8961111 C17.5684028,69.2127778 17.3955556,69.4304861 17.1303472,69.5663889 C16.8664583,69.7022917 16.4732639,69.7022917 15.9520833,69.5663889 L14.8371528,69.2761111 L13.4451389,74.6686806 L16.5247222,75.4616667 L17.0142361,73.5801389 C16.4930556,73.4389583 16.1777083,73.2964583 16.0747917,73.1354861 C15.8491667,72.8069444 15.7779167,72.485 15.8557639,72.1696528 C15.9388889,71.8529861 16.1130556,71.6339583 16.3769444,71.499375 C16.6342361,71.3634722 17.0274306,71.3634722 17.5499306,71.499375 L19.629375,72.03375 C20.1452778,72.1696528 20.4870139,72.3622917 20.6545833,72.6077083 C20.8221528,72.8518056 20.8604167,73.1288889 20.7825694,73.4442361 C20.6994444,73.7543056 20.4804167,74.005 20.1254861,74.1857639 C19.9526389,74.2688889 19.6109028,74.2504167 19.0884028,74.1145139 L18.5988889,76.0026389" id="Fill-5" fill="#FFFFFF" sketch:type="MSShapeGroup"></path>
            <path d="M19.7652778,53.7686806 C19.6425694,53.5628472 19.5779167,53.3636111 19.5594444,53.1828472 C19.5396528,52.9954861 19.5660417,52.8226389 19.6491667,52.6550694 C19.7903472,52.3713889 20.0040972,52.190625 20.2864583,52.1075 C20.5701389,52.0230556 20.9501389,52.0943056 21.4145833,52.3265278 L23.0704861,53.1445833 C23.5336111,53.3754861 23.8238889,53.6275 23.94,53.9045833 C24.0495139,54.1816667 24.0363194,54.45875 23.8951389,54.7424306 C23.7658333,54.9997222 23.5916667,55.1672917 23.3726389,55.2504167 C23.1470139,55.3348611 22.8184722,55.3216667 22.3804167,55.1936806 C22.0914583,55.1092361 21.8394444,55.0960417 21.6270139,55.1540972 C21.2153472,55.2768056 20.8089583,55.5209028 20.4091667,55.9022222 C20.0040972,56.2822222 19.6874306,56.7070833 19.4565278,57.1768056 C19.1728472,57.7573611 19.0369444,58.3563889 19.0501389,58.9686111 C19.0633333,59.5808333 19.2625694,60.2115278 19.6557639,60.8686111 C20.0423611,61.5256944 20.6281944,62.0481944 21.4211806,62.4347917 L22.6904861,63.0588889 C23.63125,63.5233333 24.5838889,63.5747917 25.5510417,63.2079861 C26.516875,62.8345833 27.2966667,62.0481944 27.8890972,60.8369444 C28.2440278,60.1218056 28.4498611,59.4647222 28.4947222,58.8656944 C28.5277083,58.5173611 28.4498611,58.0925 28.2756944,57.6029861 C28.1727778,57.2929167 28.1213194,57.0738889 28.1147222,56.9327083 C28.108125,56.7849306 28.1463889,56.6424306 28.2176389,56.4946528 C28.3403472,56.2360417 28.5527778,56.0565972 28.8430556,55.9602778 C29.1386111,55.8560417 29.4156944,55.8758333 29.6809028,56.0051389 C29.9447917,56.133125 30.1638194,56.4102083 30.3379861,56.8231944 C30.5886806,57.4222222 30.6915972,58.0925 30.6467361,58.8195139 C30.5820833,59.8064583 30.3115972,60.7854861 29.8220833,61.7711111 C29.2547222,62.9177083 28.5079167,63.8386806 27.5803472,64.5221528 C26.8322222,65.0829167 25.9178472,65.4233333 24.8425,65.5394444 C23.7658333,65.6621528 22.7419444,65.4813889 21.7747917,65.0050694 L20.4540278,64.3545833 C19.4433333,63.851875 18.6120833,63.1499306 17.9681944,62.2474306 C17.3243056,61.3528472 16.969375,60.3659028 16.9047222,59.30375 C16.8413889,58.2336806 17.0340278,57.2348611 17.4984722,56.3072917 C17.7742361,55.7465278 18.0961806,55.2570139 18.4695833,54.8321528 C18.8509028,54.4138889 19.2823611,54.0589583 19.7652778,53.7686806" id="Fill-6" fill="#FFFFFF" sketch:type="MSShapeGroup"></path>
            <path d="M38.8866667,34.9507639 L43.0877778,39.8722917 L43.6934028,39.3577083 C44.0984722,39.009375 44.4534028,38.8352083 44.7489583,38.8418056 C45.0458333,38.8484028 45.2978472,38.9763889 45.5102778,39.2218056 C45.7161111,39.4672222 45.7992361,39.7377083 45.7609722,40.0266667 C45.7161111,40.3235417 45.4904861,40.6454861 45.0840972,40.9872222 L42.8423611,42.9004167 C42.4372917,43.24875 42.0823611,43.4229167 41.7854861,43.4097222 C41.4899306,43.4097222 41.2379167,43.2804167 41.0320833,43.0363194 C40.8196528,42.7909028 40.7352083,42.5204167 40.7747917,42.2235417 C40.8196528,41.9345833 41.0452778,41.6126389 41.4503472,41.2643056 L35.9363889,34.7897917 C35.5234028,35.1368056 35.1763889,35.3109722 34.8795139,35.304375 C34.5826389,35.2977778 34.3319444,35.1763889 34.1195139,34.924375 C33.9070833,34.6802778 33.8292361,34.4097917 33.8675,34.1195139 C33.9070833,33.8226389 34.1327083,33.5006944 34.544375,33.1523611 L36.5736806,31.4265278 L43.023125,34.4929167 L41.0254861,27.6318056 L43.0429167,25.91125 C43.4545833,25.5629167 43.8029167,25.3900694 44.0984722,25.3953472 C44.3953472,25.4019444 44.6526389,25.53125 44.8597917,25.7766667 C45.0722222,26.0207639 45.1553472,26.29125 45.1170833,26.5815278 C45.0722222,26.8770833 44.8465972,27.19375 44.4336111,27.5420833 L49.9554861,34.0231944 C50.3605556,33.6682639 50.7154861,33.5006944 51.0123611,33.5072917 C51.3079167,33.5138889 51.5599306,33.6365972 51.7723611,33.8806944 C51.9781944,34.1261111 52.0613194,34.3965972 52.0230556,34.6921528 C51.9781944,34.9824306 51.7525694,35.304375 51.3461806,35.6527083 L49.1110417,37.5593056 C48.699375,37.9076389 48.3444444,38.0818056 48.0488889,38.0752083 C47.7520139,38.0686111 47.5,37.9459028 47.2941667,37.7018056 C47.0817361,37.4497917 46.9986111,37.1859028 47.036875,36.8890278 C47.0817361,36.6000694 47.3073611,36.278125 47.71375,35.9297917 L48.319375,35.4138889 L44.1248611,30.4857639 L45.8322222,36.3546528 L44.4019444,37.5725 L38.8866667,34.9507639" id="Fill-7" fill="#FFFFFF" sketch:type="MSShapeGroup"></path>
            <path d="M54.8585417,21.1757639 L58.9554167,28.630625 L60.8686111,27.5803472 C61.3396528,27.3230556 61.7196528,27.2254167 62.0099306,27.2900694 C62.2988889,27.3547222 62.5179167,27.5288889 62.6722917,27.81125 C62.8345833,28.0949306 62.8596528,28.3786111 62.7567361,28.6556944 C62.6604167,28.9327778 62.3701389,29.2032639 61.9056944,29.461875 L56.1911806,32.5981944 C55.7214583,32.8634028 55.3414583,32.953125 55.0511806,32.8884722 C54.7609028,32.8238194 54.5352778,32.6496528 54.3809028,32.3672917 C54.2265278,32.0836111 54.2014583,31.8065278 54.2977778,31.5228472 C54.4006944,31.2457639 54.684375,30.9752778 55.1540972,30.7179861 L57.0738889,29.6677083 L52.9770139,22.20625 L51.0572222,23.263125 C50.5861806,23.5217361 50.2061806,23.6180556 49.9225,23.5534028 C49.6335417,23.48875 49.4079167,23.3145833 49.2535417,23.0322222 C49.0978472,22.7485417 49.0727778,22.4648611 49.1690972,22.1877778 C49.2654167,21.9106944 49.5556944,21.6402083 50.0267361,21.3815972 L55.74125,18.2452778 C56.2109722,17.9866667 56.5909722,17.8903472 56.88125,17.955 C57.1649306,18.0196528 57.3905556,18.1872222 57.5449306,18.4761806 C57.6993056,18.7598611 57.7309722,19.0435417 57.6280556,19.320625 C57.5251389,19.5977083 57.2414583,19.8615972 56.7717361,20.1254861 L54.8585417,21.1757639" id="Fill-8" fill="#FFFFFF" sketch:type="MSShapeGroup"></path>
            <path d="M66.1582639,25.3504861 C66.0038889,25.6025 65.9709028,25.8795833 66.0685417,26.1949306 C66.1648611,26.5036806 66.345625,26.7174306 66.6161111,26.8388194 C66.8865972,26.9615278 67.2797917,26.9417361 67.7877778,26.7873611 L71.9888889,25.4929861 C73.0708333,25.1644444 73.9020833,24.7329861 74.4892361,24.2104861 C74.8560417,23.8753472 75.21625,23.4240972 75.5711806,22.8448611 C75.9247917,22.2709028 76.1504167,21.6019444 76.2414583,20.82875 C76.3311806,20.0674306 76.2480556,19.2427778 75.9775694,18.3666667 L75.6740972,17.3810417 C75.4550694,16.6593056 75.1845833,16.0800694 74.8692361,15.6288194 C74.5525694,15.1841667 74.1540972,14.7527083 73.6764583,14.3476389 C73.2001389,13.94125 72.7686806,13.644375 72.3820833,13.4451389 C71.8661806,13.18125 71.2473611,13.0255556 70.5203472,12.9806944 C69.7986111,12.9292361 69.0966667,13.0070833 68.4131944,13.2195139 L64.0326389,14.5534722 C63.5233333,14.7078472 63.1881944,14.9136806 63.0338194,15.1656944 C62.8794444,15.4163889 62.8464583,15.7000694 62.9440972,16.0088194 C63.0404167,16.3188889 63.2211806,16.5313194 63.4916667,16.6540278 C63.7621528,16.7754167 64.14875,16.7569444 64.6633333,16.6025694 L67.1570833,24.7329861 C66.6477778,24.8939583 66.3126389,25.0997917 66.1582639,25.3504861 M66.7190278,15.9705556 L68.9093056,15.3002778 C69.6508333,15.0746528 70.3079167,15.0297917 70.8871528,15.1656944 C71.4677083,15.3002778 72.0667361,15.6934722 72.6974306,16.3439583 C73.0972222,16.7622222 73.399375,17.2979167 73.6065278,17.955 L73.9020833,18.9340278 C74.1409028,19.700625 74.1923611,20.3643056 74.0630556,20.9316667 C73.9284722,21.4977083 73.6381944,22.0202083 73.1869444,22.4965278 C72.8399306,22.8633333 72.2527778,23.1734028 71.428125,23.4240972 L69.2127778,24.1075694 L66.7190278,15.9705556" id="Fill-9" fill="#FFFFFF" sketch:type="MSShapeGroup"></path>
            <path d="M86.7877778,11.8209028 L87.5794444,20.2930556 L89.0427083,20.1584722 C89.5770833,20.1070139 89.9636806,20.1716667 90.2025,20.3445139 C90.44,20.5186806 90.5759028,20.7640972 90.6075694,21.0860417 C90.6339583,21.4079861 90.5495139,21.6784722 90.3436806,21.8975 C90.1444444,22.1099306 89.7763194,22.2458333 89.2419444,22.2906944 L84.2175,22.7604167 C83.6818056,22.811875 83.2952083,22.7485417 83.0511111,22.574375 C82.8188889,22.4002083 82.6843056,22.1547917 82.6513194,21.82625 C82.6196528,21.5109028 82.7027778,21.2404167 82.9086111,21.0213889 C83.1157639,20.8089583 83.4825694,20.6730556 84.0169444,20.6215972 L85.440625,20.4936111 L84.6489583,12.0214583 L82.3161806,12.2404861 L82.5101389,14.2948611 C82.555,14.8371528 82.4969444,15.22375 82.3227778,15.4546528 C82.1420139,15.7000694 81.8979167,15.829375 81.5759722,15.8610417 C81.2540278,15.8927083 80.9822222,15.8029861 80.7697917,15.60375 C80.5507639,15.4031944 80.4227778,15.0297917 80.3713194,14.4954167 L79.978125,10.3009028 L91.0588194,9.27041667 L91.4520139,13.4636111 C91.5034722,13.9993056 91.4388194,14.3859028 91.2646528,14.6234028 C91.0918056,14.8622222 90.8397917,14.998125 90.5178472,15.0297917 C90.1959028,15.0561806 89.9254167,14.9717361 89.7129861,14.7659028 C89.4939583,14.5653472 89.3646528,14.1985417 89.3131944,13.6641667 L89.1205556,11.601875 L86.7877778,11.8209028" id="Fill-10" fill="#FFFFFF" sketch:type="MSShapeGroup"></path>
            <path d="M106.553056,12.4911806 L105.837917,19.0369444 C105.746875,19.8615972 105.541042,20.5002083 105.2125,20.9567361 C104.709792,21.6652778 104.040833,22.194375 103.202986,22.5413889 C102.358542,22.8897222 101.502222,23.0190278 100.632708,22.9213889 C99.5059028,22.8 98.0228472,22.1613889 96.1875,21.0015972 L96.5740972,17.4588889 C96.6321528,16.9363889 96.7667361,16.5827778 96.9923611,16.3822222 C97.2113889,16.1829861 97.481875,16.0998611 97.8051389,16.138125 C98.1138889,16.1697917 98.3579861,16.3056944 98.5321528,16.5497917 C98.7063194,16.7952083 98.764375,17.1752083 98.7063194,17.6977083 L98.4740972,19.8233333 C99.4148611,20.3959722 100.232917,20.7192361 100.934861,20.7957639 C101.308264,20.840625 101.708056,20.7891667 102.126319,20.6611806 C102.545903,20.531875 102.867847,20.3643056 103.100069,20.1452778 C103.330972,19.92625 103.486667,19.7072222 103.576389,19.475 C103.627847,19.3522917 103.672708,19.0501389 103.730764,18.5738194 L104.420833,12.2589583 L101.810972,11.9765972 C101.276597,11.9185417 100.909792,11.7760417 100.715833,11.5570139 C100.51,11.3379861 100.432153,11.0675 100.465139,10.7521528 C100.503403,10.4302083 100.637986,10.1781944 100.883403,10.010625 C101.122222,9.83777778 101.508819,9.785 102.049792,9.83777778 L108.054583,10.5001389 C108.588958,10.5581944 108.955764,10.6940972 109.149722,10.913125 C109.348958,11.1321528 109.432083,11.4026389 109.400417,11.7245833 C109.362153,12.0465278 109.219653,12.2919444 108.982153,12.4661111 C108.743333,12.6336806 108.350139,12.6917361 107.815764,12.6336806 L106.553056,12.4911806" id="Fill-11" fill="#FFFFFF" sketch:type="MSShapeGroup"></path>
            <path d="M118.272361,20.9052778 L117.273542,23.9716667 L118.677431,24.4295139 C119.186736,24.5970833 119.515278,24.8029167 119.663056,25.0615278 C119.81875,25.3122222 119.843819,25.5959028 119.740903,25.9046528 C119.644583,26.2147222 119.457222,26.4271528 119.186736,26.5432639 C118.909653,26.6580556 118.523056,26.6329861 118.01375,26.4720139 L113.16875,24.8992361 C112.660764,24.7329861 112.332222,24.5258333 112.177847,24.2685417 C112.02875,24.0178472 112.003681,23.7341667 112.106597,23.4240972 C112.202917,23.1153472 112.390278,22.9029167 112.660764,22.7868056 C112.93125,22.6706944 113.324444,22.6904861 113.832431,22.8580556 L115.237639,23.3145833 L116.229861,20.2481944 L114.438056,14.1154167 C113.916875,13.94125 113.575139,13.7288194 113.427361,13.4702083 C113.272986,13.2195139 113.246597,12.9358333 113.349514,12.6270833 C113.445833,12.3236111 113.633194,12.1045833 113.903681,11.9884722 C114.180764,11.8723611 114.573958,11.89875 115.101736,12.0729167 L116.996458,12.6851389 C117.505764,12.8527083 117.834306,13.0585417 117.988681,13.3158333 C118.149653,13.5744444 118.174722,13.8568056 118.078403,14.1602778 C117.930625,14.6168056 117.537431,14.8688194 116.900139,14.9136806 L117.937222,18.4511111 L120.855833,16.1895833 C120.333333,16.0220139 120.004792,15.8161806 119.850417,15.5575694 C119.702639,15.3002778 119.67625,15.0231944 119.779167,14.7144444 C119.876806,14.404375 120.062847,14.1919444 120.333333,14.0758333 C120.603819,13.9610417 120.997014,13.9861111 121.512917,14.1536806 L123.980278,14.9466667 C124.501458,15.1195139 124.843194,15.3319444 124.990972,15.5839583 C125.146667,15.84125 125.171736,16.1249306 125.068819,16.435 C124.9725,16.7371528 124.785139,16.9495833 124.514653,17.0722917 C124.237569,17.1884028 123.844375,17.1620139 123.316597,16.9878472 L118.272361,20.9052778" id="Fill-12" fill="#FFFFFF" sketch:type="MSShapeGroup"></path>
            <path d="M133.456528,21.8843056 L129.236944,29.2745139 L133.30875,31.6006944 L134.333958,29.8022917 C134.597847,29.3391667 134.874931,29.0554861 135.152014,28.9591667 C135.435694,28.868125 135.711458,28.8945139 135.995139,29.0620833 C136.278819,29.2230556 136.446389,29.4420833 136.511042,29.7323611 C136.569097,30.0213194 136.466181,30.4013194 136.202292,30.8657639 L134.108333,34.5311806 L125.204722,29.4420833 C124.733681,29.1781944 124.456597,28.9077083 124.360278,28.6240278 C124.263958,28.3403472 124.295625,28.0632639 124.456597,27.7795833 C124.617569,27.5025 124.843194,27.3283333 125.133472,27.2702778 C125.42375,27.2069444 125.80375,27.3098611 126.266875,27.5803472 L127.375208,28.2110417 L131.588194,20.8221528 L130.486458,20.1901389 C130.016736,19.92625 129.739653,19.6557639 129.643333,19.3720833 C129.547014,19.0884028 129.578681,18.8113194 129.739653,18.5276389 C129.900625,18.251875 130.12625,18.0777083 130.416528,18.0196528 C130.706806,17.955 131.080208,18.0645139 131.549931,18.3284028 L135.621736,20.6545833 C136.092778,20.9184722 136.369861,21.1889583 136.466181,21.4726389 C136.5625,21.7497222 136.530833,22.0334028 136.369861,22.3104861 C136.207569,22.5941667 135.983264,22.7670139 135.692986,22.8250694 C135.402708,22.8897222 135.022708,22.7868056 134.558264,22.5163194 L133.456528,21.8843056" id="Fill-13" fill="#FFFFFF" sketch:type="MSShapeGroup"></path>
            <path d="M147.186667,31.4713889 L141.561875,37.8561806 L145.079514,40.9542361 L146.451736,39.4091667 C146.806667,39.0027778 147.128611,38.78375 147.424167,38.7454861 C147.714444,38.7125 147.984931,38.7969444 148.230347,39.009375 C148.467847,39.2284028 148.590556,39.4790972 148.590556,39.7759722 C148.590556,40.0715278 148.416389,40.4264583 148.056181,40.82625 L145.273472,43.9889583 L137.579792,37.2056944 C137.174722,36.8507639 136.955694,36.5288194 136.922708,36.2319444 C136.884444,35.9429861 136.968889,35.6725 137.181319,35.4270833 C137.400347,35.1882639 137.651042,35.066875 137.947917,35.066875 C138.243472,35.066875 138.598403,35.2397222 138.998194,35.5946528 L139.950833,36.4390972 L145.575625,30.0543056 L144.621667,29.2164583 C144.216597,28.8615278 143.997569,28.5329861 143.964583,28.2374306 C143.919722,27.9471528 144.010764,27.6766667 144.229792,27.4378472 C144.442222,27.19375 144.692917,27.0710417 144.996389,27.0710417 C145.285347,27.0710417 145.640278,27.2452083 146.040069,27.6054167 L149.557708,30.7047917 C149.962778,31.0584028 150.181806,31.3816667 150.221389,31.6772222 C150.259653,31.9740972 150.169931,32.2379861 149.956181,32.4834028 C149.74375,32.7275 149.486458,32.8502083 149.189583,32.8502083 C148.894028,32.8502083 148.545694,32.6694444 148.139306,32.3158333 L147.186667,31.4713889" id="Fill-14" fill="#FFFFFF" sketch:type="MSShapeGroup"></path>
            <path d="M154.369722,52.0164583 L154.060972,51.6047917 C153.739028,51.1733333 153.428958,50.9279167 153.138681,50.8698611 C152.849722,50.8118056 152.579236,50.8830556 152.314028,51.0756944 C152.063333,51.2696528 151.922153,51.51375 151.895764,51.810625 C151.870694,52.1075 152.025069,52.4677083 152.347014,52.8991667 L154.047778,55.1540972 C154.369722,55.5789583 154.673194,55.824375 154.962153,55.8824306 C155.252431,55.9404861 155.529514,55.8758333 155.786806,55.6831944 C156.045417,55.4826389 156.193194,55.1936806 156.224861,54.7938889 C156.238056,54.5999306 156.083681,54.2911806 155.761736,53.8663194 L161.668889,44.0021528 L158.905972,40.3301389 C158.582708,39.9052778 158.280556,39.6598611 157.990278,39.6018056 C157.701319,39.54375 157.424236,39.615 157.165625,39.8076389 C156.908333,40.0015972 156.767153,40.2456944 156.747361,40.5425694 C156.720972,40.8394444 156.870069,41.1930556 157.192014,41.6179167 L158.048333,42.7658333 L149.177708,45.1236806 C148.854444,44.6975 148.552292,44.4534028 148.262014,44.3953472 C147.971736,44.3372917 147.695972,44.4019444 147.437361,44.6011806 C147.180069,44.7951389 147.037569,45.0392361 147.0125,45.3361111 C146.992708,45.6316667 147.141806,45.9865972 147.46375,46.4114583 L149.164514,48.6729861 C149.486458,49.0978472 149.795208,49.3432639 150.085486,49.4079167 C150.375764,49.4659722 150.64625,49.3947222 150.903542,49.2020833 C151.167431,49.008125 151.303333,48.7627083 151.328403,48.4671528 C151.354792,48.1702778 151.200417,47.8100694 150.871875,47.3786111 L150.561806,46.965625 L151.973611,46.5922222 L155.123125,50.7669444 L154.369722,52.0164583 L154.369722,52.0164583 Z M154.215347,45.9931944 L158.705417,44.7951389 L156.309306,48.7825 L154.215347,45.9931944 L154.215347,45.9931944 Z" id="Fill-15" fill="#FFFFFF" sketch:type="MSShapeGroup"></path>
            <path d="M164.992569,57.0290278 L159.05375,59.8447222 L159.395486,60.5598611 C159.626389,61.0427778 159.697639,61.429375 159.621111,61.7130556 C159.536667,61.9967361 159.350625,62.2091667 159.05375,62.3503472 C158.763472,62.48625 158.479792,62.4994444 158.209306,62.3833333 C157.932222,62.2672222 157.688125,61.96375 157.455903,61.4808333 L156.199792,58.8195139 C155.967569,58.3365972 155.889722,57.95 155.974167,57.6676389 C156.057292,57.3839583 156.244653,57.1702083 156.541528,57.0290278 C156.830486,56.8944444 157.114167,56.88125 157.384653,56.9973611 C157.655139,57.1134722 157.907153,57.415625 158.139375,57.8985417 L165.825139,54.2581944 L165.670764,53.93625 C165.443819,53.4533333 165.367292,53.0667361 165.451736,52.7830556 C165.534861,52.499375 165.722222,52.2869444 166.011181,52.1523611 C166.306736,52.0098611 166.585139,51.9979861 166.860903,52.1127778 C167.131389,52.2288889 167.384722,52.5389583 167.616944,53.0152778 L168.677778,55.2768056 L163.202083,63.9930556 L169.110556,61.1971528 L168.768819,60.4754167 C168.536597,59.9925 168.466667,59.6059028 168.549792,59.3222222 C168.626319,59.0385417 168.815,58.8261111 169.110556,58.6915278 C169.399514,58.5490278 169.683194,58.5371528 169.953681,58.6532639 C170.224167,58.7746528 170.482778,59.0715278 170.708403,59.5610417 L171.964514,62.2157639 C172.195417,62.7052778 172.267986,63.0852778 172.190139,63.3689583 C172.105694,63.6579167 171.919653,63.8650694 171.624097,64.00625 C171.3325,64.14875 171.048819,64.1540278 170.778333,64.0392361 C170.507847,63.923125 170.258472,63.6196528 170.02625,63.1367361 L160.399583,67.6980556 L159.491806,65.7782639 L164.992569,57.0290278" id="Fill-16" fill="#FFFFFF" sketch:type="MSShapeGroup"></path>
            <path d="M163.531944,70.6747222 C163.286528,70.5071528 163.008125,70.4622917 162.694097,70.5388194 C162.377431,70.6100694 162.153125,70.7842361 162.017222,71.0415278 C161.876042,71.3054167 161.869444,71.6986111 161.997431,72.2145139 L163.029236,76.4921528 C163.291806,77.5872917 163.673125,78.4436111 164.156042,79.0558333 C164.472708,79.4424306 164.902847,79.835625 165.457014,80.2222222 C166.011181,80.6088194 166.668264,80.8727083 167.428264,81.0138889 C168.188264,81.1497917 169.012917,81.1115278 169.902222,80.8977778 L170.907639,80.6536806 C171.64125,80.4795139 172.242917,80.2472917 172.706042,79.9583333 C173.170486,79.6680556 173.620417,79.30125 174.051875,78.85 C174.489931,78.3921528 174.811875,77.9804861 175.038819,77.6057639 C175.326458,77.1096528 175.520417,76.5040278 175.610139,75.7836111 C175.707778,75.061875 175.669514,74.3533333 175.507222,73.6632639 L174.438472,69.2127778 C174.309167,68.6902778 174.128403,68.3419444 173.884306,68.174375 C173.638889,68.0068056 173.363125,67.9553472 173.046458,68.0331944 C172.737708,68.1097222 172.505486,68.2772917 172.370903,68.5425 C172.229722,68.7997917 172.229722,69.1929861 172.351111,69.7141667 L164.086111,71.7118056 C163.956806,71.1893056 163.769444,70.8488889 163.531944,70.6747222 M172.8525,71.8015278 L173.394792,74.0313889 C173.574236,74.7847917 173.582153,75.441875 173.406667,76.0158333 C173.239097,76.581875 172.808958,77.1611111 172.126806,77.7482639 C171.680833,78.1282639 171.126667,78.3921528 170.464306,78.553125 L169.458889,78.7985417 C168.685694,78.9845833 168.015417,78.9977778 167.46125,78.8302083 C166.908403,78.6692361 166.405694,78.3472917 165.954444,77.864375 C165.606111,77.49625 165.335625,76.890625 165.129792,76.0540972 L164.588819,73.7991667 L172.8525,71.8015278" id="Fill-17" fill="#FFFFFF" sketch:type="MSShapeGroup"></path>
            <path d="M73.0523611,162.010625 L69.4766667,173.30375 L71.5640278,173.960833 C72.0720139,174.121806 72.4071528,174.334236 72.55625,174.58625 C72.710625,174.843542 72.7356944,175.120625 72.639375,175.429375 C72.5430556,175.739444 72.3556944,175.951875 72.0852083,176.074583 C71.8147222,176.190694 71.428125,176.170903 70.9135417,176.009931 L64.7029167,174.045278 C64.1870139,173.884306 63.851875,173.670556 63.7040972,173.419861 C63.5497222,173.169167 63.5233333,172.885486 63.6196528,172.575417 C63.7159722,172.266667 63.9033333,172.054236 64.1738194,171.931528 C64.4443056,171.815417 64.8375,171.835208 65.3468056,171.996181 L67.4341667,172.653264 L70.1469444,164.084792 L68.1427083,163.988472 C67.8207639,163.975278 67.5819444,163.948889 67.4341667,163.897431 C67.1702778,163.814306 66.9763194,163.640139 66.8536111,163.369653 C66.725625,163.099167 66.7124306,162.808889 66.80875,162.506736 C66.8997917,162.223056 67.0409722,162.029097 67.2283333,161.912986 C67.4209722,161.796875 67.7627083,161.752014 68.2522222,161.771806 L73.0523611,162.010625" id="Fill-18" fill="#FFFFFF" sketch:type="MSShapeGroup"></path>
            <path d="M86.2652778,175.719653 C85.2730556,176.370139 84.2359722,176.635347 83.1474306,176.525833 C82.8505556,176.492847 82.5681944,176.396528 82.3095833,176.235556 C82.1103472,176.10625 81.9295833,176.035 81.7620139,176.023125 C81.4598611,175.990139 81.1959722,176.067986 80.9703472,176.24875 C80.738125,176.428194 80.6088194,176.673611 80.5771528,176.975764 C80.5388889,177.350486 80.666875,177.672431 80.96375,177.929722 C81.4018056,178.322917 82.0588889,178.567014 82.9152083,178.658056 C84.4813889,178.819028 85.9697222,178.4575 87.3802083,177.574792 C89.2102778,176.421597 90.2407639,174.747222 90.4729861,172.550347 C90.6009722,171.254653 90.5495139,169.991944 90.2988194,168.762222 C90.0534028,167.531181 89.5704861,166.55875 88.84875,165.843611 C88.1217361,165.128472 87.2390278,164.715486 86.1821528,164.605972 C84.7070139,164.458194 83.5023611,164.941111 82.5734722,166.056042 C81.8847222,166.8675 81.4915278,167.808264 81.3754167,168.878333 C81.2342361,170.243958 81.5495833,171.428819 82.3227778,172.440833 C83.089375,173.458125 84.0565278,174.018889 85.215,174.141597 C85.7111111,174.193056 86.1953472,174.148194 86.6650694,173.999097 C87.1295139,173.851319 87.6572917,173.580833 88.243125,173.174444 C87.9211806,174.224722 87.2575,175.075764 86.2652778,175.719653 M85.3640972,171.996181 C84.8099306,171.938125 84.3388889,171.64125 83.9588889,171.093681 C83.5788889,170.552708 83.4311111,169.882431 83.5142361,169.077569 C83.5986806,168.304375 83.8757639,167.705347 84.3520833,167.287083 C84.8284028,166.860903 85.3706944,166.681458 85.9815972,166.744792 C86.56875,166.809444 87.0648611,167.068056 87.47125,167.531181 C87.8829167,168.002222 88.1534028,168.735833 88.2827083,169.761042 C87.3155556,171.352292 86.343125,172.099097 85.3640972,171.996181" id="Fill-19" fill="#FFFFFF" sketch:type="MSShapeGroup"></path>
            <path d="M102.86125,175.507222 C102.016806,176.338472 101.050972,176.808194 99.9690278,176.917708 C99.666875,176.944097 99.37,176.905833 99.0863194,176.796319 C98.8672917,176.711875 98.6746528,176.680208 98.5070833,176.698681 C98.2036111,176.725069 97.9595139,176.854375 97.7721528,177.073403 C97.5847917,177.304306 97.5082639,177.562917 97.5333333,177.871667 C97.5729167,178.245069 97.7589583,178.52875 98.1072917,178.727986 C98.61,179.024861 99.29875,179.134375 100.161667,179.05125 C101.72125,178.902153 103.111944,178.251667 104.323194,177.105069 C105.889375,175.610139 106.56625,173.761597 106.3525,171.564722 C106.224514,170.269028 105.921042,169.045903 105.431528,167.892708 C104.948611,166.732917 104.278333,165.875278 103.428611,165.314514 C102.577569,164.761667 101.624931,164.536042 100.574653,164.638958 C99.0995139,164.780139 98.0175694,165.488681 97.3209028,166.771181 C96.8115972,167.69875 96.6057639,168.697569 96.7152778,169.766319 C96.8445833,171.139861 97.3921528,172.240278 98.3461111,173.078125 C99.29875,173.915972 100.355625,174.276181 101.514097,174.166667 C102.010208,174.121806 102.474653,173.980625 102.906111,173.741806 C103.337569,173.509583 103.802014,173.129583 104.298125,172.621597 C104.182014,173.716736 103.705694,174.675972 102.86125,175.507222 M101.237014,172.041042 C100.684167,172.0925 100.161667,171.893264 99.6853472,171.435417 C99.2024306,170.977569 98.9253472,170.346875 98.8475,169.542014 C98.7709722,168.768819 98.9253472,168.130208 99.3119444,167.620903 C99.6919444,167.112917 100.188056,166.829236 100.805556,166.771181 C101.386111,166.713125 101.927083,166.874097 102.416597,167.240903 C102.912708,167.620903 103.325694,168.291181 103.654236,169.264931 C103.022222,171.02375 102.217361,171.944722 101.237014,172.041042" id="Fill-20" fill="#FFFFFF" sketch:type="MSShapeGroup"></path>
            <path d="M119.083819,171.976389 C118.426736,172.962014 117.575694,173.613819 116.532014,173.942361 C116.243056,174.025486 115.952778,174.045278 115.649306,173.999097 C115.418403,173.960833 115.217847,173.967431 115.056875,174.018889 C114.766597,174.108611 114.554167,174.282778 114.419583,174.541389 C114.283681,174.798681 114.258611,175.069167 114.348333,175.366042 C114.457847,175.72625 114.703264,175.965069 115.076667,176.087778 C115.637431,176.280417 116.332778,176.24875 117.157431,175.990139 C118.658958,175.527014 119.888681,174.611319 120.836042,173.239097 C122.073681,171.461806 122.356042,169.522222 121.705556,167.408472 C121.325556,166.165556 120.777986,165.032153 120.069444,163.99375 C119.360903,162.956667 118.529653,162.254722 117.582292,161.881319 C116.634931,161.507917 115.6625,161.474931 114.645208,161.791597 C113.233403,162.229653 112.312431,163.144028 111.894167,164.536042 C111.584097,165.546736 111.584097,166.571944 111.906042,167.595833 C112.312431,168.91 113.065833,169.882431 114.167569,170.507847 C115.275903,171.139861 116.384236,171.281042 117.499167,170.939306 C117.975486,170.791528 118.400347,170.559306 118.775069,170.237361 C119.148472,169.922014 119.528472,169.457569 119.908472,168.858542 C120.017986,169.947083 119.740903,170.990764 119.083819,171.976389 M116.795903,168.903403 C116.261528,169.070972 115.713958,168.974653 115.153194,168.626319 C114.587153,168.279306 114.187361,167.718542 113.948542,166.945347 C113.717639,166.197222 113.742708,165.546736 114.013194,164.9675 C114.283681,164.393542 114.715139,164.013542 115.302292,163.832778 C115.863056,163.659931 116.4225,163.704792 116.983264,163.968681 C117.544028,164.239167 118.078403,164.813125 118.600903,165.701111 C118.337014,167.550972 117.731389,168.613125 116.795903,168.903403" id="Fill-21" fill="#FFFFFF" sketch:type="MSShapeGroup"></path>
            <path d="M75.1133333,82.3029861 L63.8202083,93.7518056 L44.4204167,68.1559028 L75.1133333,82.3029861" id="Fill-22" fill="#FFFFFF" sketch:type="MSShapeGroup"></path>
            <path d="M111.894167,82.3029861 L123.180694,93.7518056 L142.585764,68.1559028 L111.894167,82.3029861" id="Fill-23" fill="#FFFFFF" sketch:type="MSShapeGroup"></path>
            <path d="M102.036597,129.089167 C105.2125,129.089167 105.174236,131.518264 105.174236,131.518264 C105.174236,133.064653 103.505139,136.723472 103.505139,136.723472 L100.606319,143.680903 L116.822292,128.888611 L102.673889,80.4729167 L84.3322917,80.4729167 L70.1786111,128.888611 L86.4011806,143.680903 L83.5023611,136.723472 C83.5023611,136.723472 81.8266667,133.064653 81.8266667,131.518264 C81.8266667,131.518264 81.7884028,129.089167 84.9709028,129.089167 L102.036597,129.089167" id="Fill-24" fill="#FFFFFF" sketch:type="MSShapeGroup"></path>
        </g>
    </g>
</svg>