<?xml version="1.0" encoding="utf-8"?>
<!-- Generator: Adobe Illustrator 19.1.0, SVG Export Plug-In . SVG Version: 6.00 Build 0)  -->
<svg version="1.1" id="Layer_1" xmlns="http://www.w3.org/2000/svg" xmlns:xlink="http://www.w3.org/1999/xlink" x="0px" y="0px"
	 viewBox="0 0 438 556" style="enable-background:new 0 0 438 556;" xml:space="preserve">
<style type="text/css">
	.st0{fill:#CFB260;}
	.st1{fill:#FE2A0C;}
	.st2{fill:#FEFEFD;}
	.st3{fill:#38018B;}
	.st4{fill:#CFB15D;}
</style>
<g>
	<path class="st0" d="M219.3,9.9c0.6,0.8,1.2,1.6,1.8,2.5c20.9,29.8,41.7,59.6,62.6,89.4c40.2,57.4,80.4,114.9,120.7,172.2
		c2.1,3,2,4.9,0,7.9C343.2,369,282.2,456.2,221.2,543.5c-1.9,2.7-2.6,2.7-4.5,0C171.9,479.3,127,415.2,82.1,351.1
		c-16.2-23.2-32.5-46.4-48.8-69.6c-1.9-2.7-2-4.5,0-7.2c54.5-77.7,108.9-155.4,163.3-233.1c6.7-9.6,13.4-19.2,20.2-28.8
		C217.4,11.5,217.8,10.2,219.3,9.9z M218.8,304.7c-51.2,0-102.3,0-153.5,0c-1.2,0-2.9-0.8-3.5,0.7c-0.5,1.1,0.9,2.1,1.6,3
		c6.7,9.6,13.5,19.2,20.2,28.8c44.2,63.1,88.4,126.3,132.7,189.4c2.8,4,2.8,4,5.5,0.2c16.8-24,33.5-47.9,50.3-71.9
		c29.4-42,58.8-83.9,88.2-125.9c5-7.1,9.9-14.3,14.9-21.4c0.5-0.7,1.6-1.4,1-2.4c-0.5-0.9-1.7-0.4-2.5-0.5c-0.9-0.1-1.8,0-2.8,0
		C320.1,304.7,269.4,304.7,218.8,304.7z M270.4,174.7c0-24.1,0-48.2,0-72.4c0-2.2-0.3-4.1-1.6-5.9c-15.9-22.6-31.8-45.3-47.6-68
		c-1.9-2.7-2.8-2.8-4.7,0c-15.8,22.7-31.6,45.4-47.6,68c-1.3,1.9-1.7,3.7-1.7,5.9c0,48.2,0.1,96.5,0,144.7c0,3.2,0.8,4.2,4.1,4.2
		c31.6-0.1,63.3-0.1,94.9,0c3.3,0,4.2-0.8,4.2-4.1C270.4,222.9,270.4,198.8,270.4,174.7z M219.3,255.7c-27.3,0-54.6,0-81.9,0
		c-25.3,0-50.6,0.1-75.9-0.1c-3,0-4.8,0.9-6.4,3.4c-3.4,5.3-7.1,10.4-10.9,15.5c-1.8,2.3-2,4.1-0.1,6.6c3.9,5.1,7.7,10.4,11.2,15.8
		c1.7,2.6,3.6,3.3,6.5,3.3c36.4-0.1,72.8-0.1,109.2-0.1c68.4,0,136.8,0,205.3,0.1c3.2,0,5.1-1,6.7-3.6c3.6-5.5,7.4-10.9,11.3-16.2
		c1.5-2,1.3-3.3-0.1-5.2c-3.8-5.1-7.5-10.2-10.9-15.5c-1.9-3-4.1-4-7.7-4C323.4,255.8,271.4,255.7,219.3,255.7z M275.2,105.6
		c-0.2,1.6-0.3,2-0.3,2.3c0,46.6,0,93.3-0.1,139.9c0,2.6,0.7,3.3,3.3,3.3c31.9-0.1,63.8,0,95.7-0.1c0.8,0,1.9,0.4,2.5-1
		C342.9,202.3,309.4,154.3,275.2,105.6z M162.3,106.4c-0.7,0.9-1.4,1.7-2,2.5c-32.4,46.3-64.8,92.6-97.2,138.9
		c-0.6,0.8-1.8,1.6-1.3,2.7c0.6,1.2,2.1,0.6,3.2,0.6c31.1,0,62.2,0,93.3,0.1c3.7,0,4.5-1.1,4.5-4.6c-0.1-45.4-0.1-90.7-0.1-136.1
		C162.8,109.3,163.2,107.9,162.3,106.4z"/>
	<path class="st1" d="M218.8,304.7c50.6,0,101.3,0,151.9,0c0.9,0,1.9-0.1,2.8,0c0.9,0.1,2-0.4,2.5,0.5c0.6,1-0.5,1.7-1,2.4
		c-4.9,7.2-9.9,14.3-14.9,21.4C330.8,371,301.4,413,272,455c-16.8,24-33.5,47.9-50.3,71.9c-2.7,3.8-2.7,3.8-5.5-0.2
		c-44.2-63.1-88.4-126.3-132.7-189.4c-6.7-9.6-13.5-19.2-20.2-28.8c-0.7-0.9-2-1.9-1.6-3c0.6-1.5,2.3-0.7,3.5-0.7
		C116.5,304.7,167.6,304.7,218.8,304.7z M315.4,325.3c0.1-0.1,0.1-0.2,0.2-0.3C315.5,325.2,315.5,325.3,315.4,325.3
		c-0.3,0.2-0.6,0.4-1,0.6c-1.3,0-2.2,0.9-3.2,1.4c-8.6,5.1-17.6,9.6-27.5,11.8c-2.9,0.6-3.4,1.5-2.6,4.5c2.2,8.2-1,12.2-9.5,12.5
		c-0.8,0-1.6,0.1-2.4,0c-2.3-0.2-4.9,0-4.6-3.7c0.2-2.8-0.5-5.9,4-5c1.3,0.2,2.3-0.1,2.4-1.8c0-1.6-0.8-2.2-2.2-2
		c-3.2,0.5-4.5-0.7-4.2-4c0.2-2.4-1.8-2-3.4-2.1c-1.6-0.1-3.1,0.1-2.8,2.2c0.6,3.6-1.2,4.3-4.3,3.9c-1.4-0.2-2.2,0.4-2.2,2
		c0,1.7,1,1.9,2.4,1.9c0.5,0,1.1,0,1.6,0c1.5-0.1,2.8,0.3,2.4,2.1c-0.5,2,1.8,5.3-1.7,6c-7.6,1.4-15.3,1-22.3-2.7
		c-6.7-3.5-8.7-14.9,0.3-18.2c0.6-0.2,1.6-0.5,1.4-1.9c-7.6-3-12.8-9-17.3-16.4c-4.1,7.9-10,13.2-17.7,16.9
		c7.6,5.1,7.9,5.6,7.6,10.1c-0.4,4.8-3.1,8.1-7.3,10c-6,2.7-12.4,3-19,2.5c-4.4-0.4-2.7-3.5-3-5.8c-0.4-2.9,1.6-2.7,3.5-2.7
		c1.5,0,3,0.2,2.9-2.1c-0.1-2.1-1.6-1.8-2.8-1.7c-2.6,0.3-4.1-0.4-3.6-3.4c0.4-2.4-0.9-2.9-3-2.8c-2.1,0-3.8,0.2-3.4,2.9
		c0.4,2.6-0.7,3.6-3.3,3.3c-1.2-0.1-2.7-0.4-2.8,1.7c-0.1,2.3,1.4,2.3,2.9,2.1c2.7-0.3,3.4,0.9,3.3,3.4c-0.1,5-0.3,5.3-5.3,5.4
		c-2,0-3.9-0.2-5.9-0.7c-4.6-1.3-6.8-4.5-5.9-9.2c0.2-1.3,0.6-2.6,1-3.8c0.6-1.8,0.3-2.6-1.7-3c-4.8-1-9.3-2.7-13.9-4.4
		c-6.3-2.4-11.7-6.5-17.9-9.1c-0.3-0.2-0.7-0.4-1-0.6c-0.1-0.1-0.2-0.2-0.2-0.2c0.1,0.1,0.2,0.1,0.3,0.2c0.2,0.3,0.5,0.6,0.7,0.9
		c0.7,1.2,1.4,2.5,2.2,3.7c6.8,9.8,13.8,19.6,20.5,29.5c2,2.9,4,4.1,7.6,4.1c43.3-0.1,86.7-0.2,130,0c4,0,6.6-1.1,8.6-4.6
		c2-3.4,4.6-6.4,6.8-9.7c5.2-7.7,11.1-15,15.9-23.1C314.9,325.9,315.2,325.6,315.4,325.3z M203.9,446.5c-1,0.7-1.6,0.2-2.2,0.1
		c-7.1-2-14.2-3.8-21.3-6c-3-0.9-3.7,0-3.6,2.8c0.2,4.6,0,9.2,0.1,13.8c0.1,6-1.5,7,6.4,4.7c6.6-1.9,13.3-3.7,21.1-5.8
		c-4.1,5.7-7.4,10.5-11,15.4c17.3,0,33.9,0,51.1,0c-3.6-5-6.8-9.6-10.1-14.1c1.3-1,2.1-0.5,3-0.3c6.6,1.8,13.2,3.4,19.8,5.5
		c3.3,1,3.9-0.1,3.8-3c-0.2-5.3-0.2-10.6,0-15.8c0.1-3.3-0.7-4.1-4-3.1c-7.5,2.3-15.1,4.3-23.6,6.6c4-5.6,7.5-10.4,11.2-15.6
		c-17.4,0-34.1,0-51.3,0C197,437,200.4,441.8,203.9,446.5z M244.5,377c-17.4,0-34,0-51.2,0c3.7,5.1,7.1,9.7,10.6,14.6
		c-1.8,0.5-2.8-0.1-3.8-0.3c-6.6-1.8-13.2-3.7-19.7-5.5c-2.5-0.7-3.6-0.2-3.5,2.7c0.2,4.2,0,8.4,0,12.6c0,7.8,0,7.8,7.6,5.6
		c6.3-1.8,12.7-3.5,20.1-5.6c-4.1,5.7-7.6,10.5-11.5,16c2.3,0,3.5,0,4.6,0c14.8,0,29.5,0,44.3,0c2.3,0,2.6-0.7,1.2-2.4
		c-3.1-4.2-6.1-8.5-9.2-12.7c0.9-0.6,1.5-0.2,2.1-0.1c7.2,2,14.5,3.9,21.7,6c2.4,0.7,3.3,0.5,3.3-2.3c-0.1-5.8-0.2-11.6,0-17.4
		c0.1-2.7-1-3.2-3.3-2.6c-3.9,1.1-7.8,2.3-11.8,3.3c-3.8,0.9-7.5,2.5-12.2,2.9C237.5,386.7,240.8,382.1,244.5,377z"/>
	<path class="st2" d="M270.4,174.7c0,24.1-0.1,48.2,0.1,72.4c0,3.3-0.9,4.2-4.2,4.1c-31.6-0.1-63.3-0.1-94.9,0c-3.4,0-4.1-1-4.1-4.2
		c0.1-48.2,0.1-96.5,0-144.7c0-2.2,0.4-4,1.7-5.9c15.9-22.6,31.8-45.3,47.6-68c1.9-2.8,2.8-2.7,4.7,0c15.8,22.7,31.6,45.4,47.6,68
		c1.3,1.9,1.6,3.8,1.6,5.9C270.4,126.4,270.4,150.5,270.4,174.7z M256,148.2c-4.3,0.7-7.5,2.2-9.7,5.8c-1.9,3.3-4.3,6.3-6.5,9.4
		c-3.9,5.6-7.8,11.5-13.9,15c-14.7,8.6-29.8,7.8-34.9-13.3c-4.7-19.6,0-37.4,10.5-53.9c7.5-11.9,17.6-20.6,32.4-22.2
		c6.9-0.8,14.6,3.6,16.9,9.8c2.5,6.8-0.2,12.1-6.5,13.1c0-1.3,0-2.6,0-3.9c0.1-3.5-1-6.2-4.5-7.5c-3.4-1.2-6.4,0-8.5,2.6
		c-2.4,2.9-2,6.2,0.2,9.1c3.1,4.3,7.5,6.5,12.7,5.5c5.9-1.1,10.9-3.9,12.6-10.1c2.3-8.2-1.4-14.8-7.3-20c-9.1-8.1-19.5-7.2-29.6-2.4
		c-16.9,7.9-27.5,21.8-34.1,38.8c-6,15.4-7.3,31.3-1.7,47.1c4.7,13.3,15.6,20.3,29,18.7c8.1-0.9,14.8-5.2,21.1-10.2
		c2.5-2,4.9-4.1,8.2-6.8c-2.7,19-7.7,35.8-20,49.6c-5.4,6.1-11.2,12-20,13.1c-4.5,0.5-8.7-0.1-12.5-2.5c-3.5-2.2-4.4-6.4-2.4-10.1
		c1.6-2.9,4.5-3.6,8.7-2.1c1.1,0.4,2,1.7,3.6,1.1c0.6-3.4-0.5-6.1-3.3-7.9c-3.3-2.1-6.9-2.5-10.5-0.7c-7,3.5-9.1,12.3-4.8,19.8
		c3.8,6.6,13,10.2,22.2,8.7c11.2-1.8,19-8.8,25.7-17.1c12.4-15.5,20.1-33.3,23.9-52.7C254.4,164.3,255.5,156.4,256,148.2z"/>
	<path class="st2" d="M219.3,255.7c52.1,0,104.1,0,156.2-0.1c3.6,0,5.8,1,7.7,4c3.4,5.3,7.1,10.5,10.9,15.5c1.4,1.9,1.5,3.3,0.1,5.2
		c-3.9,5.3-7.7,10.7-11.3,16.2c-1.7,2.6-3.6,3.6-6.7,3.6c-68.4-0.1-136.8-0.1-205.3-0.1c-36.4,0-72.8,0-109.2,0.1
		c-2.9,0-4.8-0.7-6.5-3.3c-3.5-5.4-7.2-10.7-11.2-15.8c-1.9-2.5-1.7-4.2,0.1-6.6c3.8-5,7.5-10.2,10.9-15.5c1.6-2.5,3.4-3.4,6.4-3.4
		c25.3,0.1,50.6,0.1,75.9,0.1C164.7,255.7,192,255.7,219.3,255.7z M89,287.6c-0.4-1-0.6-1.4-0.7-1.7c-2-7.2-4-14.5-5.8-21.7
		c-0.7-2.9-2.8-2.5-4.6-2.1c-2.3,0.5-0.6,2.2-0.4,3.1c2.5,8.5,5.2,16.9,7.8,25.3c0.5,1.8,0.9,3.3,3.5,3.3c2.5,0,3.4-1,4.1-3.2
		c2.4-7.8,5-15.5,7.7-24c2.8,8.6,5.3,16.4,7.8,24.3c0.6,1.8,1.2,2.9,3.5,2.9c2.1-0.1,2.9-0.9,3.5-2.8c2.5-8.4,5.3-16.8,7.9-25.2
		c0.4-1.2,1.8-2.9-0.3-3.6c-2-0.7-3.7-0.2-4.4,2.4c-1.2,5-2.6,9.9-4.2,14.8c-0.8,2.5-0.9,5.2-2.5,7.4c-2.3-7.1-4.6-13.9-6.7-20.8
		c-0.7-2.4-1.2-4.2-4.6-4.1c-3.2,0.1-3.6,1.9-4.3,4C93.9,272.9,91.6,280,89,287.6z M185.6,276.6c3-2.1,4.9-4.7,3.8-8.4
		c-1.2-3.7-4.2-5.1-7.7-6c-0.4-0.1-0.8-0.1-1.2-0.1c-5,0-10,0-15-0.1c-1.9,0-2.6,0.7-2.5,2.5c0.1,8.9,0,17.9,0,26.8
		c0,1.6,0.5,2.4,2.2,2.4c5.7-0.1,11.3,0.2,17-0.2c6.3-0.5,9.6-4.5,9.1-10.1C191,279.9,188.3,278.5,185.6,276.6z M219,279.6
		c0.8-0.4,1.1-0.7,1.5-0.8c6.1-2.2,8-4.9,7.2-10c-0.6-3.9-4.4-6.6-9.9-6.7c-5.5-0.1-11.1,0-16.6-0.1c-1.8,0-3,0.2-3,2.5
		c0.1,8.9,0.1,17.9,0,26.8c0,1.9,0.7,2.5,2.6,2.5c2.1,0,2.4-1,2.3-2.7c-0.1-3,0-6.1,0-9.1c0-1.2,0-2.3,1.8-2.4
		c4.9-0.3,9.5,0.1,12.6,4.7c1.3,2,3.1,3.6,4.2,5.7c2,3.6,4.8,4.4,9,3.3C226.9,288.6,224,283.4,219,279.6z M308.4,279.5
		c-3.3,3.4-5.9,6.3-8.7,9c-1.3,1.3-1.3,2.9-0.8,4.4c0.5,1.4,2.1,0.8,3.1,0.8c7.6,0.1,15.3,0.1,22.9,0c1.3,0,3.1,0.7,3.2-1.8
		c0.1-2.6-1.8-2.1-3.3-2.1c-6.4,0-12.7,0-20.1,0c5.7-5.4,9.1-12.5,17.9-10.4c0.1,0,0.3,0,0.4,0c1.3,0.1,1.9-0.5,1.9-1.8
		c0-1.4-0.4-2.3-2-2.2c-1.3,0-2.5,0-4.6,0c3-3.2,5.4-5.7,7.8-8.3c1.1-1.1,1.4-2.5,1.1-4c-0.2-1.3-1.3-1.1-2.2-1.2
		c-7.5,0-15,0-22.5,0c-1.2,0-2,0.4-2,1.8c0,1.2,0.4,2.1,1.8,2.1c1.1,0,2.1,0,3.2,0c4.8,0,9.5,0,14.7,0c-4.4,5.9-8.1,11.3-16,9.5
		c-0.1,0-0.3,0-0.4,0c-1.4,0-1.8,0.7-1.9,1.9c-0.1,1.5,0.6,2.2,2.1,2.1C305.3,279.4,306.4,279.5,308.4,279.5z M333.1,277.7
		c0,4.5,0,9,0,13.4c0,1.8,0.5,2.6,2.5,2.6c7.8-0.1,15.6,0,23.3,0c1.5,0,2.6-0.1,2.5-2.1c-0.1-2.1-1.5-1.8-2.8-1.8c-4.3,0-8.7,0-13,0
		c-7.3,0-7.2,0-7.2-7.3c0-2.4,0.6-3.3,3.1-3.2c4.9,0.2,9.8,0.1,14.6,0c1.3,0,2.7,0.3,2.8-1.8c0.1-2.3-1.4-2.2-2.9-2.2
		c-4.9,0-9.8-0.1-14.6,0c-2.1,0.1-3.3-0.5-3-2.8c0.1-1,0.1-2.1,0-3.2c-0.4-2.7,0.6-3.7,3.5-3.6c5.4,0.2,10.8,0.1,16.2,0.1
		c1.3,0,2.3-0.1,2.4-1.8c0.1-1.9-0.9-2.2-2.5-2.2c-7.4,0-14.8,0.1-22.1,0c-2.4,0-2.8,1.1-2.8,3.1
		C333.1,269.3,333.1,273.5,333.1,277.7z M267.1,277.7c0,4.5,0.1,9,0,13.4c0,1.8,0.5,2.6,2.4,2.6c7.6-0.1,15.3,0,22.9,0
		c1.2,0,2.4,0.2,2.5-1.7c0.1-1.8-0.8-2.2-2.4-2.2c-4.3,0.1-8.7,0.1-13,0c-7.9-0.2-6.7,1.6-7-7.2c-0.1-2.7,0.9-3.4,3.4-3.3
		c4.6,0.2,9.2,0,13.8,0c1.5,0,3,0.1,2.9-2.2c-0.1-2.1-1.5-1.8-2.8-1.8c-4.6,0-9.2-0.2-13.8,0c-2.8,0.1-3.8-0.9-3.5-3.6
		c0.1-0.9,0.1-1.9,0-2.8c-0.3-2.4,0.7-3.3,3.1-3.2c5.3,0.1,10.5,0,15.8,0c1.3,0,2.7,0.1,2.7-1.9c0-1.9-1.1-2.1-2.5-2.1
		c-7.2,0-14.5,0.1-21.7,0c-2.4,0-2.8,1.1-2.8,3.1C267.1,269.3,267.1,273.5,267.1,277.7z M239.2,289.9c0.5-1.8,1.7-2.5,2.6-3.4
		c6.1-6.4,12.1-12.8,18.2-19.2c1.2-1.3,1.9-2.6,1.3-4.3c-0.6-1.7-2.3-0.9-3.5-1c-6.6-0.1-13.2-0.1-19.8,0c-1.4,0-3.4-0.8-3.5,1.9
		c-0.1,2.7,1.9,2,3.3,2c5.3,0,10.6,0,16.8,0c-2.9,3.1-5.2,5.5-7.4,7.8c-4.4,4.7-8.8,9.4-13.3,14.1c-1.4,1.5-2.2,3.2-1.4,5
		c0.7,1.7,2.6,0.8,3.9,0.8c7.3,0.1,14.5,0.1,21.8,0c1.4,0,3.4,0.7,3.3-2c-0.1-2.7-2.1-1.8-3.5-1.8
		C252,289.8,245.8,289.9,239.2,289.9z M125.4,262.4c2.6,3.4,4.7,6.7,7.4,9.5c5,5.1,7.6,10.8,6.4,18.1c-0.3,1.9-0.5,3.9,2.7,3.9
		c3.1-0.1,2.6-2.2,2.4-3.8c-1-6.9,1.2-12.5,6.2-17.3c2.5-2.4,4.5-5.4,6.7-8.2c0.5-0.7,1.5-1.2,1-2.3c-3.4-1-5.7,0.1-7.7,3
		c-2.2,3.3-4.8,6.3-7.1,9.5c-1.1,1.6-1.8,1.4-2.8-0.1c-2.2-3.1-4.7-6-6.7-9.2C132,262.3,129.5,261.2,125.4,262.4z"/>
	<path class="st3" d="M275.2,105.6c34.1,48.8,67.7,96.7,101.2,144.5c-0.6,1.4-1.7,1-2.5,1c-31.9,0-63.8,0-95.7,0.1
		c-2.6,0-3.3-0.7-3.3-3.3c0.1-46.6,0.1-93.3,0.1-139.9C275,107.5,275,107.1,275.2,105.6z M313.8,201.9c-0.5,0-1.1,0-1.6,0
		c-6.3,0.2-10.9,3.5-11.7,8.6c-1,5.8,2,10.3,8.4,12.5c3,1,6.1,1.7,9,2.8c1.6,0.6,3.1,1.6,3.1,3.7c0,1.9-1.2,3.1-2.7,4
		c-4.3,2.5-9.5,0.9-11.3-4c-1.5-4.3-4.5-1.7-6.6-1.5c-2.6,0.3-0.8,2.7-0.5,3.8c1.4,5.2,4.9,8.3,10.3,9c5.8,0.8,11.5,0.9,15.6-4.1
		c5.5-6.6,2.9-15.2-5.5-18.5c-3.4-1.3-7-2.2-10.5-3.4c-1.4-0.5-2.2-1.4-2.2-3c0-1.6,1-2.3,2.3-2.9c3.7-1.7,7.4-0.5,9.6,3.2
		c1.8,3,4.6,1.5,6.7,1.1c2.2-0.4,0.9-2.6,0.5-3.9C325,204.4,320.8,202,313.8,201.9z"/>
	<path class="st1" d="M162.3,106.4c0.9,1.5,0.5,2.8,0.5,4.1c0,45.4,0,90.7,0.1,136.1c0,3.6-0.8,4.6-4.5,4.6
		c-31.1-0.2-62.2-0.1-93.3-0.1c-1.1,0-2.6,0.6-3.2-0.6c-0.5-1,0.7-1.9,1.3-2.7c32.4-46.3,64.8-92.6,97.2-138.9
		C160.9,108.1,161.5,107.3,162.3,106.4z M145.9,239.9c-3.7-4.1-7.3-8.2-11-12.2c-5.1-5.5-5.1-5.4-0.1-11.1
		c3.8-4.4,7.5-8.9,11.5-13.6c-7.3-1.2-13.3-0.8-17.3,5.9c-1.9,3.2-5.1,5.7-7.9,8.8c-0.2-0.9-0.3-1.2-0.3-1.5c0-2.6,0-5.3,0-7.9
		c-0.1-6.5,0.9-5.7-6-5.8c-0.1,0-0.3,0-0.4,0c-3.1-0.5-3.7,1-3.7,3.8c0.2,9,0,17.9,0.1,26.9c0.1,8.6-1.7,7.2,7.5,7.4
		c2.4,0.1,3.3-0.6,3.2-3.1c-0.2-3,0-6.1,0-9.1C128.5,235.1,133.6,244.5,145.9,239.9z"/>
	<path class="st4" d="M123.4,325.9c6.2,2.6,11.6,6.7,17.9,9.1c4.6,1.8,9.1,3.5,13.9,4.4c2,0.4,2.4,1.2,1.7,3c-0.4,1.2-0.8,2.5-1,3.8
		c-0.9,4.7,1.3,7.9,5.9,9.2c1.9,0.5,3.9,0.7,5.9,0.7c5.1-0.1,5.3-0.4,5.3-5.4c0-2.5-0.6-3.7-3.3-3.4c-1.5,0.2-3,0.2-2.9-2.1
		c0.1-2.1,1.6-1.8,2.8-1.7c2.6,0.3,3.7-0.7,3.3-3.3c-0.4-2.7,1.3-2.9,3.4-2.9c2.1,0,3.4,0.4,3,2.8c-0.5,3,1,3.6,3.6,3.4
		c1.2-0.1,2.7-0.4,2.8,1.7c0.1,2.3-1.4,2.1-2.9,2.1c-1.9,0-3.9-0.2-3.5,2.7c0.3,2.3-1.4,5.4,3,5.8c6.5,0.5,12.9,0.1,19-2.5
		c4.2-1.9,6.9-5.2,7.3-10c0.4-4.5,0-5-7.6-10.1c7.7-3.7,13.6-9,17.7-16.9c4.5,7.4,9.7,13.4,17.3,16.4c0.2,1.4-0.8,1.7-1.4,1.9
		c-9,3.2-7,14.6-0.3,18.2c7,3.7,14.7,4.1,22.3,2.7c3.5-0.6,1.2-3.9,1.7-6c0.4-1.8-0.9-2.2-2.4-2.1c-0.5,0-1.1,0-1.6,0
		c-1.3,0-2.3-0.2-2.4-1.9c0-1.6,0.8-2.2,2.2-2c3,0.4,4.8-0.4,4.3-3.9c-0.3-2.1,1.2-2.3,2.8-2.2c1.5,0.1,3.6-0.3,3.4,2.1
		c-0.3,3.4,1,4.5,4.2,4c1.4-0.2,2.2,0.4,2.2,2c0,1.7-1.1,2.1-2.4,1.8c-4.6-0.8-3.8,2.2-4,5c-0.3,3.7,2.3,3.5,4.6,3.7
		c0.8,0.1,1.6,0,2.4,0c8.6-0.3,11.8-4.3,9.5-12.5c-0.8-2.9-0.3-3.8,2.6-4.5c9.9-2.2,18.8-6.6,27.5-11.8c1-0.6,1.9-1.5,3.2-1.4
		c0,0,0.3,0.3,0.3,0.3c-4.8,8-10.6,15.3-15.9,23.1c-2.2,3.3-4.8,6.3-6.8,9.7c-2,3.5-4.5,4.6-8.6,4.6c-43.3-0.2-86.7-0.1-130,0
		c-3.6,0-5.7-1.2-7.6-4.1c-6.7-9.9-13.7-19.7-20.5-29.5c-0.8-1.2-1.5-2.5-2.2-3.7L123.4,325.9z"/>
	<path class="st4" d="M203.9,446.5c-3.4-4.7-6.9-9.5-10.7-14.7c17.2,0,33.9,0,51.3,0c-3.7,5.1-7.2,10-11.2,15.6
		c8.5-2.3,16.1-4.3,23.6-6.6c3.3-1,4.1-0.2,4,3.1c-0.2,5.3-0.2,10.5,0,15.8c0.1,3-0.5,4-3.8,3c-6.5-2-13.2-3.7-19.8-5.5
		c-0.9-0.2-1.7-0.7-3,0.3c3.2,4.5,6.5,9.1,10.1,14.1c-17.2,0-33.8,0-51.1,0c3.5-4.9,6.9-9.7,11-15.4c-7.8,2.1-14.5,3.9-21.1,5.8
		c-7.9,2.3-6.3,1.3-6.4-4.7c-0.1-4.6,0.1-9.2-0.1-13.8c-0.1-2.8,0.5-3.7,3.6-2.8c7,2.2,14.2,4,21.3,6
		C202.3,446.7,202.9,447.2,203.9,446.5z"/>
	<path class="st4" d="M244.5,377c-3.7,5.1-7,9.7-10.8,14.9c4.7-0.4,8.4-2,12.2-2.9c4-1,7.8-2.2,11.8-3.3c2.3-0.7,3.4-0.1,3.3,2.6
		c-0.2,5.8-0.1,11.6,0,17.4c0.1,2.7-0.8,3-3.3,2.3c-7.2-2.1-14.4-4-21.7-6c-0.6-0.2-1.2-0.6-2.1,0.1c3.1,4.2,6.1,8.5,9.2,12.7
		c1.3,1.8,1,2.5-1.2,2.4c-14.8,0-29.5,0-44.3,0c-1.2,0-2.4,0-4.6,0c3.9-5.4,7.4-10.2,11.5-16c-7.4,2-13.7,3.8-20.1,5.6
		c-7.6,2.2-7.6,2.2-7.6-5.6c0-4.2,0.1-8.4,0-12.6c-0.1-2.9,1-3.4,3.5-2.7c6.6,1.9,13.2,3.7,19.7,5.5c1,0.3,2,0.8,3.8,0.3
		c-3.5-4.8-6.9-9.5-10.6-14.6C210.6,377,227.2,377,244.5,377z"/>
	<path class="st4" d="M122.4,325.3c-0.1-0.1-0.2-0.1-0.3-0.2C122.2,325.2,122.3,325.3,122.4,325.3
		C122.3,325.4,122.4,325.3,122.4,325.3z"/>
	<path class="st4" d="M315.5,325.4c0-0.1,0.1-0.2,0.1-0.4C315.5,325.1,315.5,325.2,315.5,325.4C315.4,325.3,315.5,325.4,315.5,325.4
		z"/>
	<path class="st4" d="M123.1,326.2c-0.2-0.3-0.5-0.6-0.7-0.9c0,0,0,0.1,0,0.1c0.3,0.2,0.7,0.4,1,0.6
		C123.4,325.9,123.1,326.2,123.1,326.2z"/>
	<path class="st4" d="M315.4,325.3c-0.2,0.3-0.5,0.6-0.7,0.9c0,0-0.3-0.3-0.3-0.3C314.8,325.8,315.1,325.6,315.4,325.3
		C315.5,325.4,315.4,325.3,315.4,325.3z"/>
	<path class="st0" d="M256,148.2c-0.5,8.2-1.7,16.1-3.2,23.9c-3.8,19.4-11.4,37.2-23.9,52.7c-6.7,8.4-14.5,15.3-25.7,17.1
		c-9.2,1.5-18.4-2-22.2-8.7c-4.3-7.6-2.2-16.3,4.8-19.8c3.6-1.8,7.2-1.5,10.5,0.7c2.8,1.8,3.9,4.5,3.3,7.9c-1.5,0.6-2.4-0.7-3.6-1.1
		c-4.1-1.5-7.1-0.8-8.7,2.1c-2,3.7-1.2,7.8,2.4,10.1c3.8,2.4,8,3.1,12.5,2.5c8.8-1.1,14.6-7,20-13.1c12.3-13.8,17.3-30.7,20-49.6
		c-3.2,2.7-5.7,4.8-8.2,6.8c-6.2,5-13,9.2-21.1,10.2c-13.4,1.5-24.3-5.4-29-18.7c-5.6-15.8-4.3-31.7,1.7-47.1
		c6.6-17,17.2-30.9,34.1-38.8c10.1-4.7,20.5-5.6,29.6,2.4c5.9,5.2,9.6,11.8,7.3,20c-1.7,6.2-6.7,9-12.6,10.1
		c-5.2,0.9-9.6-1.2-12.7-5.5c-2.2-3-2.5-6.2-0.2-9.1c2.1-2.6,5-3.9,8.5-2.6c3.5,1.3,4.6,4,4.5,7.5c0,1.3,0,2.6,0,3.9
		c6.4-1,9-6.3,6.5-13.1c-2.3-6.2-10-10.5-16.9-9.8c-14.8,1.6-24.9,10.4-32.4,22.2c-10.5,16.5-15.2,34.3-10.5,53.9
		c5.1,21.1,20.2,21.9,34.9,13.3c6-3.5,9.9-9.4,13.9-15c2.2-3.1,4.5-6.2,6.5-9.4C248.5,150.4,251.7,148.9,256,148.2z"/>
	<path class="st0" d="M89,287.6c2.5-7.7,4.9-14.7,7.2-21.8c0.7-2.2,1.1-4,4.3-4c3.3-0.1,3.8,1.8,4.6,4.1c2.1,6.9,4.4,13.8,6.7,20.8
		c1.6-2.2,1.7-5,2.5-7.4c1.6-4.9,3-9.8,4.2-14.8c0.7-2.6,2.4-3.1,4.4-2.4c2.2,0.7,0.7,2.4,0.3,3.6c-2.6,8.4-5.3,16.8-7.9,25.2
		c-0.6,1.9-1.3,2.8-3.5,2.8c-2.3,0.1-2.9-1.1-3.5-2.9c-2.5-7.9-5.1-15.7-7.8-24.3c-2.7,8.5-5.3,16.2-7.7,24
		c-0.7,2.2-1.6,3.2-4.1,3.2c-2.6,0-3-1.6-3.5-3.3c-2.6-8.4-5.3-16.8-7.8-25.3c-0.3-0.9-1.9-2.6,0.4-3.1c1.8-0.4,3.9-0.7,4.6,2.1
		c1.8,7.3,3.9,14.5,5.8,21.7C88.4,286.3,88.6,286.6,89,287.6z"/>
	<path class="st0" d="M185.6,276.6c2.7,1.9,5.4,3.4,5.7,6.9c0.5,5.6-2.8,9.6-9.1,10.1c-5.6,0.4-11.3,0.1-17,0.2
		c-1.8,0-2.3-0.8-2.2-2.4c0-8.9,0-17.9,0-26.8c0-1.9,0.7-2.6,2.5-2.5c5,0.1,10,0.1,15,0.1c0.4,0,0.8,0,1.2,0.1
		c3.5,0.8,6.6,2.2,7.7,6C190.5,271.9,188.6,274.5,185.6,276.6z M175.1,289.7c1.8,0,3.7,0.2,5.5-0.1c2.9-0.5,5.4-1.8,5.3-5.3
		c-0.2-3.4-2.6-4.7-5.7-4.8c-3.2-0.1-6.3,0-9.5-0.1c-1.9-0.1-2.4,0.6-2.6,2.5C167.7,289.9,167.6,289.9,175.1,289.7z M175,275
		C175,274.9,175,274.9,175,275c1.4,0,2.9,0,4.3-0.1c2.7-0.1,5.2-1.1,5.2-4.1c0-3-2.1-4.7-5.2-4.7c-3-0.1-6-0.1-9-0.1
		c-0.9,0-1.7,0.1-2,1.3c-1.6,5.1,0.2,7.7,5.5,7.7C174.2,275,174.6,275,175,275z"/>
	<path class="st0" d="M219,279.6c5.1,3.8,8,9,11.7,13.7c-4.2,1.2-7,0.3-9-3.3c-1.1-2.1-2.9-3.7-4.2-5.7c-3.1-4.6-7.7-5-12.6-4.7
		c-1.7,0.1-1.8,1.2-1.8,2.4c0,3-0.1,6.1,0,9.1c0,1.7-0.3,2.7-2.3,2.7c-1.8,0-2.6-0.6-2.6-2.5c0.1-8.9,0.1-17.9,0-26.8
		c0-2.3,1.2-2.5,3-2.5c5.5,0.1,11.1,0,16.6,0.1c5.5,0.1,9.2,2.8,9.9,6.7c0.8,5.1-1.1,7.8-7.2,10C220.1,278.9,219.8,279.2,219,279.6z
		 M210.2,276.1c2.6,0,5.3,0.1,7.9-0.6c2.5-0.7,4.4-2.1,4.6-4.8c0.1-2.8-1.9-4.1-4.4-4.8c-4.4-1.1-8.9-0.4-13.4-0.5
		c-1.1,0-1.5,0.5-1.8,1.6C201.6,274.3,202.9,276.1,210.2,276.1z"/>
	<path class="st0" d="M308.4,279.5c-2,0-3.1,0-4.2,0c-1.5,0.1-2.1-0.6-2.1-2.1c0-1.3,0.5-2,1.9-1.9c0.1,0,0.3,0,0.4,0
		c7.8,1.8,11.6-3.6,16-9.5c-5.2,0-10,0-14.7,0c-1.1,0-2.1,0-3.2,0c-1.4,0-1.7-0.9-1.8-2.1c0-1.4,0.8-1.8,2-1.8c7.5,0,15,0,22.5,0
		c0.9,0,1.9-0.1,2.2,1.2c0.3,1.5,0,2.9-1.1,4c-2.4,2.5-4.8,5.1-7.8,8.3c2.1,0,3.4,0,4.6,0c1.6-0.1,2,0.8,2,2.2
		c0,1.3-0.6,1.9-1.9,1.8c-0.1,0-0.3,0-0.4,0c-8.8-2.2-12.2,5-17.9,10.4c7.4,0,13.7,0,20.1,0c1.5,0,3.4-0.6,3.3,2.1
		c-0.1,2.4-1.9,1.7-3.2,1.8c-7.6,0.1-15.3,0.1-22.9,0c-1.1,0-2.6,0.6-3.1-0.8c-0.5-1.5-0.5-3.1,0.8-4.4
		C302.4,285.7,305.1,282.9,308.4,279.5z"/>
	<path class="st0" d="M333.1,277.7c0-4.2,0.1-8.4,0-12.7c0-2,0.4-3.2,2.8-3.1c7.4,0.1,14.8,0.1,22.1,0c1.5,0,2.5,0.3,2.5,2.2
		c-0.1,1.7-1.1,1.8-2.4,1.8c-5.4,0-10.8,0.2-16.2-0.1c-2.8-0.1-3.8,0.9-3.5,3.6c0.1,1,0.1,2.1,0,3.2c-0.3,2.4,0.9,2.9,3,2.8
		c4.9-0.1,9.8,0,14.6,0c1.5,0,3-0.1,2.9,2.2c-0.1,2.1-1.5,1.8-2.8,1.8c-4.9,0-9.8,0.1-14.6,0c-2.5-0.1-3.1,0.8-3.1,3.2
		c-0.1,7.3-0.2,7.3,7.2,7.3c4.3,0,8.7,0,13,0c1.3,0,2.7-0.3,2.8,1.8c0.1,2-1,2.1-2.5,2.1c-7.8,0-15.6-0.1-23.3,0
		c-2,0-2.5-0.8-2.5-2.6C333.1,286.7,333.1,282.2,333.1,277.7z"/>
	<path class="st0" d="M267.1,277.7c0-4.2,0.1-8.4,0-12.7c0-2,0.3-3.2,2.8-3.1c7.2,0.1,14.5,0.1,21.7,0c1.5,0,2.6,0.1,2.5,2.1
		c0,2-1.3,1.9-2.7,1.9c-5.3,0-10.5,0.1-15.8,0c-2.4-0.1-3.4,0.8-3.1,3.2c0.1,0.9,0.1,1.9,0,2.8c-0.3,2.7,0.7,3.8,3.5,3.6
		c4.6-0.2,9.2-0.1,13.8,0c1.3,0,2.7-0.3,2.8,1.8c0.1,2.2-1.4,2.2-2.9,2.2c-4.6,0-9.2,0.1-13.8,0c-2.5-0.1-3.5,0.6-3.4,3.3
		c0.2,8.8-0.9,7.1,7,7.2c4.3,0.1,8.7,0.1,13,0c1.6,0,2.5,0.3,2.4,2.2c-0.1,1.9-1.3,1.7-2.5,1.7c-7.6,0-15.3,0-22.9,0
		c-2,0-2.5-0.8-2.4-2.6C267.1,286.7,267.1,282.2,267.1,277.7z"/>
	<path class="st0" d="M239.2,289.9c6.6,0,12.8,0,19,0c1.4,0,3.4-0.8,3.5,1.8c0.1,2.7-1.9,2-3.3,2c-7.3,0.1-14.5,0.1-21.8,0
		c-1.3,0-3.2,0.8-3.9-0.8c-0.8-1.8,0-3.6,1.4-5c4.5-4.7,8.9-9.4,13.3-14.1c2.2-2.4,4.5-4.7,7.4-7.8c-6.2,0-11.5,0-16.8,0
		c-1.4,0-3.4,0.6-3.3-2c0.1-2.7,2.1-1.9,3.5-1.9c6.6-0.1,13.2-0.1,19.8,0c1.2,0,2.8-0.7,3.5,1c0.6,1.6-0.1,3-1.3,4.3
		c-6.1,6.4-12.2,12.8-18.2,19.2C241,287.4,239.7,288,239.2,289.9z"/>
	<path class="st0" d="M125.4,262.4c4.1-1.2,6.6-0.1,8.6,3c2,3.2,4.6,6.1,6.7,9.2c1,1.5,1.6,1.7,2.8,0.1c2.3-3.2,4.9-6.2,7.1-9.5
		c1.9-2.9,4.3-4,7.7-3c0.5,1.1-0.5,1.6-1,2.3c-2.2,2.8-4.2,5.8-6.7,8.2c-5,4.8-7.1,10.4-6.2,17.3c0.2,1.6,0.8,3.7-2.4,3.8
		c-3.3,0.1-3.1-2-2.7-3.9c1.2-7.2-1.4-12.9-6.4-18.1C130.1,269.1,128,265.8,125.4,262.4z"/>
	<path class="st4" d="M313.8,201.9c7,0,11.2,2.4,12.9,7.6c0.4,1.3,1.7,3.5-0.5,3.9c-2.1,0.4-4.9,1.8-6.7-1.1
		c-2.2-3.7-5.9-4.9-9.6-3.2c-1.3,0.6-2.3,1.3-2.3,2.9c0,1.5,0.8,2.5,2.2,3c3.5,1.2,7.1,2,10.5,3.4c8.3,3.3,11,11.9,5.5,18.5
		c-4.1,5-9.9,4.9-15.6,4.1c-5.4-0.7-8.9-3.8-10.3-9c-0.3-1.2-2.1-3.5,0.5-3.8c2.1-0.3,5-2.8,6.6,1.5c1.8,4.9,7,6.6,11.3,4
		c1.5-0.9,2.7-2.1,2.7-4c0-2.1-1.5-3.1-3.1-3.7c-3-1.1-6.1-1.8-9-2.8c-6.4-2.2-9.3-6.8-8.4-12.5c0.8-5.1,5.4-8.4,11.7-8.6
		C312.7,201.9,313.2,201.9,313.8,201.9z"/>
	<path class="st4" d="M145.9,239.9c-12.4,4.6-17.4-4.8-24.5-11.4c0,3-0.1,6.1,0,9.1c0.1,2.5-0.8,3.2-3.2,3.1
		c-9.2-0.3-7.4,1.2-7.5-7.4c-0.1-9,0.1-17.9-0.1-26.9c0-2.8,0.6-4.3,3.7-3.8c0.1,0,0.3,0,0.4,0c6.9,0.1,5.9-0.7,6,5.8
		c0,2.6,0,5.3,0,7.9c0,0.3,0.1,0.5,0.3,1.5c2.9-3.1,6-5.6,7.9-8.8c4.1-6.8,10-7.1,17.3-5.9c-4,4.7-7.7,9.2-11.5,13.6
		c-4.9,5.6-4.9,5.6,0.1,11.1C138.6,231.7,142.3,235.9,145.9,239.9z"/>
	<path class="st2" d="M175.1,289.7c-7.5,0.2-7.4,0.2-6.9-7.8c0.1-1.9,0.7-2.6,2.6-2.5c3.2,0.1,6.3,0,9.5,0.1
		c3.1,0.1,5.5,1.4,5.7,4.8c0.2,3.5-2.4,4.8-5.3,5.3C178.9,289.9,177,289.7,175.1,289.7z"/>
	<path class="st2" d="M175,275c-0.4,0-0.8,0-1.2,0c-5.3,0-7.1-2.6-5.5-7.7c0.4-1.2,1.1-1.3,2-1.3c3,0,6,0,9,0.1
		c3.1,0.1,5.2,1.8,5.2,4.7c0,3-2.5,4-5.2,4.1C177.9,275,176.4,274.9,175,275C175,274.9,175,274.9,175,275z"/>
	<path class="st2" d="M210.2,276.1c-7.3,0-8.7-1.8-7.2-8.9c0.2-1.1,0.7-1.7,1.8-1.6c4.5,0.2,9-0.6,13.4,0.5c2.5,0.6,4.6,1.9,4.4,4.8
		c-0.1,2.6-2,4.1-4.6,4.8C215.5,276.2,212.8,276,210.2,276.1z"/>
</g>
</svg>
