<?xml version="1.0" encoding="utf-8"?>
<!-- Generator: Adobe Illustrator 16.0.0, SVG Export Plug-In . SVG Version: 6.00 Build 0)  -->
<!DOCTYPE svg PUBLIC "-//W3C//DTD SVG 1.1//EN" "http://www.w3.org/Graphics/SVG/1.1/DTD/svg11.dtd">
<svg version="1.1" id="Warstwa_1" xmlns="http://www.w3.org/2000/svg" xmlns:xlink="http://www.w3.org/1999/xlink" x="0px" y="0px"
	 width="460px" height="220px" viewBox="0 0 460 220" enable-background="new 0 0 460 220" xml:space="preserve">
<g>
	<path fill-rule="evenodd" clip-rule="evenodd" d="M90.162,192.271H53.201c0,0-6.002,0.513-4.977-5.343
		c1.024-5.855,8.344-57.308,8.344-57.308H39.441c0,0-7.905,0.438-7.026-5.124s2.854-19.249,2.854-19.249s0.146-0.878,1.537-0.878
		c1.391,0,23.202,0,23.202,0l2.415-16.249H41.49c0,0-3.586-0.219-3.293-2.488c0.292-2.269,1.683-11.93,1.683-11.93H27.145
		c0,0-8.783,0.878-7.319-9.368s3.66-25.69,3.66-25.69S24.949,27.74,36.293,27.74c11.345,0,47.281,0,47.281,0s4.465-0.22,6.587,1.83
		h9.222c0,0,0.585-1.756,4.391-1.756c3.806,0,10.247,0,10.247,0s3.22-0.073,4.391,1.83h7.1l54.307,43.182L164.815,85.78h-52.111
		L98.286,186.196C98.286,186.196,97.993,192.271,90.162,192.271L90.162,192.271z"/>
	<path fill-rule="evenodd" clip-rule="evenodd" fill="#009640" d="M83.136,191.247H52.908c0,0-4.538,0.073-3.806-4.318
		s8.49-57.381,8.49-57.381l34.473-0.001L83.136,191.247L83.136,191.247z"/>
	<path fill-rule="evenodd" clip-rule="evenodd" fill="#009640" d="M61.544,101.077h19.322l-1.83,12.003c0,0-0.439,1.244-1.537,1.244
		c-1.098,0-16.98,0-16.98,0s-1.244-0.001-0.878-1.684C60.007,110.957,61.544,101.077,61.544,101.077L61.544,101.077z"/>
	<path fill-rule="evenodd" clip-rule="evenodd" fill="#009640" d="M97.408,93.831H73.913l0.732-5.636c0,0,0.439-2.269,2.781-2.269
		c2.342,0,21.079,0.073,21.079,0.073L97.408,93.831L97.408,93.831z"/>
	<path fill-rule="evenodd" clip-rule="evenodd" fill="#009640" d="M40.905,73.703h27.812c0,0-4.611,2.196-5.27,7.1
		s-0.878,6.368-0.878,6.368H41.49c0,0-2.781,0.293-2.342-2.489C39.587,81.9,40.905,73.703,40.905,73.703L40.905,73.703z"/>
	<path fill-rule="evenodd" clip-rule="evenodd" fill="#009640" d="M63.813,66.458H50.785c0,0-1.244-0.073-0.951-1.903
		c0.292-1.83,1.317-8.417,1.317-8.417h13.174c0,0,0.805-0.22,0.659,1.317S63.813,66.458,63.813,66.458L63.813,66.458z"/>
	<path fill-rule="evenodd" clip-rule="evenodd" fill="#009640" d="M93.748,72.679H82.989c0,0,2.488-1.244,3-3.367
		c0.513-2.123,2.854-18.298,2.854-18.298s0.22-0.805-1.098-0.805c-1.318,0-35.79,0-35.79,0l2.049-13.76c0,0,0.219-1.098,1.61-1.098
		s11.637,0,11.637,0s0.806-0.22,0.732,0.878c-0.073,1.098-1.244,8.49-1.244,8.49h23.128l1.684-11.71c0,0,0.146-1.317-0.073-2.122
		l7.466,0l-5.855,38.279C93.089,69.166,92.431,71.435,93.748,72.679L93.748,72.679z"/>
	<path fill-rule="evenodd" clip-rule="evenodd" fill="#009640" d="M134.003,72.605h-21.811c0,0,0.438-0.366,0.731-2.928
		s1.757-12.442,1.757-12.442L134.003,72.605L134.003,72.605z"/>
	<path fill-rule="evenodd" clip-rule="evenodd" fill="#009640" d="M116.51,44.866l2.123-14.053h7.026l52.624,41.792h-9.295
		l-5.636-4.392h-10.759l-20.64-16.541c0,0-0.805-0.439,0.074-1.171c0.878-0.732,2.708-2.562,2.708-2.562s1.171-1.025-0.147-2.123
		c-1.317-1.098-8.856-7.026-8.856-7.026c0,0-1.39-1.317-2.708,0C121.707,40.109,116.51,44.866,116.51,44.866L116.51,44.866z"/>
	<path fill-rule="evenodd" clip-rule="evenodd" fill="#FFED00" d="M88.991,43.695H67.912l1.244-8.49c0,0,0.439-0.951-1.244-0.951
		c-1.684,0-12.735,0-12.735,0s-2.049-0.22-2.342,2.269c-0.292,2.489-1.976,13.76-1.976,13.76H31.756c0,0-1.171-0.293-1.317,0.658
		c-0.146,0.952-0.805,4.685-0.805,4.685c0,0-0.219,0.659,0.951,0.659c1.171,0,19.396,0.073,19.396,0.073l-1.244,9.075
		c0,0-0.366,2.196,2.049,2.196c2.416,0,13.174-0.073,13.174-0.073s0.732,0.073,0.878-0.878c0.146-0.951,1.244-10.759,1.244-10.759
		s0.22-0.952-1.098-0.952s-33.96,0-33.96,0l0.585-3.44H87.6l-2.123,15.882c0,0-0.512,4.977-6.807,4.977s-52.697,0-52.697,0
		s-6.075,0.146-5.196-6.733c0.878-6.88,4.025-27.373,4.025-27.373s1.391-9.295,10.759-9.295c9.369,0,48.452,0,48.452,0
		s7.099-0.366,6.368,4.538C89.649,38.425,88.991,43.695,88.991,43.695L88.991,43.695z"/>
	<path fill-rule="evenodd" clip-rule="evenodd" fill="#FFED00" d="M167.305,72.605h-31.618l-20.64-16.614
		c0,0-0.952-0.878-1.244,0.659s-2.196,13.979-2.196,13.979s0.293,2.049-2.196,2.049c-2.488,0-13.028,0-13.028,0
		s-2.562-0.22-2.123-3.367c0.439-3.147,5.709-38.206,5.709-38.206s0.146-2.196,2.927-2.196c2.782,0,11.418,0.073,11.418,0.073
		s3.44,0,3.147,1.977c-0.293,1.976-2.196,15.223-2.196,15.223s-0.074,1.684,1.024,0.732s7.539-7.246,7.539-7.246
		s0.512-0.659,1.464,0.073c0.952,0.731,8.271,6.514,8.271,6.514s0.805,0.366-0.073,1.317c-0.878,0.952-3.001,2.928-3.001,2.928
		s-0.951,0.512,0,1.244c0.952,0.732,21.884,17.493,21.884,17.493h10.54L167.305,72.605L167.305,72.605z"/>
	<path fill-rule="evenodd" clip-rule="evenodd" fill="#FFED00" d="M164.45,84.828H77.792c0,0-3.66-0.073-4.099,3.147
		s-0.805,5.855-0.805,5.855c0,0-0.439,1.024,0.732,1.024c1.171,0,28.837,0,28.837,0c0,0,4.684-0.146,4.172,4.611
		s-3.001,23.128-3.001,23.128s-0.585,5.855-5.782,5.855s-59.064,0-59.064,0s-5.855,0.438-5.27-3.807s2.928-18.956,2.928-18.956
		h23.055l-0.952,7.466c0,0-0.659,2.269,2.342,2.269c3,0,17.126,0,17.126,0s1.756,0.146,2.196-2.708
		c0.439-2.854,1.83-11.637,1.83-11.637s0.366-1.171-1.244-1.171c-1.61,0-18.957,0-18.957,0l2.635-18.225
		c0,0,0.805-7.758,8.929-7.758c8.125,0,103.564,0,103.564,0L164.45,84.828L164.45,84.828z"/>
</g>
<g>
	<path fill="#FFFFFF" d="M276.074,50.517c0,4.243,1.248,6.139,6.938,6.139c1.747,0,3.943-0.15,6.239-0.599v-11.28h4.143v14.325
		c-3.244,0.948-7.088,1.447-10.531,1.447c-8.485,0-11.08-3.644-11.08-9.783V36.142c0-6.738,3.344-9.833,11.629-9.833
		c2.845,0,6.14,0.35,9.233,1.048l-0.499,3.693c-3.194-0.549-6.188-0.849-8.934-0.849c-5.49,0-7.138,1.647-7.138,6.139V50.517z"/>
	<path fill="#FFFFFF" d="M324.688,50.467c0,5.54-3.443,10.082-12.028,10.082s-12.028-4.542-12.028-10.082V36.392
		c0-5.54,3.443-10.082,12.028-10.082s12.028,4.542,12.028,10.082V50.467z M304.924,50.367c0,4.092,2.496,6.389,7.736,6.389
		s7.736-2.296,7.736-6.389V36.492c0-4.093-2.496-6.389-7.736-6.389s-7.736,2.296-7.736,6.389V50.367z M310.364,21.817
		c2.246-1.297,4.192-2.545,6.239-4.092l1.896,2.895c-2.047,1.547-4.143,2.795-6.438,3.943L310.364,21.817z"/>
	<path fill="#FFFFFF" d="M344.854,48.021h-8.136V60.05h-4.293V26.809h12.678c7.138,0,9.633,3.095,9.633,8.186v4.792
		c0,3.943-1.447,6.638-5.29,7.736l8.635,12.528h-4.941L344.854,48.021z M344.954,30.652h-8.235v13.576h8.235
		c4.093,0,5.49-1.148,5.49-4.393v-4.792C350.444,31.75,349.047,30.652,344.954,30.652z"/>
	<path fill="#FFFFFF" d="M368.063,31.75v28.3h-4.093V26.809h5.89l14.475,28.45v-28.45h4.093V60.05h-5.89L368.063,31.75z"/>
	<path fill="#FFFFFF" d="M401.456,60.05h-4.292V26.809h4.292V60.05z"/>
	<path fill="#FFFFFF" d="M414.483,60.05h-4.293V26.809h4.293V60.05z M420.373,43.13l13.176,16.92h-5.141l-12.877-16.92
		l11.979-16.321h5.041L420.373,43.13z"/>
</g>
<g>
	<path fill="#FFFFFF" d="M274.156,92.681V76.759h4.24v13.826l7.102-3.544l1.381,2.845l-8.482,4.242v12.029h14.253V110h-18.493
		V96.225l-3.009,1.497l-1.381-2.845L274.156,92.681z"/>
	<path fill="#FFFFFF" d="M298.816,76.759h19.332v3.843h-15.092v10.432h14.006v3.843h-14.006v11.28h15.141V110h-2.811
		c-2.812,1.946-4.784,3.594-4.784,5.64c0,1.198,0.69,1.947,2.317,1.947c0.789,0,1.283-0.101,1.825-0.3l0.642,2.396
		c-0.789,0.449-1.825,0.649-3.009,0.649c-3.156,0-5.228-1.498-5.228-4.492c0-2.646,2.318-4.542,4.932-5.84h-13.266V76.759z"/>
	<path fill="#FFFFFF" d="M328.95,100.467c0,4.642,1.775,6.139,7.151,6.139c1.973,0,5.178-0.25,7.693-0.699l0.443,3.693
		c-2.367,0.549-5.819,0.898-8.285,0.898c-8.039,0-11.244-3.494-11.244-9.783V86.042c0-6.289,3.205-9.783,11.244-9.783
		c2.466,0,5.918,0.35,8.285,0.898l-0.443,3.693c-2.516-0.449-5.721-0.699-7.693-0.699c-5.376,0-7.151,1.498-7.151,6.139V100.467z"/>
	<path fill="#FFFFFF" d="M354.794,106.307h17.31V110h-21.945v-3.693l16.916-25.854h-16.62v-3.693h21.305v3.693L354.794,106.307z"/>
	<path fill="#FFFFFF" d="M383.547,81.7V110h-4.043V76.759h5.818l14.303,28.45v-28.45h4.043V110h-5.818L383.547,81.7z"/>
	<path fill="#FFFFFF" d="M437.156,110h-4.291l-2.712-7.986h-13.956L413.533,110h-4.29l11.097-33.241h5.721L437.156,110z
		 M423.199,79.854l-5.868,18.417h11.737L423.199,79.854z"/>
</g>
<g>
	<path fill="#C6C6C6" d="M272.53,194.202v-33.241h12.827c5.241,0,7.837,2.346,7.837,6.738v3.843c0,2.546-0.849,4.442-3.794,5.54
		c2.896,0.499,4.892,2.446,4.892,5.989v3.993c0,4.642-3.244,7.138-8.235,7.138H272.53z M288.901,167.799
		c0-2.146-1.197-3.145-3.793-3.145h-8.285v10.781h7.586c3.244,0,4.492-1.498,4.492-3.894V167.799z M290,183.222
		c0-2.646-1.498-4.093-4.792-4.093h-8.385v11.38h8.635c3.044,0,4.542-1.298,4.542-3.794V183.222z"/>
	<path fill="#C6C6C6" d="M305.573,194.202h-4.292v-33.241h4.292V194.202z"/>
	<path fill="#C6C6C6" d="M318.601,190.358h14.424v3.844h-18.717v-33.241h4.293V190.358z"/>
	<path fill="#C6C6C6" d="M339.265,160.961h19.565v3.843h-15.272v10.432h14.175v3.844h-14.175v11.279h15.322v3.844h-19.615V160.961z"
		/>
	<path fill="#C6C6C6" d="M372.906,164.804h-9.933v-3.843h24.157v3.843h-9.933v29.398h-4.292V164.804z"/>
	<path fill="#C6C6C6" d="M411.239,160.961h4.492l-11.03,23.209v10.032h-4.293V184.17l-11.03-23.209h4.492l8.685,18.567
		L411.239,160.961z"/>
</g>
<line fill="#FFFFFF" stroke="#FFFFFF" stroke-width="0.75" stroke-miterlimit="10" x1="223.5" y1="16.969" x2="223.5" y2="204"/>
</svg>
