<?xml version="1.0" encoding="utf-8"?>
<!-- Generator: Adobe Illustrator 19.2.1, SVG Export Plug-In . SVG Version: 6.00 Build 0)  -->
<svg version="1.1" id="Layer_1" xmlns="http://www.w3.org/2000/svg" xmlns:xlink="http://www.w3.org/1999/xlink" x="0px" y="0px"
	 viewBox="0 0 53.2 88" style="enable-background:new 0 0 53.2 88;" xml:space="preserve">
<style type="text/css">
	.st0{fill:#FFFFFF;}
	.st1{fill:#0E4F95;}
	.st2{clip-path:url(#SVGID_2_);fill:url(#SVGID_3_);}
	.st3{fill:none;stroke:#9C9B9F;stroke-width:0.216;stroke-miterlimit:22.9256;}
</style>
<g>
	<path class="st0" d="M47.7,60.8v3.9l-2.4,0.9V75l2.4-0.9v3.9l-21,7.5l-21-7.5v-3.9L8,75v-9.4l-2.4-0.9v-3.9L8,61.7V33.5l-2.4-3.1
		h3.7l-3.7-12h42.1l-3.7,12h3.7l-2.4,3.1v28.1L47.7,60.8z M45.6,33.8c0.1-0.2,2.8-3.5,2.8-3.5h-3.9c0.2-0.9,3.7-12,3.7-12h-0.5H5.1
		c0,0,3.4,11.1,3.7,12H4.8c0,0,2.7,3.3,2.8,3.5v27.4C7,61,5.2,60.3,5.2,60.3V65c0,0,2.1,0.7,2.4,0.9c0,0.5,0,7.7,0,8.7
		c-0.6-0.2-2.4-0.9-2.4-0.9v4.6l21.4,7.6L48,78.3v-4.6c0,0-1.8,0.6-2.4,0.9c0-0.9,0-8.2,0-8.7C45.9,65.7,48,65,48,65v-4.6
		c0,0-1.8,0.6-2.4,0.9L45.6,33.8L45.6,33.8z"/>
	<polygon class="st1" points="45.2,33.7 47.7,30.6 44,30.6 47.7,18.6 5.4,18.6 9.1,30.6 5.4,30.6 7.9,33.7 7.9,61.7 5.4,60.8 
		5.4,64.7 7.9,65.6 7.9,75 5.4,74.2 5.4,78.1 26.5,85.4 47.7,78.1 47.7,74.2 45.2,75 45.2,65.6 47.7,64.7 47.7,60.8 45.2,61.7 	"/>
	<polygon class="st0" points="44,64.7 46.4,63.9 46.4,62.5 44,63.4 44,33.7 45.5,31.8 7.7,31.8 9.1,33.7 9.1,63.4 6.7,62.5 
		6.7,63.9 9.1,64.7 9.1,76.7 6.7,75.9 6.7,77.1 26.5,84.2 46.4,77.1 46.4,75.9 44,76.7 	"/>
	<polygon class="st1" points="27.1,69.4 42.8,63.9 42.8,33.7 27.1,33.7 	"/>
	<polygon class="st1" points="25.9,69.4 10.3,63.9 10.3,33.7 25.9,33.7 	"/>
	<polygon class="st1" points="26.5,70.9 10.3,65.1 10.3,77.2 26.5,82.9 42.8,77.2 42.8,65.1 	"/>
	<polygon class="st0" points="26.5,72.2 11.6,66.8 11.6,76.4 26.5,81.6 41.5,76.4 41.5,66.8 	"/>
	<polygon class="st0" points="10.5,30.6 7.2,19.8 26.5,19.8 45.9,19.8 42.6,30.6 	"/>
	<polygon class="st0" points="28.3,34.9 28.3,67.7 41.5,63 41.5,34.9 	"/>
	<path class="st0" d="M23.8,53.6l-11.3-18v4.8l6.9,9.8v1.6l-6.7-9.7v4.6l6.2,7.3v1.2l-6.2-6.7v3.5c0,0,4.8,3.9,6.2,5.3
		c-1,0.6-0.9,3.2,0.2,3.5c-1.1,2.8,0.7,3.7,1.7,3.5c0.6,1.2,2.8,1.1,2.8,0v-1.3c-2.3-0.4-2.6-5.1,0-5.5L23.8,53.6z"/>
	<path class="st1" d="M22.1,23.1c0-0.1-0.1-0.2-0.1-0.4c-0.1-0.1-0.2-0.1-0.4-0.1s-0.2,0-0.2,0.1c-0.1,0-0.1,0.1-0.1,0.2
		c0,0.2,0.1,0.4,0.4,0.5c0.1,0,0.2,0.1,0.6,0.2c0.5,0.1,0.9,0.4,1,0.6c0.2,0.2,0.4,0.7,0.4,1.2c0,0.7-0.2,1.2-0.6,1.6
		c-0.4,0.2-0.7,0.5-1.3,0.5c-0.5,0-1-0.2-1.2-0.6c-0.4-0.4-0.5-0.9-0.5-1.5h1.2c0,0.2,0.1,0.4,0.2,0.5c0.1,0.1,0.2,0.1,0.4,0.1
		s0.2,0,0.4-0.1s0.1-0.1,0.1-0.4s-0.1-0.4-0.4-0.5c-0.1,0-0.2-0.1-0.5-0.2c-0.4-0.1-0.6-0.2-0.7-0.4c-0.2-0.1-0.5-0.4-0.6-0.6
		s-0.2-0.6-0.2-1.1c0-0.5,0.1-1,0.5-1.3c0.4-0.4,0.7-0.5,1.3-0.5c0.5,0,0.9,0.1,1.1,0.4c0.4,0.4,0.6,0.9,0.6,1.5L22.1,23.1
		L22.1,23.1z M15.4,21.4h1.3v2l1.2-2h1.6l-1.5,2.3l1.6,3.8h-1.6l-1-2.4l-0.4,0.5v2h-1.3V21.4z M10.6,21.4h1.3v2l1.2-2h1.6l-1.5,2.3
		l1.6,3.8h-1.6l-1-2.4l-0.4,0.5v2h-1.3V21.4z"/>
	<path class="st1" d="M38.5,21.4h1.3v2.1h1.2v-2.1h1.3v6.1h-1.3v-2.3h-1.2v2.3h-1.3V21.4z M36.6,23.8c0-0.4-0.1-0.7-0.4-0.9
		c-0.1-0.1-0.2-0.1-0.4-0.1c-0.2,0-0.5,0.2-0.6,0.5c-0.1,0.4-0.1,0.7-0.1,1.2c0,1.1,0.2,1.7,0.7,1.7c0.1,0,0.4,0,0.4-0.2
		c0.1-0.1,0.2-0.5,0.2-0.9h1.3c-0.1,0.7-0.2,1.3-0.6,1.8c-0.4,0.5-0.9,0.7-1.3,0.7c-0.7,0-1.2-0.2-1.6-0.9c-0.4-0.6-0.6-1.3-0.6-2.3
		c0-1.1,0.2-2,0.7-2.6c0.4-0.5,0.9-0.7,1.3-0.7c0.5,0,0.9,0.1,1.2,0.4c0.2,0.2,0.5,0.6,0.6,1s0.1,0.7,0.2,1.1h-1.2V23.8z M30.2,21.4
		h3.3v1.5h-2v0.9h1.7v1.5h-1.7v1h2.1v1.5h-3.4L30.2,21.4L30.2,21.4z M26.4,21.4h1.3v4.6h1.8v1.5h-3.2V21.4z"/>
	<polygon class="st1" points="22,72.2 25.6,73.6 25.6,75 23.6,77.7 25.8,78.5 25.8,79.9 21.8,78.6 21.8,77.1 23.9,74.4 22,73.8 	"/>
	<path class="st1" d="M19.2,71.1c0.7,0.2,1.3,0.7,1.7,1.6c0.4,0.7,0.6,1.6,0.6,2.4c0,1-0.2,1.7-0.6,2.2s-1,0.7-1.7,0.5
		c-0.7-0.2-1.3-0.9-1.8-1.7c-0.4-0.7-0.5-1.6-0.5-2.4c0-1,0.2-1.6,0.6-2.1C17.8,71,18.4,70.9,19.2,71.1 M19.2,72.6
		c-0.2-0.1-0.5,0-0.6,0.2s-0.2,0.6-0.2,1.2c0,0.6,0.1,1.1,0.2,1.5c0.1,0.4,0.4,0.6,0.6,0.7c0.2,0.1,0.5,0,0.6-0.2s0.2-0.6,0.2-1.1
		c0-0.6,0-1-0.2-1.3C19.6,72.9,19.5,72.7,19.2,72.6z"/>
	<path class="st1" d="M12.5,68.9l2.1,0.7c0.6,0.2,1.1,0.6,1.5,1.1s0.5,1.1,0.5,1.8c0,0.6-0.1,1.1-0.4,1.3c-0.2,0.4-0.7,0.4-1.5,0.1
		L14,73.8v2l-1.5-0.5L12.5,68.9L12.5,68.9z M14,70.9v1.5l0.6,0.2c0.1,0,0.2,0,0.4,0c0.1-0.1,0.1-0.2,0.1-0.5s0-0.4-0.1-0.5
		c-0.1-0.1-0.4-0.2-0.6-0.4L14,70.9z"/>
	<polygon class="st1" points="39.7,67.9 38.4,68.4 38,69.5 38.9,69.3 	"/>
	<polygon class="st1" points="29.4,72.8 29.4,76.2 28,73.4 26.5,73.9 26.5,80.3 28,79.8 28,76.4 29.4,79.2 30.8,78.7 30.8,72.3 	"/>
	<polygon class="st1" points="39.1,69.4 39.1,72.8 37.6,70 36.3,70.4 36.3,76.7 37.6,76.4 37.6,72.9 39.2,75.8 40.6,75.3 40.6,68.9 
			"/>
	<path class="st1" d="M33.5,73.3l0.5,2.1l-0.9,0.4L33.5,73.3z M32.6,78.1l0.1-0.9l1.5-0.5l0.1,0.7l1.5-0.5l-1.6-5.8l-1.5,0.5l-1.6,7
		L32.6,78.1z"/>
	<path class="st1" d="M29.3,53.6l11.3-18v4.8l-6.9,9.8v1.6l6.7-9.7v4.6l-6.2,7.3v1.2l6.2-6.7v3.5c0,0-4.8,3.9-6.2,5.3
		c1,0.6,0.9,3.2-0.2,3.5c1.1,2.8-0.7,3.7-1.7,3.5c-0.6,1.2-2.8,1.1-2.8,0v-1.3c2.3-0.4,2.6-5.1,0-5.5L29.3,53.6z"/>
	<rect x="16.7" y="28.8" class="st1" width="19.7" height="8"/>
	<rect x="17.9" y="30" class="st0" width="17.3" height="5.5"/>
	<path class="st1" d="M21.2,35v-3.3h-0.7v-0.6c0.5,0,0.9-0.2,0.9-0.5h0.9v4.5h-1V35z"/>
	<path class="st1" d="M24.8,31.5c0-0.2-0.1-0.4-0.2-0.4c-0.2,0-0.2,0.1-0.2,0.4v0.7c0,0.2,0.1,0.4,0.2,0.4c0.2,0,0.2-0.1,0.2-0.4
		V31.5z M24.5,35.1c-0.9,0-1.3-0.4-1.3-1.1v-0.4h1.1V34c0,0.2,0.1,0.4,0.2,0.4c0.2,0,0.2-0.1,0.2-0.4v-1c-0.2,0.2-0.5,0.4-0.7,0.4
		c-0.5,0-0.7-0.4-0.7-1v-0.9c0-0.7,0.5-1.2,1.3-1.2c1,0,1.3,0.5,1.3,1.5v1.8C25.8,34.6,25.5,35.1,24.5,35.1z"/>
	<path class="st1" d="M26.6,35v-0.7c0-0.5,0.2-0.9,0.5-1.2c0.6-0.7,1-1.1,1-1.3v-0.2c0-0.1-0.1-0.2-0.2-0.2c-0.2,0-0.2,0.1-0.2,0.4
		v0.6h-1.1v-0.6c0-0.6,0.5-1.1,1.3-1.1c0.9,0,1.3,0.4,1.3,1c0,0.7-0.2,1.1-0.7,1.6c-0.4,0.5-0.7,0.9-0.7,1.2h1.5V35L26.6,35L26.6,35
		z"/>
	<path class="st1" d="M29.9,35v-0.7c0-0.5,0.2-0.9,0.6-1.2c0.6-0.7,1-1.1,1-1.3v-0.2c0-0.1-0.1-0.2-0.2-0.2c-0.2,0-0.2,0.1-0.2,0.4
		v0.6h-1.1v-0.6c0-0.6,0.5-1.1,1.3-1.1c0.9,0,1.3,0.4,1.3,1c0,0.7-0.2,1.1-0.7,1.6c-0.4,0.5-0.7,0.9-0.7,1.2h1.5V35L29.9,35L29.9,35
		z"/>
	<g>
		<g>
			<g>
				<defs>
					<polygon id="SVGID_1_" points="26.5,1 28,5.3 32.5,5.3 28.8,8 30.3,12.3 26.5,9.6 22.8,12.3 24.3,8 20.6,5.3 25.1,5.3 					"/>
				</defs>
				<clipPath id="SVGID_2_">
					<use xlink:href="#SVGID_1_"  style="overflow:visible;"/>
				</clipPath>
				
					<linearGradient id="SVGID_3_" gradientUnits="userSpaceOnUse" x1="-935.5721" y1="353.6346" x2="-935.2971" y2="353.6346" gradientTransform="matrix(43.3366 0 0 41.2158 40565.082 -14568.6455)">
					<stop  offset="0" style="stop-color:#747374"/>
					<stop  offset="1" style="stop-color:#EAEAEC"/>
				</linearGradient>
				<rect x="20.6" y="1" class="st2" width="11.9" height="11.4"/>
			</g>
		</g>
	</g>
	<polygon class="st3" points="26.5,1 28,5.3 32.5,5.3 28.8,8 30.3,12.3 26.5,9.6 22.8,12.3 24.3,8 20.6,5.3 25.1,5.3 	"/>
</g>
</svg>
