<?xml version="1.0" encoding="utf-8"?>
<!-- Generator: Adobe Illustrator 19.2.1, SVG Export Plug-In . SVG Version: 6.00 Build 0)  -->
<svg version="1.1" id="Layer_1" xmlns="http://www.w3.org/2000/svg" xmlns:xlink="http://www.w3.org/1999/xlink" x="0px" y="0px"
	 viewBox="0 0 174 135.5" style="enable-background:new 0 0 174 135.5;" xml:space="preserve">
<style type="text/css">
	.st0{fill:#FFFFFF;}
	.st1{fill:#C59C2D;}
	.st2{fill:#24743A;}
	.st3{fill:#AC1E23;}
</style>
<g>
	<path class="st0" d="M152.4,47.1c-10.8-1.1-21.4-3.5-31.7-7.2c-8.2-3-16.1-6.8-24-10.7c-7.1-3.5-14.2-7-21.6-9.6
		c-8-2.7-16.4-4-24.8-3.9c-11.4,0.2-22.6,2.8-33.4,6.4c-1.6,0.5-3.3,1.1-4.9,1.7c3,4.4,5.7,8.9,7.6,13.9c2,5.4,3.3,11.1,4.5,16.7
		c1.9,9,3.8,18.1,4,27.3c0.2,6.8,0,13.7-1.4,20.4c5.2-5.5,11-10.4,17.6-14.1c5.4-3.1,11.3-5.3,17.4-6.6c5.6-1.2,11.3-1.5,17.1-1.4
		c5.6,0.1,11.2,0.6,16.8,1.2c5.4,0.6,10.8,1.2,16.2,1.4c5.3,0.2,10.6,0.1,15.8-0.8c5.3-0.9,10.4-2.7,15.1-5.5c5.1-3,9.6-7,13.5-11.5
		c1.8-2.1,3.5-4.4,5.1-6.8c1.9-2.8,3.6-5.5,5.4-8.4c0.3-0.5,0.6-1,0.9-1.4c-3.9-0.3-7.8-0.5-11.7-0.8
		C154.6,47.3,153.5,47.2,152.4,47.1z"/>
	<path class="st1" d="M167.6,45.9c-0.1,0-11.3-0.7-15-1.1c-24.5-2.6-40.6-10.6-54.9-17.7c-14.2-7-27.5-13.7-46.2-13.7
		c-11.9,0-25.1,2.7-40.4,8.2l-0.9,0.3l-0.2-1c1.5-1,2.5-2.7,2.5-4.5c0-3-2.4-5.5-5.4-5.5s-5.4,2.5-5.4,5.5c0,2.7,2.1,5.1,4.8,5.4
		l21.2,112.1l3.6-0.7l-5.2-27.7l2.3-1.9c7.7-8.2,15.8-13.8,24.6-17.3c7.2-2.8,14.9-4.1,24-4.1c6.7,0,13.5,0.7,20.1,1.4
		c6.3,0.7,12.9,1.4,19.2,1.4c11.2,0,25.9-1.9,39.7-16.6c0.7-0.8,2.7-3.2,2.8-3.3l0.1-0.1v-0.1l3.8-5.1l0,0l0,0l3.1-4.7l0,0l0,0
		l3.5-5.7l2-3.3L167.6,45.9z M11.2,26.9c2.8,4.2,5.2,8.1,7.5,15.8l0.1,0.5c2.4,8.4,5.4,23.7,6.5,32.6c0.1,0.7,1.1,12.8-0.5,23.2
		L11.2,26.9z M163.9,53.9l-3.1,4.7l-3.8,5.1c0,0-2,2.4-2.8,3.2c-11.9,12.7-24.6,15.8-37.9,15.8c-12.6,0-25.8-2.8-39.3-2.8
		c-16.4,0-33.3,4.1-50.3,22.1c2.4-11.5,1-26.5,1-26.5c-1.1-9.2-4.3-25.1-6.7-33.6l0,0c-2.8-9.1-5.7-13.2-9-18.2
		c16-5.8,28.8-8.1,39.6-8.1c36.7,0,51.7,26.2,100.8,31.3c3.8,0.4,15.1,1.1,15.1,1.1L163.9,53.9z"/>
	<path class="st1" d="M26.4,46.3l0.9,3.7l1.1-0.5c0.1,0,0.2,0,0.2,0.1l2.7,13.5c0,0.1,0,0.2-0.1,0.2l-1,0.5l0.8,4.4l6-3l-0.5-3.9
		l-1,0.4c0,0-0.1,0-0.1-0.1L34,55.3l7,8.1l3.9-1.9l-0.3-3.6l-1.4,0.6c-0.1,0-0.1,0-0.2,0l-4.9-5.6l2.3-7.7c0,0,0-0.1,0.1-0.1
		l1.7-0.6l-0.1-3.6l-5.2,1.6l-3.3,10.4l-1-4.9c0-0.1,0-0.1,0.1-0.1l0.7-0.3l-0.7-3.5L26.4,46.3z"/>
	<path class="st1" d="M101.5,55l-0.4,3.7c0,0.1-0.1,0.2-0.3,0.2l-1.9-0.3c-0.1,0-0.2-0.1-0.2-0.3l0.8-10.1c0-0.1,0.1-0.2,0.3-0.2
		l0.6,0.1l0.2-2.7l-4.7-0.8l-0.3,2.5l0.7,0.1c0.1,0,0.2,0.1,0.2,0.3l-0.7,10.2c0,0.2-0.1,0.3-0.3,0.2l-0.6-0.1l-0.2,3l8.8,1.3
		l0.6-6.8L101.5,55z"/>
	<path class="st1" d="M45.2,53.2L49,53c0,0,0.1,3.5,2.3,3.1s1.5-2.7,1.5-2.7s-0.1-1.1-1.7-1.8c-1.6-0.7-5.5-1.4-6.4-4.5
		c-0.9-3.2-0.2-6.5,3.1-7.7c3.2-1.2,5.4,0.3,5.4,0.3V39l2.4-0.1l0.2,6.3L52,46c0,0,0.1-3-2.2-3.1c0,0-1.6-0.1-1.7,1.9
		c-0.1,2,3.7,2.9,3.7,2.9s3.6,1.1,4.4,3.4c0.8,2.3,0.6,4.3,0.6,4.3s-0.2,2.9-2.5,4.2c-2.2,1.4-4.7,0.7-4.7,0.7l-1.5-0.4v0.3L45.7,61
		L45.2,53.2z"/>
	<path class="st1" d="M114.7,53.6l0.7-4.9l-9.2-1.7l-0.4,2.4l0.7,0.1c0.1,0,0.2,0.1,0.2,0.3l-0.9,9.6c0,0.1-0.1,0.2-0.3,0.2
		l-0.5-0.1l-0.3,2.8l9.2,1.2l0.5-5l-2.8-0.3l-0.3,1.9c0,0.1-0.1,0.2-0.3,0.2l-2.4-0.3l0.3-3.8l2.9,0.4l0.3-2.4l-2.9-0.4l0.5-3.9
		l2.3,0.3c0.1,0,0.2,0.2,0.2,0.3l-0.4,2.4L114.7,53.6z"/>
	<path class="st1" d="M124.7,55.2l0.6-5l-2.7-0.4V50c-0.5-0.2-1.1-0.3-1.5-0.4c-1-0.1-1.8-0.1-2.5,0.2c-0.6,0.2-1.2,0.6-1.5,1.1
		c-0.2,0.3-0.4,0.6-0.5,1.1s-0.2,1.2-0.3,2.2l-0.4,4.6c-0.2,1.2-0.2,2-0.1,2.5s0.1,1,0.4,1.3c0.3,0.5,0.7,0.9,1.3,1.2
		c0.5,0.2,1.3,0.5,2.3,0.6c0.7,0.1,1.5,0.1,2.2-0.1c0.7-0.1,1.4-0.4,1.8-1c0.7-1,0.7-4.5,0.7-4.5l-2.8-0.3l-0.1,1
		c-0.1,0.7-0.3,1.3-0.5,1.6c-0.3,0.2-0.6,0.4-1,0.3c-0.5-0.1-0.8-0.3-1-0.6c-0.2-0.3-0.2-0.9-0.2-1.7l0.5-4.8
		c0.1-0.7,0.2-1.3,0.5-1.6c0.2-0.3,0.6-0.4,1.1-0.3c0.4,0.1,0.9,0.2,1.1,0.6c0.2,0.3,0,1.7,0,1.7L124.7,55.2z"/>
	<path class="st1" d="M137.5,53.4l0.1-2.2h4.7l-0.1,2.2h-0.7c-0.1,0-0.2,0.1-0.2,0.2v8.7c0,0.2,0.2,0.4,0.4,0.4h0.6l0.1,2.2
		l-5.1,0.1v-2.2h0.5c0.2,0,0.4-0.2,0.4-0.4v-8.8c0-0.1-0.1-0.2-0.1-0.2L137.5,53.4z"/>
	<path class="st1" d="M136.1,53.4l0.1-2.3l-4.2-0.2l-0.1,2.5h0.6c0,0,0,0,0.1,0v0.1l-0.2,3.2l-2.9-0.1l0.2-3.2
		c0-0.1,0.1-0.1,0.1-0.1h0.6l0.1-2.5l-4.3-0.3l-0.3,2.5l0.7,0.1c0.1,0,0.2,0.1,0.2,0.2l-0.6,8.8c0,0.1-0.1,0.2-0.3,0.2h-0.6
		l-0.1,2.4l4.4,0.3l0.2-2.5h-0.5c-0.1,0-0.2-0.1-0.2-0.3l0.2-3.3l3,0.2l-0.2,3.2c0,0.1-0.1,0.2-0.2,0.2h-0.5l-0.2,2.3l4.6,0.1v-2.4
		h-0.6c-0.1,0-0.3-0.1-0.3-0.3l0.4-8.8c0-0.1,0.1-0.1,0.1-0.1L136.1,53.4z"/>
	<path class="st1" d="M153.1,61.2l-0.4,0.1c0,0-0.1,0-0.2,0l-0.1-0.1l-3-10.5l-4.6,0.5l-1,11.1v0.1l-0.1,0.1l-0.5,0.1l0.2,2.2l4-0.3
		l-0.2-2.3l-0.5,0.1c-0.2,0-0.4-0.2-0.3-0.4l0.2-1.4l2.4-0.4l0.4,1.3c0.1,0.2-0.1,0.4-0.3,0.4l-0.5,0.1l0.3,2.2l4.5-0.7L153.1,61.2z
		 M146.6,58.7l0.4-4.9l1.4,4.7L146.6,58.7z"/>
	<g>
		<path class="st2" d="M102.6,66c-26.2-4.1-26.2-4.2-41.3-3c-15.7,1.2-30,9.7-30,9.7l-1.1,0.7c0.3,2.9,0.5,5.3,0.6,8.2
			c0.1,4.9,0.1,9.2-0.3,13c4-3.6,8.2-6.6,12.5-9c5.7-3.2,11.8-5.5,18.2-6.9c4.9-1,10.1-1.5,15.9-1.5c0.6,0,1.2,0,1.8,0
			c5.8,0.1,11.6,0.7,17,1.2l1.9,0.2c4.6,0.5,9.4,1,14.1,1.2c1.6,0.1,3,0.1,4.4,0.1l0,0c4,0,7.5-0.3,10.8-0.9
			c5.1-0.9,9.9-2.6,14.2-5.1c2.8-1.6,5.5-3.7,8.2-6.1C134.8,69.2,118.9,68.6,102.6,66z"/>
		<path class="st2" d="M23.9,42.3c0.4-0.2,0.9-0.4,1.3-0.6c1.1-0.5,2.1-0.9,3.2-1.3c3.3-1.3,6.6-2.4,10-3.3c3.7-1,7.6-1.7,11.5-1.7
			c1.9,0,3.7,0,5.6,0c7.3,0.1,14.6,0.6,21.8,1.6c4.8,0.6,9.5,1.5,14.2,2.6c4.8,1.1,9.5,2.6,14.4,3.7c9.5,2.2,19.2,3.4,28.8,4.1
			c1.2,0.1,2.4,0.2,3.6,0.3c-8.5-1.8-16.8-4.3-24.8-7.6c-7.8-3.2-15.2-7.1-22.8-10.7c-7.8-3.8-15.8-7.3-24.3-9.2
			c-7.8-1.7-15.9-2-23.9-1.1s-15.8,2.8-23.4,5.2c-1,0.3-2,0.7-3,1c1.6,2.5,3.1,5.2,4.4,7.9C21.9,36.1,23,39.2,23.9,42.3
			C24.2,42.2,23.4,40.5,23.9,42.3z"/>
	</g>
	<g>
		<path class="st1" d="M92.1,33.3l-0.7,27.5c0,3.4-0.7,6.2-2.2,8.4c-1.5,2.2-3.5,3.8-5.9,4.6c-2.4,0.8-5,1-7.6,0.5s-5.1-1.7-7.6-3.5
			c-2.4-1.8-4.4-4.2-5.9-7c-1.5-2.8-2.3-6-2.3-9.4l-0.1-27.8L92.1,33.3z"/>
		<path class="st3" d="M90.7,34.7L90,60.2c0,3.1-0.7,5.8-2,7.8c-1.4,2.1-3.2,3.5-5.4,4.3c-2.2,0.8-4.5,1-6.9,0.5s-4.7-1.6-6.9-3.3
			c-2.2-1.7-4-3.9-5.4-6.5c-1.4-2.6-2.1-5.6-2.1-8.7l-0.1-25.8L90.7,34.7z"/>
		<path class="st0" d="M67.3,65.3v-7.7l0.8,0.2c0,0.3,0.1,0.8,0.4,1.3c0.2,0.6,0.9,1.2,1.8,1.9c1,0.7,2.4,1.2,4.3,1.6
			c0.2,0,0.4,0,0.6,0.1c0-0.6-0.2-1.3-0.5-2s-0.9-1.4-1.8-2c-0.8-0.6-1.9-1.1-3.3-1.4v-0.5l12.6,2.6v0.5c-0.5-0.1-1.2-0.2-2.1-0.2
			c-0.8,0-1.6,0.2-2.4,0.7s-1.1,1.4-1.1,2.7c0.2,0,0.4,0.1,0.6,0.1c0.9,0.2,1.9,0.3,2.9,0.3s1.9-0.2,2.6-0.5c0.7-0.4,1.1-1,1.2-1.8
			l0.8,0.2v7.7l-0.8-0.2c0-0.3-0.1-0.7-0.4-1.3c-0.3-0.6-0.9-1.2-1.8-1.8c-1-0.7-2.4-1.2-4.2-1.6L76.7,64c0,0.9,0.2,1.7,0.7,2.4
			c0.5,0.7,1.2,1.4,2,1.9c0.9,0.5,1.8,0.9,2.9,1.1v0.5l-12.6-2.6v-0.5c0.9,0.2,1.8,0.2,2.7,0.1c0.9-0.1,1.6-0.4,2.1-0.9
			s0.8-1.2,0.8-2v-0.4c-0.1,0-0.4-0.1-0.7-0.1c-1-0.2-1.9-0.3-2.9-0.2c-1,0-1.8,0.2-2.4,0.6c-0.7,0.4-1,1-1.1,1.7L67.3,65.3
			L67.3,65.3z"/>
		<path class="st0" d="M67.3,53.7V46l0.8,0.2c0,0.3,0.1,0.8,0.4,1.3c0.2,0.6,0.9,1.2,1.8,1.9c1,0.7,2.4,1.2,4.3,1.6
			c0.2,0,0.4,0,0.6,0.1c0-0.6-0.2-1.3-0.5-2s-0.9-1.4-1.8-2c-0.8-0.6-1.9-1.1-3.3-1.4v-0.5l12.6,2.6v0.5c-0.5-0.1-1.2-0.2-2.1-0.2
			c-0.8,0-1.6,0.2-2.4,0.7s-1.1,1.4-1.1,2.7c0.2,0,0.4,0.1,0.6,0.1c0.9,0.2,1.9,0.3,2.9,0.3s1.9-0.2,2.6-0.5c0.7-0.4,1.1-1,1.2-1.8
			l0.8,0.2v7.7l-0.8-0.4c0-0.3-0.1-0.7-0.4-1.3c-0.3-0.6-0.9-1.2-1.8-1.8c-1-0.7-2.4-1.2-4.2-1.6l-0.8-0.2c0,0.9,0.2,1.7,0.7,2.4
			c0.5,0.7,1.2,1.4,2,1.9c0.9,0.5,1.8,0.9,2.9,1.1v0.5l-12.6-2.6V55c0.9,0.2,1.8,0.2,2.7,0.1c0.9-0.1,1.6-0.4,2.1-0.9s0.8-1.2,0.8-2
			v-0.4c-0.1,0-0.4-0.1-0.7-0.1c-1-0.2-1.9-0.3-2.9-0.2c-1,0-1.8,0.2-2.4,0.6c-0.7,0.4-1,1-1.1,1.7L67.3,53.7L67.3,53.7z"/>
		<path class="st1" d="M72,40.6l-0.7-2.2l-0.9,1.8c-0.8-0.2-1.6-0.3-2.3-0.5c0-1.3,0.6-1.3,1.9-1.7c-0.3-0.6-2.3-2.6-6-5.1l3.2,10.4
			c2,0.1,3.3,0.1,4.4,0.2s2.3,0.3,4.2,0.7h0.1H76c3.7,0.8,4.5,1,8.6,2.6l3.1-9.1c-3.3,0.8-4.5,1.6-5.7,2.7c1.3,0.9,1.7,1.1,1.7,2.4
			c-0.8-0.2-1.6-0.3-2.3-0.5l-0.8-2.2l-0.8,2l-2.7-0.5c0.5-0.6-0.3-1.6,1.9-2.7c-1.8-1.3-2.4-4-3.2-5.7c-0.8,1.4-1,3.4-3,4.5
			c2.2,2,1.3,2.6,1.9,3.5L72,40.6L72,40.6z"/>
	</g>
</g>
</svg>
