<?xml version="1.0" encoding="utf-8"?>
<!-- Generator: Adobe Illustrator 19.1.0, SVG Export Plug-In . SVG Version: 6.00 Build 0)  -->
<svg version="1.1" id="Layer_1" xmlns="http://www.w3.org/2000/svg" xmlns:xlink="http://www.w3.org/1999/xlink" x="0px" y="0px"
	 viewBox="595 123.9 329.2 377" style="enable-background:new 595 123.9 329.2 377;" xml:space="preserve">
<style type="text/css">
	.st0{fill:#1C1734;}
	.st1{clip-path:url(#SVGID_2_);fill:#D9D9D9;}
	.st2{clip-path:url(#SVGID_4_);fill:#A9A9A9;}
	.st3{fill:#1B1632;}
	.st4{fill:#EF7E34;}
</style>
<g>
	<g>
		<path class="st0" d="M899,201.5c-0.1-4.5-3.3-8.3-7.8-8.9c-20.8-2.9-41.3-7.8-61.4-15.2c-20-7.3-42.2-17.6-66.1-31
			c-3-1.7-5.9-1.7-8.9,0c-23.7,13.5-45.7,23.7-65.9,31c-20.1,7.3-40.6,12.3-61.3,15.2c-4.5,0.6-7.6,4.5-8.1,8.9
			c-2,84.7,16.6,154,55.5,207.9c21.2,29.4,47.7,53.2,79.8,71.3c2.5,1.8,6.4,1.7,9.2,0c31.8-18.5,58.3-42.1,79.4-71.3
			C882.5,355.6,900.9,286.2,899,201.5z M828.7,399c-18.4,25.4-41.5,46.6-69.4,63.6c-27.9-17-51.1-38.1-69.4-63.6
			c-35.4-49.3-52.7-112.5-52-189.4c19.5-3.1,38.8-8.4,58.1-15.5c19.3-7.1,40.5-16.8,63.3-29.2c22.8,12.4,43.8,22.1,63.1,29.2
			c19.3,7.1,38.8,12.4,58.3,15.5C881.4,287.1,864,350.3,828.7,399z"/>
	</g>
	<g>
		<g>
			<defs>
				<path id="SVGID_1_" d="M822.4,193.9c-19.3-7.1-40.3-16.8-63.1-29.2c-22.8,12.4-43.9,22.1-63.3,29.2
					c-19.3,7.1-38.6,12.4-58.1,15.5c-0.7,77,16.6,140.1,52,189.4c18.3,25.5,41.5,46.6,69.4,63.6c27.9-17,51-38.2,69.4-63.6
					c35.3-48.8,52.7-112,52-189.4C861.2,206.3,841.7,201,822.4,193.9z"/>
			</defs>
			<clipPath id="SVGID_2_">
				<use xlink:href="#SVGID_1_"  style="overflow:visible;"/>
			</clipPath>
			<rect x="759.3" y="155.6" class="st1" width="174.1" height="316"/>
		</g>
		<g>
			<defs>
				<path id="SVGID_3_" d="M822.4,193.9c-19.3-7.1-40.3-16.8-63.1-29.2c-22.8,12.4-43.9,22.1-63.3,29.2
					c-19.3,7.1-38.6,12.4-58.1,15.5c-0.7,77,16.6,140.1,52,189.4c18.3,25.5,41.5,46.6,69.4,63.6c27.9-17,51-38.2,69.4-63.6
					c35.3-48.8,52.7-112,52-189.4C861.2,206.3,841.7,201,822.4,193.9z"/>
			</defs>
			<clipPath id="SVGID_4_">
				<use xlink:href="#SVGID_3_"  style="overflow:visible;"/>
			</clipPath>
			<rect x="585.2" y="155.6" class="st2" width="174.1" height="316"/>
		</g>
	</g>
</g>
<g>
	<circle class="st3" cx="760" cy="389.8" r="27.9"/>
	<g>
		<g>
			<path class="st4" d="M765.8,378.9c0.7-0.1,1.3-0.2,2-0.2c1.5,3.1,2.5,6.4,2.9,10c-4.5,0-12,1.8-14.4,13.7c-1.2,5.9-4,8.9-8.7,9.2
				c-3.9-2.2-7.1-5.5-9.4-9.4C742,390.2,752.5,380.8,765.8,378.9z"/>
			<path class="st4" d="M773,390.9c3.4,0.5,5.8,1.9,7.1,4c1.8,3,1.1,7.1,0.5,9c-3.5,5.1-8.8,8.8-15,10.3c4.7-5.8,7.4-13.3,7.4-21.7
				C773.1,392,773,391.4,773,390.9z"/>
			<path class="st4" d="M769.1,376.5c-0.9-1.8-2-3.5-3.3-5.1c3-1,3.9-3.2,4-4.8c6.1,2.6,10.9,7.4,13.4,13.5
				c-3.9-2.4-8.3-3.7-13.1-3.7C769.7,376.5,769.4,376.5,769.1,376.5z"/>
			<path class="st4" d="M772.8,388.8c-0.4-3.6-1.3-7-2.8-10.2c5.6,0,10.3,1.8,14.2,4.8c0.5,2,0.8,4.2,0.8,6.4c0,3.2-0.6,6.3-1.7,9.1
				c-0.1-1.7-0.5-3.4-1.4-5C780.3,391.1,777.2,389.3,772.8,388.8z"/>
			<path class="st4" d="M764.3,369.7c-1.7-1.9-3.5-3.5-5.5-5c0.4,0,0.8,0,1.2,0c4.8,0,7.6,1.3,7.6,1.3
				C767.7,366.3,768,368.8,764.3,369.7z"/>
			<path class="st4" d="M739.6,375.1L739.6,375.1c4.7-5.8,12.3-2.8,12.4-2.8c2.1,0.9,5.8,0.7,11.5-0.4c1.2,1.5,2.3,3,3.2,4.7
				c-0.4,0-0.8,0.1-1.2,0.1c-9.6,1.4-18,6.4-23.8,14.1c-2,2.7-3.6,5.6-4.8,8.7c-1.3-3-2-6.3-2-9.8
				C734.9,384.3,736.6,379.2,739.6,375.1z"/>
			<path class="st4" d="M752.8,370.4c-1.8-0.7-4.7-1.3-7.9-0.8c3-2.3,6.6-3.9,10.5-4.6c2.3,1.4,4.5,3.1,6.4,5.1
				C756.3,371.1,753.9,370.8,752.8,370.4z"/>
			<path class="st4" d="M758.3,402.8c2.1-10.4,8.3-12.2,12.6-12.1c0,0.6,0,1.2,0,1.8c0,8.6-3.1,16.5-8.5,22.2
				c-0.8,0.1-1.6,0.1-2.5,0.1c-3.3,0-6.4-0.6-9.3-1.8C754.7,411.8,757.2,408.3,758.3,402.8z"/>
		</g>
	</g>
</g>
<g id="Ebene_x0020_1">
	<path class="st3" d="M705.4,238.3l-2.1-2.2l7.1-7.1l2.2,2.1l17.8-17.8l15.3,15.3l-17.6,17.6l31.1,30l33.6-32.4
		c-6.5-5.8-13.9-10.7-21.8-14.6l14.6-16.8c19.6,10.7,35.7,26.8,46.4,46.4l-16.8,14.6c-3.8-8-8.8-15.4-14.6-21.9l-32.3,33.4l48.7,47
		c1.2,1.1,1.3,3,0.2,4.3c-2.1,2.4-4.4,4.6-6.8,6.8c-1.2,1.1-3.1,1-4.3-0.2l-46.9-48.6l-46.9,48.6c-1.1,1.2-3,1.3-4.3,0.2
		c-2.4-2.1-4.6-4.4-6.8-6.8c-1.1-1.2-1-3.1,0.2-4.3l48.7-47.1l-29.8-30.9l-7.5,7.5l-30.5,15.2l15.2-30.5L705.4,238.3L705.4,238.3z"
		/>
</g>
</svg>
