<?xml version="1.0" encoding="utf-8"?>
<!-- Generator: Adobe Illustrator 19.2.1, SVG Export Plug-In . SVG Version: 6.00 Build 0)  -->
<svg version="1.1" id="Layer_1" xmlns="http://www.w3.org/2000/svg" xmlns:xlink="http://www.w3.org/1999/xlink" x="0px" y="0px"
	 viewBox="0 0 139.5 175.5" style="enable-background:new 0 0 139.5 175.5;" xml:space="preserve">
<style type="text/css">
	.st0{fill:#FFF200;}
	.st1{fill:#ED1C24;}
	.st2{fill:#FFFFFF;}
</style>
<g>
	<path d="M117.1,85.4V62c0-4.9-2.9-8.9-7.9-10.7l0,0c-0.3-0.1-4.2-2-12.4-3.5c0.5-6.1,2.9-10.2,2.9-10.2s-5.4,0.1-8.9,3.5
		c-0.1,0.1-0.1,0.2-0.2,0.2c-0.1-1.4-0.1-3-0.1-4.5c0-4,2.4-6.3,2.5-6.4l3.9-3.6c0,0-7.5-0.5-11.5,2.2c0.1-1.3,0.2-6.1,0.1-7
		C84.7,9.4,68,5.4,68,5.4s8.3,11.4,7.3,19.6c-0.8,6.6-6.5,11.8-11.1,16.1c-4.8,4.4-6.7,7-6.7,7s-3.4-4.6-12.3-4
		c1,0.8,1.5,1.3,2.9,3.1c-9.8,1.5-14.7,3.7-15.6,4.1c-5,1.8-7.9,5.8-7.9,10.7v33.3h-0.8c-8,0-9.3,3.8-11.4,12.5
		c-1.5,6.2-5.5,25.8-5.5,25.8l30.1,7.5c10.1,8.8,28.8,18.5,32.8,20.5l1,0.5l0.2,0.1l0.2-0.1l1-0.5c4.8-2.5,29.4-15.2,37-24.8
		c0.9-1.1,1.7-2.2,2.4-3.2h6.5c8,0,9.3-3.8,11.4-12.5c1.5-6.2,5.5-25.8,5.5-25.8L117.1,85.4z"/>
	<path class="st0" d="M76.6,142.4h-2v-8.8h-2.4l-0.5,8.8h-1.1l-0.5-8.8h-7.7l1.6,12.5h13.5l1.6-12.5h-1.5L76.6,142.4z M100.2,87.4
		c1.3-3.4,2-7,2-10.6c0,0-9.7,2.2-31.2,2.2c-20.6,0-31.6-2.2-31.6-2.2c0,6.6,2.4,13.2,6.4,18.4h45.9c6.7-2.9,8.7-8.1,8.7-8.1
		S100.2,87.3,100.2,87.4z M62.3,92.9H59l-0.3-6.8l0,0l-3.2,6.8H52l-0.3-11.2h3.1l-0.2,6.8l0,0l3.1-6.8h3.4l0.2,6.9l0,0l2.9-6.9h3.4
		L62.3,92.9z M75.3,84.5l-1.8,8.4H70l1.8-8.4h-3.5l0.6-2.7h10.6l-0.6,2.7H75.3z M85.1,85.6c2.1,0.8,3.9,1.6,3.9,3.8
		c0,1-0.4,1.9-1.3,2.7c-0.7,0.6-1.6,1.1-3.7,1.1c-2.3,0-3.6-0.6-4.2-1.5c-0.7-1-0.7-1.9-0.6-2.4l3.2-0.2c0,0.5,0,1.9,1.7,1.9
		c1.3,0,1.7-0.8,1.7-1.2c0-0.7-0.8-1-1.6-1.3c-2.4-0.9-3.8-1.6-3.8-3.4c0-1.6,1.3-3.4,4.6-3.4c3.1,0,4.6,1.1,4.8,3.3l-3.2,0.2
		c0-0.7-0.4-1.5-1.6-1.5c-1,0-1.3,0.5-1.3,0.9C83.6,85,84.3,85.3,85.1,85.6z M54,50.1L54,50.1C54,50,54,50.1,54,50.1L54,50.1z
		 M37.3,74.9c0,0,6.7,0.1,9.8,0s2.6-1.9,1.9-5.3l0,0c-0.5-1.9-0.8-4.2-0.5-7c0.4-3.5,1-5.4,1.5-6.7c0.5-1.6,0.8-2.5,0.1-4.7
		c-0.2-0.5-0.4-1.1-0.7-1.6c-11,1.6-16,4-16.2,4.1c-4,1.4-6.3,4.4-6.3,8.3v33.3h16.2c-3.7-5.4-5.9-12-5.9-18.4L37.3,74.9L37.3,74.9z
		 M108.1,53.7L108.1,53.7L108.1,53.7c-0.1-0.1-2.7-1.3-8.1-2.6c0,0-0.3,0.4-6.6,14.1c-3.1,6.7,1.2,9.2,7.5,9.7h3.2v2
		c0,6.4-2.1,13-5.8,18.4h16.2V62C114.5,58.1,112.2,55.1,108.1,53.7z"/>
	<path class="st1" d="M52.1,50.6c0,0.1,0,0.1,0,0.2c1.3,5.3-0.7,4.3-1.6,12.1c-0.9,7.8,2,9.7,4.4,11.3c2.4,1.6,9,3,19.1,0.7
		C83.9,72.6,90.2,59,90.2,59s-3.2,10.6-8,16.7c5.3,0.6,7.3,0.6,10.8,0.1c4.5-0.6-3.7-2.2-2.3-8.1s4.1-4.3,4.4-17.8
		c0.2-9.4,1.7-9.9,1.7-9.9c-0.1,0-2.5,0.3-4.7,2.5c-1.6,1.6-3.1,5-3.1,5s-0.6-5.6-0.6-10.7c0-5,3.1-7.8,3.1-7.8s-2,0.1-4.2,1.2
		c-0.9,0.5-3.5,2.2-5.3,6.9c-2.7,6.9-6.8,18.1-6.8,18.1s3.8-16.2,5.3-20c0.6-1.4,3-6.8,2.8-13.2C83,13.8,73,9.5,73,9.5
		s5,6.6,4.1,15.7S67.1,40.6,62,45.6c-4.1,4.1-4.2,8.6-4.1,10.2c-0.2-2.1-1.7-9.5-9.4-10.2C48.5,45.6,50.9,45.8,52.1,50.6z
		 M81.1,133.6c-1,7.9-1.9,14.5-1.9,14.5h-17c0,0-0.8-6.6-1.9-14.5H33.2c0.4,0.5,0.8,1.1,1.2,1.6l1.4,1.5c8.8,9.2,31.8,21,34.8,22.6
		c3.1-1.6,28.7-14.8,36.1-24.1c0.4-0.6,0.8-1.1,1.2-1.6H81.1z"/>
	<path class="st2" d="M94.5,102.4h3.3l-4.2,15.2c-0.1,0.2-0.1,0.3-0.1,0.5c0,0.7,0.6,1.1,1.7,1.1h4.3l0.1-0.5
		c-0.8-0.1-1.3-0.4-1.3-1c0-0.2,0-0.3,0.1-0.5l4.1-14.6h3.5c1.7,0,1.8-1.1,2.4-3.7H108c-0.2,0.5-0.6,0.7-1.4,0.7H95.4
		c-2.1,0-2.2,0.9-2.9,3.8h0.6C93.2,102.6,93.6,102.4,94.5,102.4z M43,118.5c-0.8,0-1.3-0.3-1.3-0.9c0-0.1,0-0.2,0.1-0.4l1.6-6h3
		c3.3,0,5.4-0.2,7.1-1.8c1.2-1.2,2.3-3.6,2.3-6.1c0-2.7-1.4-4-4.6-4H40.4l-0.1,0.5c0.7,0.1,1.1,0.4,1.1,0.9c0,0.1,0,0.2,0,0.3
		l-4.7,16.7c0,0.1-0.1,0.3-0.1,0.4c0,0.6,0.5,0.9,1.2,0.9h5L43,118.5z M46.1,102.2H49c1.4,0,2,0.5,2,1.8s-0.6,2.7-1.4,3.5
		c-0.7,0.7-1.9,0.9-3.8,0.9h-1.6L46.1,102.2z M22.8,106.1c0,1.7,0.7,2.6,2.2,3.2l3.9,1.5c1.1,0.4,1.5,0.9,1.5,1.7
		c0,2-1.6,3.5-4.1,3.5h-3.8c-1.2,0-1.6-0.3-1.7-1.1h-0.6l-0.7,2.6c0,0.2-0.1,0.4-0.1,0.5c0,1,1,1.1,3.1,1.1h4.8c5,0,7.7-2.7,7.7-7.4
		c0-1.8-0.8-3-2.7-3.8l-3.4-1.4c-1-0.4-1.5-0.8-1.5-1.5c0-1.5,1.1-2.5,2.7-2.5h3.8c0.9,0,1.4-0.4,1.6-1.2l0.5-2h-6.7
		C25.2,99.3,22.8,101.9,22.8,106.1z M120.9,116.9l-1.1-16.1c-0.1-1.1-0.5-1.4-1.7-1.4h-5.7l-0.1,0.5c0.6,0,0.8,0.2,0.8,0.6
		c0,0.2-0.1,0.5-0.4,0.9L102.6,117c-0.4,0.6-0.6,1.1-0.6,1.4c0,0.4,0.4,0.7,1,0.7h4.4l0.1-0.5c-0.6-0.1-0.8-0.2-0.8-0.7
		c0-0.1,0-0.3,0.2-0.5l2.3-3.8h6.8l0.2,3.7c0.1,1.2,0.7,1.8,1.9,1.8h4l0.1-0.5C121.4,118.4,120.9,117.8,120.9,116.9z M110.5,110.8
		l4.9-7.4l0.4,7.4H110.5z M85.9,119c1.3,0,2.1-0.1,2.3-0.2c0.4-0.3,0.6-1.3,0.9-2.9c-0.3,0.1-0.6,0.1-0.8,0.1
		c-0.7,0-1.2-0.3-1.4-0.9l-2-5H85c3.7,0,6.3-2.9,6.3-6.8c0-2.5-1.7-3.9-4.8-3.9H75.7l-0.1,0.5c0.7,0.1,1.1,0.4,1.1,0.9
		c0,0.1,0,0.2-0.1,0.3L72,117.8c0,0.1-0.1,0.3-0.1,0.4c0,0.5,0.4,0.9,1.2,0.9h5l0.2-0.5c-0.8,0-1.2-0.3-1.2-0.9c0-0.1,0-0.2,0-0.3
		l1.9-6.8h1.7l2.5,7.4C83.6,119,84.4,119,85.9,119z M82.7,107.6h-2.9l1.5-5.5h2.9c1.5,0,2.2,0.5,2.2,1.5
		C86.4,106.2,85.1,107.6,82.7,107.6z M61.8,100.5c0,0.2-0.1,0.5-0.4,0.9L51.3,117c-0.4,0.6-0.6,1.1-0.6,1.4c0,0.4,0.4,0.7,1,0.7h4.4
		l0.1-0.5c-0.6-0.1-0.8-0.2-0.8-0.7c0-0.1,0-0.3,0.2-0.5l2.3-3.8h6.8l0.2,3.7c0.1,1.2,0.7,1.8,1.9,1.8h4l0.1-0.5
		c-0.8-0.1-1.3-0.7-1.3-1.6l-1.1-16.1c-0.1-1.1-0.5-1.4-1.7-1.4h-5.7L61,100C61.5,99.9,61.8,100.1,61.8,100.5z M64.5,110.8h-5.2
		l4.9-7.4L64.5,110.8z M74.4,122.6c-0.9,0-1.7,0.1-2.3,0.4s-1.1,0.7-1.5,1.1s-0.6,0.9-0.8,1.4c-0.1,0.5-0.2,0.9-0.2,1.4
		s0.1,1,0.3,1.5c0.2,0.4,0.5,0.8,0.8,1.1c0.4,0.3,0.8,0.5,1.2,0.7c0.4,0.1,0.9,0.2,1.4,0.2c0.2,0,0.5,0,0.7-0.1
		c0.2,0,0.4-0.1,0.6-0.1c0.2,0,0.3-0.1,0.6-0.2c0.2-0.1,0.4-0.2,0.6-0.2l0.3-2.1c-0.9,0.7-1.8,1-2.7,1c-0.3,0-0.7-0.1-0.9-0.2
		c-0.3-0.2-0.5-0.4-0.7-0.7s-0.2-0.6-0.2-1s0.1-0.7,0.2-1c0.1-0.3,0.3-0.6,0.6-0.8c0.3-0.2,0.6-0.4,0.9-0.5c0.3-0.1,0.7-0.2,1-0.2
		c0.2,0,0.4,0,0.6,0c0.2,0,0.4,0.1,0.6,0.1c0.2,0,0.4,0.1,0.7,0.2l0.3-1.7c-0.5-0.1-0.8-0.2-1.1-0.2
		C75.1,122.6,74.8,122.6,74.4,122.6z M79.9,126.5l1.5-1l0.2-1.4l-1.5,1l0.4-2.5h-1.9l-0.6,3.9l-1.2,0.8l-0.2,1.4l1.2-0.8l-0.3,2.2
		h5.4l0.2-1.3h-3.4L79.9,126.5z M87.2,122.7l-3.8,7.5h2l0.8-1.7h2.3l0.2,1.7h2l-1.4-7.5H87.2z M86.7,127.4l1.3-2.9l0.4,2.9H86.7z
		 M66.9,123c-0.6-0.3-1.2-0.4-1.9-0.4c-0.6,0-1.1,0.1-1.7,0.3c-0.5,0.2-1,0.5-1.4,0.8c-0.4,0.4-0.7,0.8-1,1.4
		c-0.2,0.5-0.4,1.2-0.4,1.8c0,0.8,0.2,1.4,0.6,2c0.4,0.5,0.9,0.9,1.4,1.1c0.6,0.2,1.2,0.3,1.8,0.3c0.7,0,1.3-0.1,1.8-0.3
		s1-0.5,1.4-0.9s0.7-0.8,0.9-1.4c0.2-0.5,0.3-1.1,0.3-1.7c0-0.7-0.2-1.3-0.5-1.8C67.9,123.6,67.4,123.2,66.9,123z M66.5,127
		c-0.1,0.3-0.3,0.6-0.5,0.8c-0.2,0.2-0.4,0.4-0.7,0.6c-0.3,0.1-0.6,0.2-0.9,0.2c-0.6,0-1-0.2-1.3-0.5c-0.3-0.4-0.5-0.8-0.5-1.3
		c0-0.4,0.1-0.8,0.3-1.2c0.2-0.4,0.4-0.7,0.8-1c0.4-0.3,0.8-0.4,1.3-0.4c0.3,0,0.6,0.1,0.9,0.2c0.3,0.2,0.5,0.4,0.6,0.7
		c0.1,0.3,0.2,0.6,0.2,1C66.7,126.4,66.6,126.7,66.5,127z M48.8,126.9l-1-4.3h-1.2l-2.1,4.3l-0.7-4.3H42l1.6,7.6h1.1l2.3-4.3
		l1.2,4.3h1l3.7-7.6H51L48.8,126.9z M97.9,126.9l-1-4.3h-1.2l-2.1,4.3l-0.7-4.3H91l1.6,7.6h1.1l2.3-4.3l1.2,4.3h1l3.7-7.6H100
		L97.9,126.9z M58.4,127.4c-0.2-0.2-0.4-0.4-0.7-0.6c0.6-0.1,1-0.3,1.3-0.6c0.3-0.3,0.5-0.8,0.5-1.3s-0.2-1.1-0.6-1.5
		c-0.4-0.5-1.1-0.7-2.2-0.7h-2.9l-1.1,7.5h1.9l0.5-3.2h0.3c0.2,0,0.4,0,0.5,0.1s0.3,0.2,0.4,0.4c0.2,0.2,0.4,0.6,0.6,1.1l0.7,1.6
		h2.1l-0.8-1.7C58.7,128,58.5,127.6,58.4,127.4z M57.2,125.6c-0.2,0.2-0.6,0.3-1.1,0.3h-0.8l0.3-2.2h0.3c0.6,0,1.1,0.1,1.3,0.3
		c0.2,0.2,0.3,0.5,0.3,0.8C57.5,125.1,57.4,125.4,57.2,125.6z"/>
</g>
</svg>
