<?xml version="1.0" encoding="utf-8"?>
<!-- Generator: Adobe Illustrator 19.1.0, SVG Export Plug-In . SVG Version: 6.00 Build 0)  -->
<svg version="1.1" id="Layer_1" xmlns="http://www.w3.org/2000/svg" xmlns:xlink="http://www.w3.org/1999/xlink" x="0px" y="0px"
	 viewBox="0 0 530.7 148" style="enable-background:new 0 0 530.7 148;" xml:space="preserve">
<style type="text/css">
	.st0{fill:#FFFFFF;}
	.st1{fill:#E5BE58;}
	.st2{fill:#0071BB;}
	.st3{fill:#231F20;}
	.st4{fill-rule:evenodd;clip-rule:evenodd;fill:#E5BE58;}
</style>
<g>
	<path class="st0" d="M167.3,70.1c4.8,1.4,7.3,3.9,7.3,7.5v16.6c0,6.6-3.3,9.8-10,9.8h-17.8V37.9h15.1c7.9,0,11.8,4,11.8,12v12.7
		c0,3.8-2.1,6.1-6.3,7V70.1z M155.6,65.8h4.1c3.4,0,5.1-1.6,5.1-4.8V50.7c0-3.2-1.3-4.8-4-4.8h-5.2V65.8z M155.6,96h6.6
		c2.3,0,3.5-1,3.5-2.9V78.5c0-3.1-1.7-4.7-5.2-4.7h-4.9V96z"/>
	<path class="st0" d="M181.9,104V37.9h8.8V104H181.9z"/>
	<path class="st0" d="M220,104h-21V37.9h8.8V96H220V104z"/>
	<path class="st0" d="M225.1,104V37.9H247v8h-13.1V66h11.6v8h-11.6v22H247v8H225.1z"/>
	<path class="st0" d="M267.4,45.9V104h-8.8V45.9h-8.5v-8h25.8v8H267.4z"/>
	<path class="st0" d="M297.4,104h-8.8V79.7l-10.9-41.8h8.7l6.6,28.7h0.3l6-28.7h8.7l-10.7,41.8V104z"/>
	<path class="st0" d="M344.8,55.7v-5.8c0-2.6-1.3-4-3.9-4h-1.4c-2.5,0-3.8,1.3-3.8,4v10.9c0,1.2,0.2,2.1,0.7,2.5
		c0.5,0.4,1.3,1,2.4,1.7l8.4,4.5c1.8,1,3.1,1.9,3.9,2.4c0.8,0.6,1.4,1.3,1.8,2.1c0.4,0.8,0.6,2.4,0.6,4.7v14.1
		c0,7.4-3.6,11.1-10.7,11.1h-5.4c-7.1,0-10.6-4-10.6-12.1v-3.3h8.8v3.6c0,2.6,1.3,3.9,4,3.9h1.6c2.3,0,3.5-1.3,3.5-3.9V80.9
		c0-1.2-0.2-2.1-0.7-2.5c-0.5-0.4-1.3-1-2.4-1.7l-8.4-4.7c-1.8-1-3.2-1.8-4-2.5c-0.8-0.7-1.4-1.5-1.8-2.6c-0.4-1.1-0.6-2.5-0.6-4.2
		V49.3c0-7.5,3.5-11.3,10.6-11.3h5.5c7.1,0,10.6,3.8,10.6,11.3v6.4H344.8z"/>
	<path class="st0" d="M375.1,45.9V104h-8.8V45.9h-8.5v-8h25.8v8H375.1z"/>
	<path class="st0" d="M398.8,104c-7.1,0-10.7-3.7-10.7-11.2V49.3c0-7.5,3.5-11.3,10.6-11.3h8.5c7.1,0,10.6,3.8,10.6,11.3v43.5
		c0,7.5-3.6,11.2-10.7,11.2H398.8z M400.9,96h4.5c2.3,0,3.5-1.3,3.5-3.9V49.8c0-2.6-1.3-3.9-4-3.9h-4.1c-2.6,0-3.9,1.3-3.9,3.9v42.3
		C396.9,94.7,398.3,96,400.9,96z"/>
	<path class="st0" d="M443.5,76.8l8.2-38.8h9.8V104h-8.8l0.9-43.2L446.9,92h-6.8l-6.6-31.3l0.9,43.2h-8.8V37.9h9.8L443.5,76.8z"/>
	<path class="st0" d="M469.7,104V37.9h8.8V104H469.7z"/>
	<path class="st0" d="M507.8,104h-21V37.9h8.8V96h12.1V104z"/>
</g>
<g>
	<path class="st1" d="M68.3,119.3c-7.4,0-14.5-1.6-21-4.8c-12-5.3-19.7-17.1-19.7-29.9c0-0.1,0-0.1,0-0.2l0-0.1c0-0.3,0-0.5,0-0.8
		c0-4.9,1.4-11,1.8-12.3c0.5-1.7,4.6-16.2,4.6-16.2l0,0c0.7-2.2,1-4.5,1-6.9c0-8.2-4.4-15.8-11.4-20l-1.7-1l10.9-13l1.2,0.6
		c8.7,4.5,21.1,7.1,34.1,7.1l0.1,0l0.1,0c13,0,25.4-2.6,34.1-7.1l1.2-0.6l10.9,13l-1.7,1c-7,4.2-11.4,11.9-11.4,20
		c0,2.3,0.3,4.6,1,6.9l0,0c0,0,4.1,14.4,4.6,16.2c0.4,1.3,1.8,7.4,1.8,12.3c0,0.3,0,0.5,0,0.8v0.1c0,0.1,0,0.1,0,0.2
		c0,12.9-7.8,24.6-19.8,29.9C82.7,117.7,75.6,119.3,68.3,119.3L68.3,119.3z"/>
	<path class="st0" d="M105.5,71.7c-0.5-1.6-4.6-16.2-4.6-16.2c-0.7-2.3-1.1-4.8-1.1-7.3c0-9.1,4.9-17.1,12.2-21.5l-8.8-10.5
		c-8.6,4.5-21,7.3-34.9,7.3c0,0-0.1,0-0.1,0l0,0c0,0,0,0,0,0c0,0,0,0,0,0l0,0c0,0-0.1,0-0.1,0c-13.8,0-26.3-2.8-34.9-7.3l-8.8,10.5
		c7.3,4.4,12.2,12.3,12.2,21.5c0,2.6-0.4,5-1.1,7.3c0,0-4.1,14.5-4.6,16.2c-0.4,1.3-1.7,7.2-1.7,11.8c0,0.3,0,0.5,0,0.8
		c0,0.1,0,0.2,0,0.3c0,12.6,7.7,23.5,18.7,28.4c6.1,3,13,4.6,20.3,4.6c7.3,0,14.1-1.7,20.2-4.6c11.1-4.9,18.8-15.8,18.8-28.4
		c0-0.1,0-0.2,0-0.3c0-0.3,0-0.5,0-0.8C107.3,78.9,105.9,73,105.5,71.7z"/>
	<path class="st2" d="M78.6,25v6h14.9v-8.8C88.9,23.5,83.9,24.5,78.6,25z"/>
	<path class="st2" d="M60.8,25.2V31h14.9v-5.8c-2.4,0.2-4.9,0.3-7.5,0.3C65.7,25.5,63.2,25.4,60.8,25.2z"/>
	<path class="st2" d="M43,31h14.9v-6c-5.3-0.5-10.3-1.5-14.9-2.8V31z"/>
	<rect x="43" y="42.7" class="st2" width="14.9" height="3.3"/>
	<rect x="60.8" y="42.7" class="st2" width="14.9" height="3.3"/>
	<rect x="78.6" y="42.7" class="st2" width="14.9" height="3.3"/>
	<rect x="43" y="57.7" class="st2" width="14.9" height="3.8"/>
	<rect x="60.8" y="57.7" class="st2" width="14.9" height="3.8"/>
	<path class="st3" d="M74,38.4l1.1-0.1c0.1,0.4,0.2,0.8,0.4,1c0.2,0.3,0.5,0.5,0.9,0.7c0.4,0.2,0.9,0.2,1.4,0.2
		c0.5,0,0.9-0.1,1.2-0.2c0.4-0.1,0.6-0.3,0.8-0.5c0.2-0.2,0.3-0.5,0.3-0.7c0-0.3-0.1-0.5-0.2-0.7c-0.2-0.2-0.4-0.4-0.8-0.5
		c-0.2-0.1-0.8-0.2-1.6-0.4c-0.8-0.2-1.4-0.4-1.7-0.5c-0.4-0.2-0.8-0.5-1-0.8c-0.2-0.3-0.3-0.7-0.3-1c0-0.4,0.1-0.8,0.4-1.2
		c0.3-0.4,0.6-0.6,1.1-0.8c0.5-0.2,1.1-0.3,1.7-0.3c0.7,0,1.3,0.1,1.8,0.3c0.5,0.2,0.9,0.5,1.2,0.9c0.3,0.4,0.4,0.8,0.4,1.3
		l-1.2,0.1c-0.1-0.5-0.3-0.9-0.6-1.2c-0.4-0.3-0.9-0.4-1.6-0.4c-0.7,0-1.3,0.1-1.6,0.4c-0.3,0.2-0.5,0.5-0.5,0.9
		c0,0.3,0.1,0.6,0.4,0.7c0.2,0.2,0.8,0.4,1.8,0.6c1,0.2,1.6,0.4,2,0.5c0.5,0.2,0.9,0.5,1.2,0.9c0.3,0.3,0.4,0.7,0.4,1.2
		c0,0.4-0.1,0.9-0.4,1.3c-0.3,0.4-0.7,0.7-1.2,0.9c-0.5,0.2-1.1,0.3-1.7,0.3c-0.8,0-1.5-0.1-2.1-0.3c-0.6-0.2-1-0.6-1.3-1
		C74.1,39.4,74,38.9,74,38.4 M65.9,41.1v-8.4h1.2v4.2l4.5-4.2h1.6l-3.8,3.4l4,5h-1.6l-3.2-4.3l-1.5,1.3v2.9H65.9z M56.9,37
		c0,1,0.3,1.8,0.9,2.4c0.6,0.6,1.3,0.9,2.2,0.9c0.9,0,1.6-0.3,2.2-0.9c0.6-0.6,0.9-1.4,0.9-2.5c0-0.7-0.1-1.3-0.4-1.8
		c-0.2-0.5-0.6-0.9-1.1-1.2c-0.5-0.3-1-0.4-1.6-0.4c-0.9,0-1.6,0.3-2.2,0.8C57.3,34.8,56.9,35.7,56.9,37z M55.7,37
		c0-1.4,0.4-2.5,1.2-3.3c0.8-0.8,1.9-1.2,3.1-1.2c0.8,0,1.6,0.2,2.3,0.6c0.7,0.4,1.2,0.9,1.5,1.6c0.4,0.7,0.5,1.4,0.5,2.3
		c0,0.9-0.2,1.6-0.6,2.3c-0.4,0.7-0.9,1.2-1.6,1.5c-0.7,0.3-1.4,0.5-2.2,0.5c-0.9,0-1.6-0.2-2.3-0.6c-0.7-0.4-1.2-0.9-1.5-1.6
		C55.9,38.4,55.7,37.7,55.7,37z"/>
	<path class="st3" d="M85.2,56.1v-8.4h1.1v7.4h4.3v1H85.2z M82.1,56.1v-8.4h1.1v8.4H82.1z M71.8,56.1v-8.4h1.7l2,5.9
		c0.2,0.6,0.3,1,0.4,1.2c0.1-0.3,0.3-0.8,0.5-1.3l2.1-5.8h1.5v8.4h-1.1v-7l-2.5,7h-1l-2.5-7.2v7.2H71.8z M63.3,52
		c0,1,0.3,1.8,0.8,2.4c0.6,0.6,1.3,0.9,2.1,0.9c0.9,0,1.6-0.3,2.1-0.9c0.6-0.6,0.8-1.4,0.8-2.5c0-0.7-0.1-1.3-0.4-1.8
		c-0.2-0.5-0.6-0.9-1-1.2c-0.5-0.3-1-0.4-1.5-0.4c-0.8,0-1.5,0.3-2.1,0.8C63.6,49.9,63.3,50.8,63.3,52z M62.1,52
		c0-1.4,0.4-2.5,1.2-3.3c0.8-0.8,1.8-1.2,3-1.2c0.8,0,1.5,0.2,2.2,0.6c0.6,0.4,1.1,0.9,1.5,1.6c0.3,0.7,0.5,1.4,0.5,2.3
		c0,0.9-0.2,1.6-0.5,2.3c-0.4,0.7-0.9,1.2-1.5,1.5c-0.7,0.3-1.4,0.5-2.1,0.5c-0.8,0-1.5-0.2-2.2-0.6c-0.6-0.4-1.1-0.9-1.5-1.6
		C62.2,53.4,62.1,52.7,62.1,52z M57.5,56.1v-7.4h-2.8v-1h6.9v1h-2.9v7.4H57.5z M46.8,53.4l1.1-0.1c0.1,0.4,0.2,0.8,0.4,1
		c0.2,0.3,0.5,0.5,0.9,0.7c0.4,0.2,0.8,0.2,1.3,0.2c0.4,0,0.8-0.1,1.2-0.2c0.3-0.1,0.6-0.3,0.7-0.5c0.2-0.2,0.2-0.5,0.2-0.7
		c0-0.3-0.1-0.5-0.2-0.7c-0.2-0.2-0.4-0.4-0.8-0.5c-0.2-0.1-0.7-0.2-1.5-0.4c-0.8-0.2-1.4-0.4-1.7-0.5c-0.4-0.2-0.7-0.5-0.9-0.8
		c-0.2-0.3-0.3-0.7-0.3-1c0-0.4,0.1-0.8,0.4-1.2c0.2-0.4,0.6-0.6,1.1-0.8c0.5-0.2,1-0.3,1.6-0.3c0.6,0,1.2,0.1,1.7,0.3
		c0.5,0.2,0.9,0.5,1.1,0.9c0.3,0.4,0.4,0.8,0.4,1.3l-1.1,0.1c-0.1-0.5-0.3-0.9-0.6-1.2c-0.3-0.3-0.8-0.4-1.5-0.4
		c-0.7,0-1.2,0.1-1.5,0.4c-0.3,0.2-0.5,0.5-0.5,0.9c0,0.3,0.1,0.6,0.3,0.7c0.2,0.2,0.8,0.4,1.7,0.6c0.9,0.2,1.6,0.4,1.9,0.5
		c0.5,0.2,0.9,0.5,1.1,0.9c0.2,0.3,0.4,0.7,0.4,1.2c0,0.4-0.1,0.9-0.4,1.3c-0.3,0.4-0.6,0.7-1.1,0.9c-0.5,0.2-1,0.3-1.7,0.3
		c-0.8,0-1.4-0.1-2-0.3c-0.5-0.2-0.9-0.6-1.2-1C47,54.5,46.8,54,46.8,53.4z"/>
	<path class="st3" d="M90.6,71.6v-8.4h1.3l4.9,6.6v-6.6H98v8.4h-1.3L91.8,65v6.6H90.6z M84.6,71.6V68l-3.6-4.8h1.5l1.8,2.5
		c0.3,0.5,0.7,0.9,0.9,1.4c0.3-0.4,0.6-0.9,1-1.5l1.8-2.5h1.4L85.8,68v3.6H84.6z M76.3,71.6v-7.4h-3.1v-1h7.4v1h-3.1v7.4H76.3z
		 M65.2,71.6v-1l4.8-5.4c0.3-0.4,0.7-0.7,1-1h-5.2v-1h6.7v1L67.2,70l-0.6,0.6h6v1H65.2z M56.8,68.9l1.2-0.1c0.1,0.4,0.2,0.8,0.4,1
		c0.2,0.3,0.5,0.5,0.9,0.7c0.4,0.2,0.9,0.2,1.4,0.2c0.5,0,0.9-0.1,1.3-0.2c0.4-0.1,0.6-0.3,0.8-0.5c0.2-0.2,0.3-0.5,0.3-0.7
		c0-0.3-0.1-0.5-0.3-0.7c-0.2-0.2-0.5-0.4-0.8-0.5c-0.3-0.1-0.8-0.2-1.7-0.4c-0.9-0.2-1.5-0.4-1.8-0.5c-0.4-0.2-0.8-0.5-1-0.8
		c-0.2-0.3-0.3-0.7-0.3-1c0-0.4,0.1-0.8,0.4-1.2c0.3-0.4,0.7-0.6,1.2-0.8c0.5-0.2,1.1-0.3,1.7-0.3c0.7,0,1.3,0.1,1.8,0.3
		c0.5,0.2,0.9,0.5,1.2,0.9c0.3,0.4,0.4,0.8,0.5,1.3l-1.2,0.1c-0.1-0.5-0.3-0.9-0.6-1.2c-0.4-0.3-0.9-0.4-1.6-0.4
		c-0.8,0-1.3,0.1-1.6,0.4c-0.3,0.2-0.5,0.5-0.5,0.9c0,0.3,0.1,0.6,0.4,0.7c0.2,0.2,0.9,0.4,1.9,0.6c1,0.2,1.7,0.4,2.1,0.5
		c0.5,0.2,0.9,0.5,1.2,0.9c0.3,0.3,0.4,0.7,0.4,1.2c0,0.4-0.1,0.9-0.4,1.3c-0.3,0.4-0.7,0.7-1.2,0.9c-0.5,0.2-1.1,0.3-1.8,0.3
		c-0.8,0-1.6-0.1-2.1-0.3c-0.6-0.2-1-0.6-1.3-1C57,70,56.8,69.5,56.8,68.9z M49.9,71.6v-8.4h1.2v7.4h4.6v1H49.9z M40.7,67.5
		c0,1,0.3,1.8,0.9,2.4c0.6,0.6,1.4,0.9,2.3,0.9c0.9,0,1.7-0.3,2.3-0.9c0.6-0.6,0.9-1.4,0.9-2.5c0-0.7-0.1-1.3-0.4-1.8
		c-0.3-0.5-0.6-0.9-1.1-1.2c-0.5-0.3-1.1-0.4-1.7-0.4c-0.9,0-1.6,0.3-2.3,0.8C41,65.3,40.7,66.3,40.7,67.5z M39.4,67.5
		c0-1.4,0.4-2.5,1.3-3.3c0.8-0.8,1.9-1.2,3.2-1.2c0.9,0,1.6,0.2,2.3,0.6c0.7,0.4,1.2,0.9,1.6,1.6c0.4,0.7,0.5,1.4,0.5,2.3
		c0,0.9-0.2,1.6-0.6,2.3c-0.4,0.7-0.9,1.2-1.6,1.5c-0.7,0.3-1.5,0.5-2.3,0.5c-0.9,0-1.7-0.2-2.4-0.6c-0.7-0.4-1.2-0.9-1.6-1.6
		C39.6,68.9,39.4,68.2,39.4,67.5z"/>
	<path class="st3" d="M77.8,82.8H66.7l-5.1,5.1l6.8,7.1c0,0,0.6,0.4,0.3,0.8c-0.3,0.4-0.8-0.2-0.8-0.2s-4.9-5.1-5.9-6.2
		c-1-1-2-0.9-2-0.9s-6.6,0-7.9,0c-1.2,0-1.4,1.5-1.4,1.5h7.1l8.6,9h6.4l1.8-2.3l-8-8.6l3-3.1h1.1l-3,3.1l7.6,7.8l2.3-2.7l-5.1-5.1
		L77.8,82.8L77.8,82.8z M59.9,90.6L59.9,90.6c-0.3,0-0.5-0.2-0.5-0.5c0-0.3,0.2-0.5,0.5-0.5c0.3,0,0.5,0.2,0.5,0.5
		C60.4,90.3,60.2,90.6,59.9,90.6L59.9,90.6z"/>
	<polygon class="st2" points="60.8,73.2 60.8,74.5 60.8,81.8 75.7,81.8 75.7,74.5 75.7,73.2 	"/>
	<rect x="78.6" y="57.7" class="st2" width="14.9" height="3.8"/>
	<path class="st2" d="M60.8,100.1v11.4v2.4v1.2c2.4,0.4,4.9,0.6,7.5,0.6c2.5,0,5-0.2,7.5-0.6v-1.2v-2.4v-11.4H60.8z"/>
	<path class="st2" d="M78.6,73.2v2.4v31.7v6.1v1.1c3.5-0.8,6.8-1.9,9.9-3.4c1.8-0.8,3.4-1.7,5-2.8c0,0,0,0,0.1,0v0v-0.9V80.9v-7.6
		H78.6z"/>
	<path class="st2" d="M43,73.2v6.8v13.4V104v0.8v2.7v0v0.8v0c0,0,0,0,0.1,0c1.5,1,3.2,2,4.9,2.7c3.1,1.5,6.5,2.7,10,3.5v-0.8v-0.3
		v-0.8v-7.9V104v-5.3v-0.8v-4.4v-1v-0.8l-0.6-0.6h-7.8l0.2-1.1c0.1-0.8,0.8-2.4,2.4-2.4h5.9v-0.4v-1.5V74.9v-1.6H43z"/>
	<path class="st1" d="M68.9,139c-6.2,0-12.4-0.7-18.5-1.9l-0.6-0.1l2.3-8.5l0.6,0.1c10.6,2.2,21.7,2.2,32.3,0l0.6-0.1L88,137
		l-0.6,0.1C81.3,138.4,75.1,139,68.9,139L68.9,139z M51.4,136.1c11.5,2.3,23.5,2.3,35,0l-1.7-6.3c-10.4,2.1-21.3,2.1-31.6,0
		L51.4,136.1L51.4,136.1z"/>
	<path class="st0" d="M87,136.4c-11.9,2.4-24.3,2.4-36.2,0c0.7-2.3,1.3-4.6,2-7c10.6,2.1,21.7,2.1,32.3,0
		C85.7,131.7,86.4,134.1,87,136.4z"/>
	<g>
		<path class="st1" d="M62.4,131.5c-0.3,1.8-0.6,3.6-0.9,5.4c-0.6-0.1-1.1-0.2-1.7-0.3c0.2-1.2,0.5-2.3,0.7-3.5
			c-0.3,0.1-0.6,0.2-0.8,0.3c-0.3,0.1-0.6,0.1-1,0.1c0.1-0.4,0.2-0.8,0.3-1.2c0.6,0,1-0.1,1.3-0.3c0.3-0.2,0.6-0.4,0.8-0.7
			C61.6,131.4,62,131.5,62.4,131.5z"/>
		<path class="st1" d="M63.6,136c0.6,0,1.1,0,1.7,0c0,0.2,0.1,0.4,0.2,0.5c0.1,0.1,0.2,0.1,0.4,0.2c0.3,0,0.5-0.1,0.6-0.3
			c0.1-0.2,0.2-0.5,0.3-1.1c-0.2,0.2-0.4,0.3-0.6,0.4c-0.2,0.1-0.5,0.1-0.7,0.1c-0.5,0-1-0.3-1.3-0.6c-0.3-0.4-0.4-0.8-0.4-1.3
			c0-0.4,0.2-0.7,0.4-0.9c0.2-0.3,0.5-0.5,0.8-0.6c0.3-0.1,0.7-0.2,1.1-0.1c0.5,0,1,0.1,1.3,0.3c0.3,0.2,0.6,0.5,0.8,0.9
			c0.2,0.4,0.3,0.9,0.3,1.6c0,1-0.2,1.7-0.7,2.1c-0.5,0.4-1.1,0.6-2,0.6c-0.5,0-0.9-0.1-1.1-0.2c-0.3-0.1-0.5-0.3-0.6-0.5
			C63.8,136.5,63.7,136.3,63.6,136z M66.8,133.9c0-0.3-0.1-0.5-0.2-0.7c-0.1-0.2-0.3-0.3-0.5-0.3c-0.2,0-0.4,0-0.5,0.2
			c-0.1,0.1-0.2,0.4-0.3,0.6c0,0.3,0,0.5,0.2,0.7c0.1,0.2,0.3,0.3,0.5,0.3c0.2,0,0.4,0,0.6-0.2C66.7,134.4,66.8,134.1,66.8,133.9z"
			/>
		<path class="st1" d="M71.9,136.4c-1,0.1-2,0.1-3,0.1c0-0.4,0-0.8,0-1.2c1-1.1,1.9-2.2,2.7-3.3c0.4,0,0.9-0.1,1.3-0.1
			c0.1,1.1,0.2,2.2,0.3,3.3c0.2,0,0.5,0,0.7-0.1c0,0.4,0.1,0.8,0.1,1.1c-0.2,0-0.5,0.1-0.7,0.1c0,0.3,0.1,0.7,0.1,1
			c-0.5,0-1,0.1-1.5,0.1C72,137.1,72,136.7,71.9,136.4z M71.9,135.3c0-0.6-0.1-1.1-0.1-1.7c-0.5,0.6-0.9,1.2-1.4,1.8
			C70.8,135.3,71.3,135.3,71.9,135.3z"/>
		<path class="st1" d="M74.7,131.7c1.2-0.2,2.4-0.4,3.5-0.7c0.1,0.4,0.2,0.8,0.3,1.2c-0.8,0.2-1.6,0.4-2.4,0.5c0,0.3,0,0.5,0,0.8
			c0.2-0.1,0.3-0.2,0.5-0.3c0.2-0.1,0.3-0.1,0.5-0.2c0.6-0.1,1,0,1.5,0.2c0.4,0.2,0.7,0.6,0.8,1.1c0.1,0.3,0.1,0.7,0,1
			c-0.1,0.4-0.3,0.7-0.7,0.9c-0.3,0.2-0.8,0.4-1.3,0.5c-0.4,0.1-0.7,0.1-1,0.1c-0.3,0-0.6-0.1-0.8-0.2c-0.2-0.1-0.4-0.2-0.5-0.4
			c-0.1-0.1-0.3-0.3-0.4-0.6c0.5-0.1,1.1-0.3,1.6-0.4c0.1,0.2,0.2,0.4,0.4,0.5c0.2,0.1,0.4,0.1,0.6,0.1c0.2,0,0.4-0.2,0.5-0.3
			c0.1-0.2,0.1-0.4,0.1-0.7c-0.1-0.3-0.2-0.5-0.4-0.6c-0.2-0.1-0.4-0.2-0.6-0.1c-0.2,0-0.3,0.1-0.4,0.2c-0.1,0.1-0.2,0.2-0.3,0.3
			c-0.5,0-0.9,0-1.4,0C74.6,133.7,74.7,132.7,74.7,131.7z"/>
	</g>
	<polygon class="st4" points="82.9,131.8 83.3,133.2 84.8,133.2 83.6,134.1 84,135.6 82.9,134.7 81.7,135.6 82.2,134.1 81,133.2 
		82.4,133.2 	"/>
	<polygon class="st4" points="54.8,131.6 55.2,133 56.7,133 55.5,133.9 56,135.4 54.8,134.5 53.6,135.4 54.1,133.9 52.9,133 
		54.4,133 	"/>
	<g>
		<path class="st4" d="M111.3,99.6l-1.4,4.3c13.4-1.3,9.5-12.3,10.1-19.6c0.2-3,0.2-3,0.2-3s-1.3,1-2.6,3c-1.3,2-1.3,2-1.3,2
			C117.4,91.6,117.5,97,111.3,99.6L111.3,99.6z"/>
		<path class="st4" d="M104.3,100.8c15.9-1,12.9-14.8,7.6-19.5c10-3.5,6.3-10.6,2.4-15.9c-1.5-2-2.1-2.7-2.1-2.7
			c-1.1,1.1-1.2,2.7-1.4,4c0,0.2-4-2.6-2.5-3.6c9.6-6.8,4-9,0.4-16.1c-0.4-0.8-0.4-0.9-0.4-0.9c-4,4.9,4.5,8.5-0.7,14.2
			c2.5-7.2-1.5-8.4-3.2-13.6c-0.2-0.7-0.1-0.7-0.1-0.7c10.1-4.3,6.7-6.9,8.7-12.1c0.9-2.2,0.8-2.2,0.8-2.2
			c-9.7,3.9-9.5,10.2-11.3,15.5c-0.1,0.3-1.8,4.3-1.4,6.7c0.4,2.4,1.9,3.9,2.9,5c1,1.1,2.1,2.4,1.9,3.6c-0.2,1.3-0.9,4.6-0.8,6
			c0.1,1.4,1.4,3.6,2.9,6c1.6,2.4,2.4,3.3,1.9,4.5c-0.6,1.2-0.9,2.2-0.4,3.4c2.2,4.8,1.3,14.9-4.8,17.7
			C103,100.9,104.3,100.8,104.3,100.8L104.3,100.8z M109.7,37.1c0,0-0.2,0.4-0.3,1.1c-0.5,1.9-1.3,3.3-3.2,4.5
			c-0.7,0.4-1,0.7-1.1,0.7c0,0,0.1-0.4,0.3-1.1c0.5-1.9,1.4-3.2,3.3-4.4C109.4,37.4,109.7,37.1,109.7,37.1L109.7,37.1z M104.3,51.2
			c0,0,0.2,0.4,0.7,1.1c1.3,1.8,1.8,3.5,1.4,5.6c-0.2,0.8-0.2,1.2-0.2,1.2c0,0-0.3-0.4-0.8-1.1c-1.4-1.8-1.7-3.5-1.3-5.6
			C104.3,51.7,104.3,51.2,104.3,51.2L104.3,51.2z M109.1,68.6c0,0,0.2,0.4,0.7,1.1c1.3,1.8,1.8,3.5,1.4,5.6
			c-0.2,0.8-0.2,1.2-0.2,1.2c0,0-0.3-0.4-0.8-1.1c-1.4-1.8-1.7-3.5-1.3-5.6C109.1,69.1,109.1,68.6,109.1,68.6L109.1,68.6z
			 M113.1,92.5c0,0-0.1,0.3-0.2,0.9c-0.2,1.5-0.9,2.6-2.3,3.6c-0.5,0.4-0.8,0.6-0.8,0.6c0,0,0.1-0.3,0.2-0.9c0.2-1.5,1-2.6,2.4-3.6
			C112.8,92.7,113.1,92.5,113.1,92.5L113.1,92.5z"/>
		<path class="st4" d="M70.7,126l-2.5-1.9v-1.1c0,0,3.9-1.5,6.9-2.9c10.6-4.8,19.1,0.9,20.7-4l-3.5-0.3c8.1-4.6,4.5-11.4,16.9-14.9
			c-0.2,2-0.9,3.9-1.7,5.7l5.1-3c1.2,8.8-10.5,16.8-18.9,16.3c2.2,0.8,4.4,1.5,7.1,1.3c3.9-0.2,3.9-0.3,3.9-0.3
			c-8.1,5.6-16.7,5.8-25.3,0.1c0,0-1.9-1.2-4.3-0.3c-2.5,0.9-6.1,2.7-6.1,2.7l3.7,2.1L70.7,126L70.7,126z M97.5,114.6
			c0.3-3.4,3.5-5.9,6.8-7.3C104.3,107.3,105.2,112.2,97.5,114.6L97.5,114.6z M83.1,120.9c1.9,2.2,6,2.7,8.7,1.5
			C91.8,122.4,89.9,120.5,83.1,120.9L83.1,120.9z"/>
	</g>
	<g>
		<path class="st4" d="M25.3,99.6l1.4,4.3c-13.4-1.3-9.5-12.3-10.1-19.6c-0.2-3-0.2-3-0.2-3s1.3,1,2.6,3c1.3,2,1.3,2,1.3,2
			C19.1,91.6,19,97,25.3,99.6L25.3,99.6z"/>
		<path class="st4" d="M32.2,100.8c0,0,1.3,0.1-0.5-0.7c-6.1-2.8-7-12.9-4.8-17.7c0.5-1.1,0.2-2.2-0.4-3.4c-0.6-1.2,0.3-2.1,1.9-4.5
			c1.6-2.4,2.8-4.6,2.9-6c0.1-1.4-0.6-4.7-0.8-6c-0.2-1.3,0.8-2.5,1.9-3.6c1-1.1,2.5-2.6,2.9-5c0.4-2.4-1.3-6.5-1.4-6.7
			c-1.8-5.3-1.5-11.6-11.3-15.5c0,0-0.1,0,0.8,2.2C25.5,39,22,41.7,32.1,46c0,0,0.1,0-0.1,0.7c-1.7,5.3-5.7,6.4-3.2,13.6
			c-5.1-5.7,3.3-9.3-0.7-14.2c0,0,0.1,0-0.4,0.9c-3.6,7.1-9.3,9.3,0.4,16.1c1.4,1-2.5,3.8-2.5,3.6c-0.2-1.3-0.4-3-1.5-4
			c0,0-0.6,0.7-2,2.7c-3.9,5.3-7.6,12.4,2.4,15.9C19.3,85.9,16.3,99.8,32.2,100.8L32.2,100.8z M26.8,37.1c0,0,0.4,0.3,1,0.7
			c1.9,1.2,2.9,2.5,3.3,4.4c0.2,0.7,0.3,1.1,0.3,1.1c0,0-0.4-0.3-1.1-0.7c-1.9-1.2-2.8-2.5-3.2-4.5C27,37.5,26.8,37.1,26.8,37.1
			L26.8,37.1z M32.2,51.2c0,0,0,0.5,0.2,1.2c0.5,2.1,0.1,3.8-1.3,5.6c-0.5,0.7-0.7,1.1-0.8,1.1c0,0-0.1-0.5-0.2-1.2
			c-0.5-2.1,0-3.8,1.4-5.6C32,51.6,32.2,51.2,32.2,51.2L32.2,51.2z M27.5,68.6c0,0,0,0.5,0.2,1.2c0.5,2.1,0.1,3.8-1.3,5.6
			c-0.5,0.7-0.7,1.1-0.8,1.1c0,0-0.1-0.5-0.2-1.2c-0.5-2.1,0-3.8,1.4-5.6C27.3,69.1,27.5,68.6,27.5,68.6L27.5,68.6z M23.5,92.5
			c0,0,0.3,0.3,0.8,0.6c1.4,1,2.1,2.1,2.4,3.6c0.1,0.6,0.2,0.9,0.2,0.9c0,0-0.3-0.2-0.8-0.6c-1.4-1-2-2.1-2.3-3.6
			C23.6,92.8,23.5,92.5,23.5,92.5L23.5,92.5z"/>
		<path class="st4" d="M65.8,126l-2-0.4l3.7-2.1c0,0-3.6-1.8-6.1-2.7c-2.5-0.9-4.3,0.3-4.3,0.3c-8.6,5.7-17.2,5.5-25.3-0.1
			c0,0,0,0.1,3.9,0.3c2.7,0.2,4.9-0.5,7.1-1.3c-8.5,0.5-20.2-7.5-18.9-16.3l5.1,3c-0.8-1.8-1.4-3.8-1.7-5.7
			c12.4,3.4,8.8,10.3,16.9,14.9l-3.5,0.3c1.5,4.9,10.1-0.8,20.7,4c3,1.4,6.9,2.9,6.9,2.9v1.1L65.8,126L65.8,126z M39.1,114.6
			c-7.7-2.4-6.8-7.3-6.8-7.3C35.6,108.7,38.8,111.2,39.1,114.6L39.1,114.6z M53.5,120.9c-6.8-0.4-8.7,1.5-8.7,1.5
			C47.5,123.6,51.6,123.1,53.5,120.9L53.5,120.9z"/>
	</g>
</g>
</svg>
