<?xml version="1.0" encoding="utf-8"?>
<!-- Generator: Adobe Illustrator 19.1.0, SVG Export Plug-In . SVG Version: 6.00 Build 0)  -->
<svg version="1.1" id="Layer_1" xmlns="http://www.w3.org/2000/svg" xmlns:xlink="http://www.w3.org/1999/xlink" x="0px" y="0px"
	 viewBox="0 0 664.7 439.4" style="enable-background:new 0 0 664.7 439.4;" xml:space="preserve">
<style type="text/css">
	.st0{fill-rule:evenodd;clip-rule:evenodd;}
	.st1{fill-rule:evenodd;clip-rule:evenodd;fill:#D2AB67;}
	.st2{fill-rule:evenodd;clip-rule:evenodd;fill:#FFFFFF;}
	.st3{fill-rule:evenodd;clip-rule:evenodd;fill:#005B9E;}
	.st4{fill-rule:evenodd;clip-rule:evenodd;fill:#1B5B9C;}
</style>
<g>
	<polygon class="st0" points="212.1,93.6 212.3,35.5 286,35.8 285.8,93.9 379.1,94.1 379.3,36 452.5,36.3 452.4,93.9 643.1,94.5 
		331.1,408.8 21.4,93.1 212.1,93.6 	"/>
	<polygon class="st1" points="331.1,405.2 637.1,97 449.8,96.5 450,38.8 381.8,38.6 381.6,96.7 283.3,96.4 283.5,38.3 214.8,38.1 
		214.6,96.2 27.4,95.6 331.1,405.2 	"/>
	<path class="st2" d="M328.3,302.9l-84-0.3c-1.7,0.1-3.7-0.2-5.7-0.9l89.7,91.4L328.3,302.9L328.3,302.9z M42.3,101.8l171.7,0.5
		l-0.5,169.6c0.1,2,0.5,4,1.3,5.8L42.3,101.8L42.3,101.8z M283.4,102.5l45.4,0.1l-0.4,131.7l-33.5-0.1c-6.7,0.2-11.5-2.4-11.8-11.2
		L283.4,102.5L283.4,102.5z"/>
	<path class="st3" d="M334.9,303l84,0.3c1.7,0.1,3.7-0.2,5.8-0.8l-90.2,90.9L334.9,303L334.9,303z M621.4,103.5L449.8,103
		l-0.5,169.6c-0.1,2-0.5,4-1.4,5.8L621.4,103.5L621.4,103.5z M381.3,102.8l-45.4-0.1l-0.4,131.7l33.5,0.1
		c6.7,0.2,11.5-2.3,11.9-11.1L381.3,102.8L381.3,102.8z"/>
	<path class="st0" d="M221.2,44.5l55.6,0.2l-0.5,177.8c0.1,11,4.3,18.6,17.7,18.4l75.2,0.2c10.7-0.2,18.1-4.2,18.4-16.5L388.1,45
		l55.6,0.2L443,269.1c0,16.8-7.3,27.4-26.1,27.7l-171.7-0.5c-13.3-0.3-24.8-11.2-24.8-27.2L221.2,44.5L221.2,44.5z"/>
	<path class="st2" d="M395.9,202.2c0-3.9,1.1-7.6,3.1-11c2.1-3.4,4.9-5.9,8.4-7.7c3-1.5,6.1-2.3,9.5-2.2c3.9,0,7.6,1.1,10.9,3.1
		c3.4,2.1,5.9,4.9,7.7,8.4c1.5,3,2.3,6.2,2.3,9.5c0,4-1,7.7-3.1,11c-2,3.4-4.8,5.9-8.3,7.7c-3,1.5-6.2,2.3-9.7,2.3
		c-3.7,0-7.3-1-10.7-3.1c-3.3-2-5.9-4.8-7.7-8.4C396.7,208.9,396,205.7,395.9,202.2L395.9,202.2z M402.9,202.2c0,3.7,1.3,6.9,4,9.6
		c1.3,1.3,2.8,2.2,4.5,3c1.7,0.7,3.5,1.1,5.2,1.1c4,0,7.3-1.3,10.1-4c2.7-2.6,4-5.8,4.1-9.6c0-3.7-1.3-6.9-4-9.5c-2.7-2.7-6-4-9.9-4
		c-1.9,0-3.7,0.3-5.4,1c-1.8,0.7-3.3,1.7-4.5,3C404.3,195.4,402.9,198.5,402.9,202.2L402.9,202.2z M410.4,286.1l-28.3-28.5l6-6
		l32.5,8.9L400,239.8l5.3-5.3l28.3,28.5l-5.9,5.9l-32.6-8.8l20.6,20.7L410.4,286.1L410.4,286.1z M297.2,278.6l7.8,0
		c0,1.6,0.5,3,1.5,3.9c1,1,2.3,1.5,4,1.5c1.6,0,2.9-0.5,3.9-1.4c1-1,1.5-2.2,1.5-3.6c0-1.4-0.4-2.6-1.2-3.5
		c-0.8-0.9-2.2-1.7-4.2-2.4c-2.9-1-4.8-1.8-5.8-2.3c-1-0.5-1.8-1.2-2.7-2c-2.3-2.2-3.4-4.9-3.4-8.2c0-3,1.1-5.6,3.2-7.8
		c2.4-2.4,5.2-3.6,8.6-3.6c1.8,0,3.5,0.4,5.1,1.2c1.6,0.8,3,1.8,4.2,3.2c1.6,1.9,2.4,4.3,2.6,7.1l-7.7,0c-0.1-1.4-0.6-2.5-1.3-3.3
		c-0.8-0.8-1.8-1.2-3.1-1.2c-1.3,0-2.3,0.4-3,1.1c-0.8,0.7-1.1,1.7-1.1,3c0,1.3,0.5,2.4,1.5,3.3c0.8,0.6,2.5,1.4,5.2,2.4
		c3.1,1.1,5.4,2.3,6.9,3.7c2.4,2.3,3.6,5.1,3.6,8.5c0,3.6-1.2,6.6-3.7,9.1c-2.7,2.6-5.8,3.9-9.4,3.9c-2,0-4-0.5-5.8-1.3
		c-1.9-0.9-3.4-2.1-4.6-3.6C298.2,283.9,297.3,281.4,297.2,278.6L297.2,278.6z M343.2,284.2l15.5-27.1l-14.6,0l0-6.9l23.2,0.1l0,6.4
		L352,283.3l16.3,0l0,6.9l-25.1-0.1L343.2,284.2L343.2,284.2z M234.8,265.6l28.5-28.3l15.3,15.3l-4.9,4.9l-10-10.1l-7,6.9l9.6,9.6
		l-4.9,4.9l-9.6-9.6L245,266l10,10.1l-4.9,4.9L234.8,265.6L234.8,265.6z M229.2,190.6l40.2,0.1l0,7.4l-33.2-0.1l0,12.2l-6.9,0
		L229.2,190.6L229.2,190.6z"/>
	<polygon class="st4" points="90.6,104 90.5,146.1 101.4,157 101.4,145.5 109.1,143.1 209.1,245.5 209.2,228.3 121.9,139.4 
		209.6,113.3 209.6,104.7 201.8,104.6 101.7,134.3 101.7,104.1 90.6,104 	"/>
	<path class="st2" d="M466.2,183.4l-0.2,46.1c0,8.6,4.1,8.2,8.7,2.4l40.9-40.6c2.9-2.8,2.7-7.1-0.4-9.7l-51.9-41.6
		c-9.6-8.4-10.7-35,10.1-35.3l88.4,0.3c8.6,0,12.6,4,12.5,12.1l-0.1,23.7l-11,0l0-17.4c-0.1-5.6-2.3-7.7-7.6-7.7l-72.4-0.2
		c-19.7-1-15.7,13.9-8.1,19.8l51.7,42.2c4.1,5.9,5.6,12.2-0.1,18.2l-53.7,53.5c-6.8,6.3-18.2,1.3-18.3-6.3l0.2-59.4L466.2,183.4
		L466.2,183.4z"/>
	<path class="st0" d="M492.8,46.4h1.5c2.1,0,3.4-0.1,3.9-0.2c0.5-0.2,0.9-0.4,1.2-0.8c0.3-0.4,0.4-0.9,0.4-1.4
		c0-0.5-0.1-0.9-0.4-1.3c-0.3-0.4-0.7-0.7-1.2-0.8c-0.5-0.2-1.8-0.3-3.9-0.3l-1.5,0V46.4L492.8,46.4z M489.1,56.6V38.7h3.6
		c3.4,0,5.3,0,5.7,0c1.2,0.1,2.1,0.3,2.8,0.7c0.7,0.4,1.2,0.9,1.7,1.7c0.5,0.8,0.7,1.6,0.7,2.6c0,1.3-0.4,2.4-1.3,3.3
		c-0.8,0.9-2,1.5-3.5,1.7c0.5,0.2,1,0.4,1.3,0.7c0.3,0.2,0.7,0.7,1.2,1.4c0.1,0.2,0.6,0.9,1.3,2.2l2.1,3.6h-4.5l-1.5-2.9
		c-1-2-1.8-3.2-2.5-3.7c-0.7-0.5-1.5-0.8-2.5-0.8h-0.9v7.3H489.1L489.1,56.6z M496.6,34.8c-2.2,0-4.3,0.5-6.3,1.6
		c-2,1.1-3.6,2.7-4.7,4.7c-1.2,2-1.7,4.2-1.7,6.4c0,2.2,0.6,4.4,1.7,6.4c1.1,2,2.7,3.6,4.7,4.7c2,1.1,4.1,1.7,6.4,1.7
		c2.2,0,4.3-0.6,6.4-1.7c2-1.1,3.6-2.7,4.7-4.7c1.1-2,1.7-4.1,1.7-6.4c0-2.2-0.6-4.4-1.7-6.4c-1.2-2-2.7-3.6-4.8-4.7
		C500.8,35.4,498.7,34.8,496.6,34.8L496.6,34.8z M496.5,31.7c2.7,0,5.3,0.7,7.8,2c2.5,1.4,4.5,3.3,5.9,5.9c1.4,2.5,2.1,5.2,2.1,8
		c0,2.8-0.7,5.4-2.1,7.9c-1.4,2.5-3.4,4.5-5.9,5.9c-2.5,1.4-5.1,2.1-7.9,2.1c-2.8,0-5.4-0.7-7.9-2.1c-2.5-1.4-4.5-3.4-5.9-5.9
		c-1.4-2.5-2.1-5.1-2.1-7.9c0-2.8,0.7-5.4,2.1-8c1.4-2.5,3.4-4.5,5.9-5.9C491.2,32.4,493.8,31.7,496.5,31.7L496.5,31.7z"/>
</g>
</svg>
