<?xml version="1.0" encoding="utf-8"?>
<!-- Generator: Adobe Illustrator 19.2.1, SVG Export Plug-In . SVG Version: 6.00 Build 0)  -->
<svg version="1.1" id="Layer_1" xmlns="http://www.w3.org/2000/svg" xmlns:xlink="http://www.w3.org/1999/xlink" x="0px" y="0px"
	 viewBox="0 0 78 78" style="enable-background:new 0 0 78 78;" xml:space="preserve">
<style type="text/css">
	.st0{fill:#FFFFFF;stroke:#666666;stroke-width:0.75;stroke-miterlimit:10;}
	.st1{fill:#FFFFFF;stroke:#C31A61;stroke-width:0.75;stroke-linecap:round;stroke-miterlimit:10;}
	.st2{fill:#FFFFFF;stroke:#C31A61;stroke-miterlimit:10;}
</style>
<path class="st0" d="M67.2,70H10.8C9.2,70,8,68.8,8,67.2V10.8C8,9.2,9.2,8,10.8,8h56.4c1.6,0,2.8,1.3,2.8,2.8v56.4
	C70,68.8,68.8,70,67.2,70z"/>
<g>
	<path class="st0" d="M33.5,27.2H15.9c-1.6,0-2.8-1.3-2.8-2.8v-7.9c0-1.6,1.3-2.8,2.8-2.8h17.6c1.6,0,2.8,1.3,2.8,2.8v7.9
		C36.3,25.9,35,27.2,33.5,27.2z"/>
	<path class="st0" d="M62.1,45.8H15.9c-1.6,0-2.8-1.3-2.8-2.8V35c0-1.6,1.3-2.8,2.8-2.8h46.2c1.6,0,2.8,1.3,2.8,2.8V43
		C64.9,44.5,63.7,45.8,62.1,45.8z"/>
	<path class="st0" d="M43.7,64.4H15.9c-1.6,0-2.8-1.3-2.8-2.8v-7.9c0-1.6,1.3-2.8,2.8-2.8h27.8c1.6,0,2.8,1.3,2.8,2.8v7.9
		C46.6,63.1,45.3,64.4,43.7,64.4z"/>
	<path class="st0" d="M62.1,64.4H53c-1.6,0-2.8-1.3-2.8-2.8v-7.9c0-1.6,1.3-2.8,2.8-2.8h9.1c1.6,0,2.8,1.3,2.8,2.8v7.9
		C64.9,63.1,63.7,64.4,62.1,64.4z"/>
	<path class="st0" d="M62.1,27.2H43.9c-1.6,0-2.8-1.3-2.8-2.8v-7.9c0-1.6,1.3-2.8,2.8-2.8h18.2c1.6,0,2.8,1.3,2.8,2.8v7.9
		C64.9,25.9,63.7,27.2,62.1,27.2z"/>
</g>
<g>
	<line class="st1" x1="15.9" y1="39" x2="60.8" y2="39"/>
	<line class="st1" x1="15.9" y1="39" x2="18.2" y2="36.6"/>
	<line class="st1" x1="15.9" y1="39" x2="18.2" y2="41.4"/>
	<line class="st1" x1="60.8" y1="39" x2="58.4" y2="36.6"/>
	<line class="st1" x1="60.8" y1="39" x2="58.4" y2="41.4"/>
</g>
<g>
	<line class="st1" x1="17.2" y1="57.6" x2="42.4" y2="57.6"/>
	<g>
		<line class="st1" x1="16.2" y1="57.6" x2="18.6" y2="55.2"/>
		<line class="st1" x1="16.2" y1="57.6" x2="18.6" y2="60"/>
	</g>
	<g>
		<line class="st1" x1="43.4" y1="57.6" x2="41" y2="55.2"/>
		<line class="st1" x1="43.4" y1="57.6" x2="41" y2="60"/>
	</g>
</g>
<g>
	<line class="st1" x1="16.4" y1="24.3" x2="32.6" y2="16.6"/>
	<line class="st1" x1="16.4" y1="16.6" x2="32.6" y2="24.3"/>
</g>
<g>
	<line class="st1" x1="53" y1="54.6" x2="61.8" y2="54.6"/>
	<line class="st1" x1="53" y1="57.6" x2="61.8" y2="57.6"/>
	<line class="st1" x1="53" y1="60.9" x2="57.6" y2="60.9"/>
</g>
</svg>
