<?xml version="1.0" encoding="utf-8"?>
<!-- Generator: Adobe Illustrator 19.2.1, SVG Export Plug-In . SVG Version: 6.00 Build 0)  -->
<svg version="1.1" id="Layer_1" xmlns="http://www.w3.org/2000/svg" xmlns:xlink="http://www.w3.org/1999/xlink" x="0px" y="0px"
	 viewBox="0 0 78 78" style="enable-background:new 0 0 78 78;" xml:space="preserve">
<style type="text/css">
	.st0{fill:#333F4F;}
</style>
<path class="st0" d="M72,4.5H6c-3.3,0-6,2.7-6,6v45c0,3.3,2.7,6,6,6h66c3.3,0,6-2.7,6-6v-45C78,7.2,75.3,4.5,72,4.5z M72,50.5H6v-40
	h66V50.5z M52.5,67.5h-27c-1.7,0-3,1.3-3,3v3h33v-3C55.5,68.8,54.2,67.5,52.5,67.5z"/>
<path class="st0" d="M45,28.1v-1.3c0-3.3-2.7-6-6-6s-6,2.7-6,6v1.3c0,3.3,2.7,6,6,6S45,31.4,45,28.1z M39,13.3
	c-9.5,0-17.2,7.7-17.2,17.2c0,5,2.1,9.5,5.5,12.6c3.1,2.8,6.9,4.4,10.7,4.6l-2.6-2.5l2.6-6L35.3,37l-7.7,2.5c-2-2.5-3.1-5.6-3.1-9
	C24.4,22.5,31,16,39,16s14.6,6.5,14.6,14.6c0,3.4-1.2,6.5-3.1,9L42.7,37l-2.8,2.3l2.6,6L40,47.7c4-0.2,7.8-1.8,10.7-4.6
	c3.4-3.1,5.5-7.6,5.5-12.6C56.2,21,48.5,13.3,39,13.3z"/>
</svg>
