<?xml version="1.0" encoding="utf-8"?>
<!-- Generator: Adobe Illustrator 19.2.1, SVG Export Plug-In . SVG Version: 6.00 Build 0)  -->
<svg version="1.1" id="Layer_1" xmlns="http://www.w3.org/2000/svg" xmlns:xlink="http://www.w3.org/1999/xlink" x="0px" y="0px"
	 viewBox="0 0 78 78" style="enable-background:new 0 0 78 78;" xml:space="preserve">
<style type="text/css">
	.st0{fill:#FFFFFF;stroke:#666666;stroke-width:0.75;stroke-miterlimit:10;}
	.st1{fill:#FFFFFF;stroke:#C31A61;stroke-width:0.75;stroke-linecap:round;stroke-miterlimit:10;}
	.st2{fill:#067DD6;}
	.st3{opacity:0.2;fill:#231F20;enable-background:new    ;}
	.st4{fill:#353530;}
	.st5{fill:#5E5E5E;}
	.st6{fill:#F6F7D5;}
	.st7{fill:#E69C24;}
	.st8{fill-opacity:0.16;}
	.st9{fill:#01282A;}
</style>
<g>
	<g id="Seat">
		<path id="Seatt" class="st2" d="M13.6,10.9c0.2-0.1,0.4-0.2,0.6-0.2c0.2,0,0.6-1.5,0.6-1.8c0-0.6-0.3-0.6-0.9-0.8
			c-0.9-0.3-6.9-0.3-8.1,0C5.6,8.1,5,8.3,5.2,8.9c0.1,0.3,0.5,1.8,0.6,1.8c0.2,0,0.4,0.1,0.6,0.2c-0.5,0.2-0.9,0.4-0.9,0.8v4.8
			c0,1.8,1.5,1.7,2.4,1.8s1.4,0.2,2,0.2c0.7,0,1.4-0.1,2.1-0.2c0.7-0.1,2.5,0.1,2.5-1.8v-4.8C14.5,11.3,14.2,11.1,13.6,10.9z"/>
		<path id="ShadowSeat" class="st3" d="M14.3,10.7c0.2,0,0.6-1.5,0.6-1.8c0-0.6-0.3-0.6-0.9-0.8c-0.9-0.3-6.9-0.3-8.1,0
			C5.6,8.1,5,8.3,5.2,8.9c0.1,0.3,0.5,1.8,0.6,1.8c0.2,0,0.4,0.1,0.6,0.2h7.3C13.9,10.8,14.1,10.7,14.3,10.7z"/>
	</g>
	<g id="BaseBody">
		<path id="r_foot" class="st4" d="M10.7,19c0,0.3,0,1.1,1.2,1.1s1.2-1.1,1.2-1.4C12.7,19,10.6,19,10.7,19z"/>
		<path id="r_foot-2" class="st4" d="M9.2,19c0,0.3,0,1.1-1.2,1.1S6.8,19,6.8,18.7C7.2,19,9.2,19,9.2,19z"/>
		<path id="pants_inline" class="st4" d="M9.4,15.6l0.1,3.3l0,0c0.2-0.1,0.3-0.2,0.4-0.3c0.2,0.2,0.4,0.4,0.6,0.5v-3.4
			C10.3,14.7,9.5,14.7,9.4,15.6z"/>
		<path id="pants" class="st5" d="M13.1,14.2c0,0-6.2,0-6.4,0C5.9,14.2,6,15,6.4,18c0.1,1,0.5,1.3,1.8,1.3s1.2-0.4,1.3-0.4l-0.1-3.3
			c0.1-0.8,1-0.8,1.1,0V19c0.1,0,0.2,0.3,1.4,0.3s1.5-0.4,1.6-1.3C13.7,15.5,13.8,14.4,13.1,14.2z"/>
		<path id="r_hand" class="st6" d="M5.3,14.2c0,1.2,0.8,1.8,1.5,1.2C7,15.1,6.1,15,6.2,14.6c0.1,0.1,0.2,0.1,0.4,0.1
			c0.2-0.1,0.1-0.4,0.1-0.4C6.2,14.1,5.7,14.1,5.3,14.2z"/>
		<path id="l_hand" class="st6" d="M13.3,14.2c-0.1,0-0.2,0-0.3,0.1C13,14.4,13,14.5,13,14.7c0,0.2,0.2,0.1,0.2,0.1s0.2-0.2,0.2-0.2
			c0,0.1,0.1,0.2,0.1,0.3c-0.1,0.2-0.1,0.5-0.2,0.7c0,0.1,0.1,0.2,0.4,0.2c0.3,0,0.6-0.2,0.7-0.4c0.1-0.2,0.2-0.4,0.2-0.6l0,0
			C14.3,14.3,13.8,14.1,13.3,14.2z"/>
	</g>
	<path id="Short" class="st7" d="M7.9,7.7C7.1,8,6.4,8.5,5.9,9.1C5.5,9.9,5.2,10.7,5,11.5c0,0.4,0.2,2.7,0.3,2.7
		c0.5-0.1,1-0.1,1.4,0c1,0.3,2.1,0.4,3.1,0.5c1.2,0,2.4-0.2,3.6-0.5c0.5-0.1,1,0.1,1.3,0.5c0,0,0.2-2,0.2-2.6c0-0.6-0.6-2.6-0.7-3
		c-0.4-0.7-2-1.4-2.3-1.4L7.9,7.7z"/>
	<path id="shadow" class="st8" d="M7.1,11.2c0,0,0.8,1.3,3.1,1.4c2.3,0.2,2.7-0.7,2.7-0.7c0,0.6,0.2,2.3,0.2,2.3
		c-1.1,0.3-2.3,0.5-3.5,0.5c-1-0.1-2-0.2-3-0.5C6.5,13.2,6.7,12.2,7.1,11.2z"/>
	<path class="st6" d="M11.6,8.3c0,0.4-0.5,2.6-1.7,2.6S8.5,9.6,8.3,9S11.7,7.9,11.6,8.3z"/>
	<path class="st9" d="M9.9,5.7c-3,0-1.8,3.3-1.7,3.3s0.5-0.4,0.9-0.5C9.4,8.7,9.6,8.8,9.8,9c0.2-0.3,0.5-0.4,0.9-0.3
		c0.1-0.2,0.2-0.4,0.3-0.5c0.3-0.1,0.6,0.2,0.7,0.2S12.7,5.7,9.9,5.7z"/>
</g>
<g>
	<g id="Seat_1_">
		<path id="Seatt_1_" class="st2" d="M25.1,10.9c0.2-0.1,0.4-0.2,0.6-0.2c0.2,0,0.6-1.5,0.6-1.8c0-0.6-0.3-0.6-0.9-0.8
			c-0.9-0.3-6.9-0.3-8.1,0c-0.2,0.1-0.9,0.2-0.7,0.8c0.1,0.3,0.5,1.8,0.6,1.8c0.2,0,0.4,0.1,0.6,0.2c-0.5,0.2-0.9,0.4-0.9,0.8v4.8
			c0,1.8,1.5,1.7,2.4,1.8c0.9,0.1,1.4,0.2,2,0.2c0.7,0,1.4-0.1,2.1-0.2c0.7-0.1,2.5,0.1,2.5-1.8v-4.8C26,11.3,25.6,11.1,25.1,10.9z"
			/>
		<path id="ShadowSeat_1_" class="st3" d="M25.7,10.7c0.2,0,0.6-1.5,0.6-1.8c0-0.6-0.3-0.6-0.9-0.8c-0.9-0.3-6.9-0.3-8.1,0
			c-0.2,0.1-0.9,0.2-0.7,0.8c0.1,0.3,0.5,1.8,0.6,1.8c0.2,0,0.4,0.1,0.6,0.2h7.3C25.3,10.8,25.5,10.7,25.7,10.7z"/>
	</g>
	<g id="BaseBody_1_">
		<path id="r_foot_1_" class="st4" d="M22.1,19c0,0.3,0,1.1,1.2,1.1c1.2,0,1.2-1.1,1.2-1.4C24.2,19,22.1,19,22.1,19z"/>
		<path id="r_foot-2_1_" class="st4" d="M20.7,19c0,0.3,0,1.1-1.2,1.1c-1.2,0-1.2-1.1-1.2-1.4C18.6,19,20.7,19,20.7,19z"/>
		<path id="pants_inline_1_" class="st4" d="M20.8,15.6l0.1,3.3l0,0c0.2-0.1,0.3-0.2,0.4-0.3c0.2,0.2,0.4,0.4,0.6,0.5v-3.4
			C21.8,14.7,21,14.7,20.8,15.6z"/>
		<path id="pants_1_" class="st5" d="M24.5,14.2c0,0-6.2,0-6.4,0c-0.7,0-0.7,0.7-0.3,3.7c0.1,1,0.5,1.3,1.8,1.3s1.2-0.4,1.3-0.4
			l-0.1-3.3c0.1-0.8,1-0.8,1.1,0V19c0.1,0,0.2,0.3,1.4,0.3c1.2,0,1.5-0.4,1.6-1.3C25.1,15.5,25.2,14.4,24.5,14.2z"/>
		<path id="r_hand_1_" class="st6" d="M16.7,14.2c0,1.2,0.8,1.8,1.5,1.2c0.3-0.3-0.6-0.4-0.5-0.8c0.1,0.1,0.2,0.1,0.4,0.1
			c0.2-0.1,0.1-0.4,0.1-0.4C17.6,14.1,17.1,14.1,16.7,14.2z"/>
		<path id="l_hand_1_" class="st6" d="M24.8,14.2c-0.1,0-0.2,0-0.3,0.1c-0.1,0.1-0.1,0.3-0.1,0.4c0,0.2,0.2,0.1,0.2,0.1
			c0,0,0.2-0.2,0.2-0.2c0,0.1,0.1,0.2,0.1,0.3c-0.1,0.2-0.1,0.5-0.2,0.7c0,0.1,0.1,0.2,0.4,0.2c0.3,0,0.6-0.2,0.7-0.4
			c0.1-0.2,0.2-0.4,0.2-0.6l0,0C25.7,14.3,25.3,14.1,24.8,14.2z"/>
	</g>
	<path id="Short_1_" class="st7" d="M19.3,7.7c-0.8,0.3-1.5,0.7-2,1.4c-0.4,0.8-0.7,1.6-0.9,2.4c0,0.4,0.2,2.7,0.3,2.7
		c0.5-0.1,1-0.1,1.4,0c1,0.3,2.1,0.4,3.1,0.5c1.2,0,2.4-0.2,3.6-0.5c0.5-0.1,1,0.1,1.3,0.5c0,0,0.2-2,0.2-2.6c0-0.6-0.6-2.6-0.7-3
		c-0.4-0.7-2-1.4-2.3-1.4L19.3,7.7z"/>
	<path id="shadow_1_" class="st8" d="M18.5,11.2c0,0,0.8,1.3,3.1,1.4c2.3,0.2,2.7-0.7,2.7-0.7c0,0.6,0.2,2.3,0.2,2.3
		c-1.1,0.3-2.3,0.5-3.5,0.5c-1-0.1-2-0.2-3-0.5C18,13.2,18.1,12.2,18.5,11.2z"/>
	<path class="st6" d="M23.1,8.3c0,0.4-0.5,2.6-1.7,2.6S19.9,9.6,19.7,9C19.5,8.4,23.1,7.9,23.1,8.3z"/>
	<path class="st9" d="M21.3,5.7c-3,0-1.8,3.3-1.7,3.3c0.1,0,0.5-0.4,0.9-0.5c0.3,0.1,0.5,0.3,0.7,0.5c0.2-0.3,0.5-0.4,0.9-0.3
		c0.1-0.2,0.2-0.4,0.3-0.5c0.3-0.1,0.6,0.2,0.7,0.2C23.2,8.3,24.1,5.7,21.3,5.7z"/>
</g>
<g>
	<g id="Seat_2_">
		<path id="Seatt_2_" class="st2" d="M36.5,10.9c0.2-0.1,0.4-0.2,0.6-0.2c0.2,0,0.6-1.5,0.6-1.8c0-0.6-0.3-0.6-0.9-0.8
			C36,7.8,30,7.7,28.8,8c-0.2,0.1-0.9,0.2-0.7,0.8c0.1,0.3,0.5,1.8,0.6,1.8c0.2,0,0.4,0.1,0.6,0.2c-0.5,0.2-0.9,0.4-0.9,0.8v4.8
			c0,1.8,1.5,1.7,2.4,1.8s1.4,0.2,2,0.2c0.7,0,1.4-0.1,2.1-0.2c0.7-0.1,2.5,0.1,2.5-1.8v-4.8C37.4,11.3,37,11.1,36.5,10.9z"/>
		<path id="ShadowSeat_2_" class="st3" d="M37.2,10.7c0.2,0,0.6-1.5,0.6-1.8c0-0.6-0.3-0.6-0.9-0.8C36,7.8,30,7.7,28.8,8
			c-0.2,0.1-0.9,0.2-0.7,0.8c0.1,0.3,0.5,1.8,0.6,1.8c0.2,0,0.4,0.1,0.6,0.2h7.3C36.8,10.8,37,10.7,37.2,10.7z"/>
	</g>
	<g id="BaseBody_2_">
		<path id="r_foot_2_" class="st4" d="M33.5,19c0,0.3,0,1.1,1.2,1.1c1.2,0,1.2-1.1,1.2-1.4C35.6,19,33.5,19,33.5,19z"/>
		<path id="r_foot-2_2_" class="st4" d="M32.1,19c0,0.3,0,1.1-1.2,1.1c-1.2,0-1.2-1.1-1.2-1.4C30,19,32.1,19,32.1,19z"/>
		<path id="pants_inline_2_" class="st4" d="M32.2,15.6l0.1,3.3l0,0c0.2-0.1,0.3-0.2,0.4-0.3c0.2,0.2,0.4,0.4,0.6,0.5v-3.4
			C33.2,14.7,32.4,14.7,32.2,15.6z"/>
		<path id="pants_2_" class="st5" d="M36,14.2c0,0-6.2,0-6.4,0c-0.7,0-0.7,0.7-0.3,3.7c0.1,1,0.5,1.3,1.8,1.3s1.2-0.4,1.3-0.4
			l-0.1-3.3c0.1-0.8,1-0.8,1.1,0V19c0.1,0,0.2,0.3,1.4,0.3c1.2,0,1.5-0.4,1.6-1.3C36.6,15.5,36.7,14.4,36,14.2z"/>
		<path id="r_hand_2_" class="st6" d="M28.1,14.2c0,1.2,0.8,1.8,1.5,1.2c0.3-0.3-0.6-0.4-0.5-0.8c0.1,0.1,0.2,0.1,0.4,0.1
			c0.2-0.1,0.1-0.4,0.1-0.4C29.1,14.1,28.6,14.1,28.1,14.2z"/>
		<path id="l_hand_2_" class="st6" d="M36.2,14.2c-0.1,0-0.2,0-0.3,0.1c-0.1,0.1-0.1,0.3-0.1,0.4c0,0.2,0.2,0.1,0.2,0.1
			s0.2-0.2,0.2-0.2c0,0.1,0.1,0.2,0.1,0.3c-0.1,0.2-0.1,0.5-0.2,0.7c0,0.1,0.1,0.2,0.4,0.2c0.3,0,0.6-0.2,0.7-0.4
			c0.1-0.2,0.2-0.4,0.2-0.6l0,0C37.2,14.3,36.7,14.1,36.2,14.2z"/>
	</g>
	<path id="Short_2_" class="st7" d="M30.8,7.7c-0.8,0.3-1.5,0.7-2,1.4c-0.4,0.8-0.7,1.6-0.9,2.4c0,0.4,0.2,2.7,0.3,2.7
		c0.5-0.1,1-0.1,1.4,0c1,0.3,2.1,0.4,3.1,0.5c1.2,0,2.4-0.2,3.6-0.5c0.5-0.1,1,0.1,1.3,0.5c0,0,0.2-2,0.2-2.6c0-0.6-0.6-2.6-0.7-3
		c-0.4-0.7-2-1.4-2.3-1.4L30.8,7.7z"/>
	<path id="shadow_4_" class="st8" d="M30,11.2c0,0,0.8,1.3,3.1,1.4c2.3,0.2,2.7-0.7,2.7-0.7c0,0.6,0.2,2.3,0.2,2.3
		c-1.1,0.3-2.3,0.5-3.5,0.5c-1-0.1-2-0.2-3-0.5C29.4,13.2,29.5,12.2,30,11.2z"/>
	<path class="st6" d="M34.5,8.3c0,0.4-0.5,2.6-1.7,2.6c-1.2,0-1.5-1.3-1.7-1.9C30.9,8.4,34.5,7.9,34.5,8.3z"/>
	<path class="st9" d="M32.8,5.7c-3,0-1.8,3.3-1.7,3.3c0.1,0,0.5-0.4,0.9-0.5c0.3,0.1,0.5,0.3,0.7,0.5c0.2-0.3,0.5-0.4,0.9-0.3
		c0.1-0.2,0.2-0.4,0.3-0.5c0.3-0.1,0.6,0.2,0.7,0.2C34.6,8.3,35.6,5.7,32.8,5.7z"/>
</g>
<g>
	<g id="Seat_3_">
		<path id="Seatt_3_" class="st2" d="M48,10.9c0.2-0.1,0.4-0.2,0.6-0.2c0.2,0,0.6-1.5,0.6-1.8c0-0.6-0.3-0.6-0.9-0.8
			c-0.9-0.3-6.9-0.3-8.1,0c-0.2,0.1-0.9,0.2-0.7,0.8c0.1,0.3,0.5,1.8,0.6,1.8c0.2,0,0.4,0.1,0.6,0.2c-0.5,0.2-0.9,0.4-0.9,0.8v4.8
			c0,1.8,1.5,1.7,2.4,1.8c0.9,0.1,1.4,0.2,2,0.2c0.7,0,1.4-0.1,2.1-0.2c0.7-0.1,2.5,0.1,2.5-1.8v-4.8C48.8,11.3,48.5,11.1,48,10.9z"
			/>
		<path id="ShadowSeat_3_" class="st3" d="M48.6,10.7c0.2,0,0.6-1.5,0.6-1.8c0-0.6-0.3-0.6-0.9-0.8c-0.9-0.3-6.9-0.3-8.1,0
			c-0.2,0.1-0.9,0.2-0.7,0.8c0.1,0.3,0.5,1.8,0.6,1.8c0.2,0,0.4,0.1,0.6,0.2H48C48.2,10.8,48.4,10.7,48.6,10.7z"/>
	</g>
	<g id="BaseBody_3_">
		<path id="r_foot_3_" class="st4" d="M45,19c0,0.3,0,1.1,1.2,1.1s1.2-1.1,1.2-1.4C47,19,45,19,45,19z"/>
		<path id="r_foot-2_3_" class="st4" d="M43.6,19c0,0.3,0,1.1-1.2,1.1s-1.2-1.1-1.2-1.4C41.5,19,43.6,19,43.6,19z"/>
		<path id="pants_inline_3_" class="st4" d="M43.7,15.6l0.1,3.3l0,0c0.2-0.1,0.3-0.2,0.4-0.3c0.2,0.2,0.4,0.4,0.6,0.5v-3.4
			C44.7,14.7,43.8,14.7,43.7,15.6z"/>
		<path id="pants_3_" class="st5" d="M47.4,14.2c0,0-6.2,0-6.4,0c-0.7,0-0.7,0.7-0.3,3.7c0.1,1,0.5,1.3,1.8,1.3
			c1.3,0,1.2-0.4,1.3-0.4l-0.1-3.3c0.1-0.8,1-0.8,1.1,0V19c0.1,0,0.2,0.3,1.4,0.3c1.2,0,1.5-0.4,1.6-1.3
			C48,15.5,48.1,14.4,47.4,14.2z"/>
		<path id="r_hand_3_" class="st6" d="M39.6,14.2c0,1.2,0.8,1.8,1.5,1.2c0.3-0.3-0.6-0.4-0.5-0.8c0.1,0.1,0.2,0.1,0.4,0.1
			c0.2-0.1,0.1-0.4,0.1-0.4C40.5,14.1,40,14.1,39.6,14.2z"/>
		<path id="l_hand_3_" class="st6" d="M47.7,14.2c-0.1,0-0.2,0-0.3,0.1c-0.1,0.1-0.1,0.3-0.1,0.4c0,0.2,0.2,0.1,0.2,0.1
			c0,0,0.2-0.2,0.2-0.2c0,0.1,0.1,0.2,0.1,0.3c-0.1,0.2-0.1,0.5-0.2,0.7c0,0.1,0.1,0.2,0.4,0.2c0.3,0,0.6-0.2,0.7-0.4
			c0.1-0.2,0.2-0.4,0.2-0.6l0,0C48.6,14.3,48.1,14.1,47.7,14.2z"/>
	</g>
	<path id="Short_3_" class="st7" d="M42.2,7.7c-0.8,0.3-1.5,0.7-2,1.4c-0.4,0.8-0.7,1.6-0.9,2.4c0,0.4,0.2,2.7,0.3,2.7
		c0.5-0.1,1-0.1,1.4,0c1,0.3,2.1,0.4,3.1,0.5c1.2,0,2.4-0.2,3.6-0.5c0.5-0.1,1,0.1,1.3,0.5c0,0,0.2-2,0.2-2.6c0-0.6-0.6-2.6-0.7-3
		c-0.4-0.7-2-1.4-2.3-1.4L42.2,7.7z"/>
	<path id="shadow_6_" class="st8" d="M41.4,11.2c0,0,0.8,1.3,3.1,1.4c2.3,0.2,2.7-0.7,2.7-0.7c0,0.6,0.2,2.3,0.2,2.3
		c-1.1,0.3-2.3,0.5-3.5,0.5c-1-0.1-2-0.2-3-0.5C40.8,13.2,41,12.2,41.4,11.2z"/>
	<path class="st6" d="M46,8.3c0,0.4-0.5,2.6-1.7,2.6c-1.2,0-1.5-1.3-1.7-1.9C42.4,8.4,46,7.9,46,8.3z"/>
	<path class="st9" d="M44.2,5.7c-3,0-1.8,3.3-1.7,3.3s0.5-0.4,0.9-0.5c0.3,0.1,0.5,0.3,0.7,0.5c0.2-0.3,0.5-0.4,0.9-0.3
		c0.1-0.2,0.2-0.4,0.3-0.5c0.3-0.1,0.6,0.2,0.7,0.2C46,8.3,47,5.7,44.2,5.7z"/>
</g>
<g>
	<g id="Seat_4_">
		<path id="Seatt_4_" class="st2" d="M59.4,10.9c0.2-0.1,0.4-0.2,0.6-0.2c0.2,0,0.6-1.5,0.6-1.8c0-0.6-0.3-0.6-0.9-0.8
			c-0.9-0.3-6.9-0.3-8.1,0c-0.2,0.1-0.9,0.2-0.7,0.8c0.1,0.3,0.5,1.8,0.6,1.8c0.2,0,0.4,0.1,0.6,0.2c-0.5,0.2-0.9,0.4-0.9,0.8v4.8
			c0,1.8,1.5,1.7,2.4,1.8c0.9,0.1,1.4,0.2,2,0.2c0.7,0,1.4-0.1,2.1-0.2c0.7-0.1,2.5,0.1,2.5-1.8v-4.8C60.3,11.3,59.9,11.1,59.4,10.9
			z"/>
		<path id="ShadowSeat_4_" class="st3" d="M60,10.7c0.2,0,0.6-1.5,0.6-1.8c0-0.6-0.3-0.6-0.9-0.8c-0.9-0.3-6.9-0.3-8.1,0
			c-0.2,0.1-0.9,0.2-0.7,0.8c0.1,0.3,0.5,1.8,0.6,1.8c0.2,0,0.4,0.1,0.6,0.2h7.3C59.6,10.8,59.8,10.7,60,10.7z"/>
	</g>
	<g id="BaseBody_4_">
		<path id="r_foot_4_" class="st4" d="M56.4,19c0,0.3,0,1.1,1.2,1.1c1.2,0,1.2-1.1,1.2-1.4C58.5,19,56.4,19,56.4,19z"/>
		<path id="r_foot-2_4_" class="st4" d="M55,19c0,0.3,0,1.1-1.2,1.1c-1.2,0-1.2-1.1-1.2-1.4C52.9,19,55,19,55,19z"/>
		<path id="pants_inline_4_" class="st4" d="M55.1,15.6l0.1,3.3l0,0c0.2-0.1,0.3-0.2,0.4-0.3c0.2,0.2,0.4,0.4,0.6,0.5v-3.4
			C56.1,14.7,55.3,14.7,55.1,15.6z"/>
		<path id="pants_4_" class="st5" d="M58.8,14.2c0,0-6.2,0-6.4,0c-0.7,0-0.7,0.7-0.3,3.7c0.1,1,0.5,1.3,1.8,1.3s1.2-0.4,1.3-0.4
			l-0.1-3.3c0.1-0.8,1-0.8,1.1,0V19c0.1,0,0.2,0.3,1.4,0.3s1.5-0.4,1.6-1.3C59.4,15.5,59.6,14.4,58.8,14.2z"/>
		<path id="r_hand_4_" class="st6" d="M51,14.2c0,1.2,0.8,1.8,1.5,1.2c0.3-0.3-0.6-0.4-0.5-0.8c0.1,0.1,0.2,0.1,0.4,0.1
			c0.2-0.1,0.1-0.4,0.1-0.4C52,14.1,51.5,14.1,51,14.2z"/>
		<path id="l_hand_4_" class="st6" d="M59.1,14.2c-0.1,0-0.2,0-0.3,0.1c-0.1,0.1-0.1,0.3-0.1,0.4c0,0.2,0.2,0.1,0.2,0.1
			s0.2-0.2,0.2-0.2c0,0.1,0.1,0.2,0.1,0.3c-0.1,0.2-0.1,0.5-0.2,0.7c0,0.1,0.1,0.2,0.4,0.2c0.3,0,0.6-0.2,0.7-0.4
			c0.1-0.2,0.2-0.4,0.2-0.6l0,0C60.1,14.3,59.6,14.1,59.1,14.2z"/>
	</g>
	<path id="Short_4_" class="st7" d="M53.6,7.7c-0.8,0.3-1.5,0.7-2,1.4c-0.4,0.8-0.7,1.6-0.9,2.4c0,0.4,0.2,2.7,0.3,2.7
		c0.5-0.1,1-0.1,1.4,0c1,0.3,2.1,0.4,3.1,0.5c1.2,0,2.4-0.2,3.6-0.5c0.5-0.1,1,0.1,1.3,0.5c0,0,0.2-2,0.2-2.6c0-0.6-0.6-2.6-0.7-3
		c-0.4-0.7-2-1.4-2.3-1.4L53.6,7.7z"/>
	<path id="shadow_8_" class="st8" d="M52.9,11.2c0,0,0.8,1.3,3.1,1.4c2.3,0.2,2.7-0.7,2.7-0.7c0,0.6,0.2,2.3,0.2,2.3
		c-1.1,0.3-2.3,0.5-3.5,0.5c-1-0.1-2-0.2-3-0.5C52.3,13.2,52.4,12.2,52.9,11.2z"/>
	<path class="st6" d="M57.4,8.3c0,0.4-0.5,2.6-1.7,2.6c-1.2,0-1.5-1.3-1.7-1.9S57.4,7.9,57.4,8.3z"/>
	<path class="st9" d="M55.7,5.7c-3,0-1.8,3.3-1.7,3.3c0.1,0,0.5-0.4,0.9-0.5c0.3,0.1,0.5,0.3,0.7,0.5c0.2-0.3,0.5-0.4,0.9-0.3
		c0.1-0.2,0.2-0.4,0.3-0.5c0.3-0.1,0.6,0.2,0.7,0.2S58.4,5.7,55.7,5.7z"/>
</g>
<g>
	<g id="Seat_5_">
		<path id="Seatt_5_" class="st2" d="M70.8,10.9c0.2-0.1,0.4-0.2,0.6-0.2c0.2,0,0.6-1.5,0.6-1.8c0-0.6-0.3-0.6-0.9-0.8
			c-0.9-0.3-6.9-0.3-8.1,0c-0.2,0.1-0.9,0.2-0.7,0.8c0.1,0.3,0.5,1.8,0.6,1.8c0.2,0,0.4,0.1,0.6,0.2c-0.5,0.2-0.9,0.4-0.9,0.8v4.8
			c0,1.8,1.5,1.7,2.4,1.8c0.9,0.1,1.4,0.2,2,0.2c0.7,0,1.4-0.1,2.1-0.2c0.7-0.1,2.5,0.1,2.5-1.8v-4.8C71.7,11.3,71.4,11.1,70.8,10.9
			z"/>
		<path id="ShadowSeat_5_" class="st3" d="M71.5,10.7c0.2,0,0.6-1.5,0.6-1.8c0-0.6-0.3-0.6-0.9-0.8c-0.9-0.3-6.9-0.3-8.1,0
			c-0.2,0.1-0.9,0.2-0.7,0.8c0.1,0.3,0.5,1.8,0.6,1.8c0.2,0,0.4,0.1,0.6,0.2h7.3C71.1,10.8,71.3,10.7,71.5,10.7z"/>
	</g>
	<g id="BaseBody_5_">
		<path id="r_foot_5_" class="st4" d="M67.9,19c0,0.3,0,1.1,1.2,1.1s1.2-1.1,1.2-1.4C69.9,19,67.8,19,67.9,19z"/>
		<path id="r_foot-2_5_" class="st4" d="M66.4,19c0,0.3,0,1.1-1.2,1.1S64,19,64,18.7C64.4,19,66.4,19,66.4,19z"/>
		<path id="pants_inline_5_" class="st4" d="M66.6,15.6l0.1,3.3l0,0c0.2-0.1,0.3-0.2,0.4-0.3c0.2,0.2,0.4,0.4,0.6,0.5v-3.4
			C67.5,14.7,66.7,14.7,66.6,15.6z"/>
		<path id="pants_5_" class="st5" d="M70.3,14.2c0,0-6.2,0-6.4,0c-0.7,0-0.7,0.7-0.3,3.7c0.1,1,0.5,1.3,1.8,1.3s1.2-0.4,1.3-0.4
			l-0.1-3.3c0.1-0.8,1-0.8,1.1,0V19c0.1,0,0.2,0.3,1.4,0.3s1.5-0.4,1.6-1.3C70.9,15.5,71,14.4,70.3,14.2z"/>
		<path id="r_hand_5_" class="st6" d="M62.5,14.2c0,1.2,0.8,1.8,1.5,1.2c0.3-0.3-0.6-0.4-0.5-0.8c0.1,0.1,0.2,0.1,0.4,0.1
			c0.2-0.1,0.1-0.4,0.1-0.4C63.4,14.1,62.9,14.1,62.5,14.2z"/>
		<path id="l_hand_5_" class="st6" d="M70.5,14.2c-0.1,0-0.2,0-0.3,0.1c-0.1,0.1-0.1,0.3-0.1,0.4c0,0.2,0.2,0.1,0.2,0.1
			c0,0,0.2-0.2,0.2-0.2c0,0.1,0.1,0.2,0.1,0.3c-0.1,0.2-0.1,0.5-0.2,0.7c0,0.1,0.1,0.2,0.4,0.2c0.3,0,0.6-0.2,0.7-0.4
			c0.1-0.2,0.2-0.4,0.2-0.6l0,0C71.5,14.3,71,14.1,70.5,14.2z"/>
	</g>
	<path id="Short_5_" class="st7" d="M65.1,7.7c-0.8,0.3-1.5,0.7-2,1.4c-0.4,0.8-0.7,1.6-0.9,2.4c0,0.4,0.2,2.7,0.3,2.7
		c0.5-0.1,1-0.1,1.4,0c1,0.3,2.1,0.4,3.1,0.5c1.2,0,2.4-0.2,3.6-0.5c0.5-0.1,1,0.1,1.3,0.5c0,0,0.2-2,0.2-2.6c0-0.6-0.6-2.6-0.7-3
		c-0.4-0.7-2-1.4-2.3-1.4L65.1,7.7z"/>
	<path id="shadow_10_" class="st8" d="M64.3,11.2c0,0,0.8,1.3,3.1,1.4C69.6,12.8,70,12,70,12c0,0.6,0.2,2.3,0.2,2.3
		c-1.1,0.3-2.3,0.5-3.5,0.5c-1-0.1-2-0.2-3-0.5C63.7,13.2,63.9,12.2,64.3,11.2z"/>
	<path class="st6" d="M68.8,8.3c0,0.4-0.5,2.6-1.7,2.6S65.7,9.6,65.5,9C65.2,8.4,68.9,7.9,68.8,8.3z"/>
	<path class="st9" d="M67.1,5.7c-3,0-1.8,3.3-1.7,3.3c0.1,0,0.5-0.4,0.9-0.5C66.6,8.7,66.8,8.8,67,9c0.2-0.3,0.5-0.4,0.9-0.3
		c0.1-0.2,0.2-0.4,0.3-0.5c0.3-0.1,0.6,0.2,0.7,0.2S69.9,5.7,67.1,5.7z"/>
</g>
<g>
	<g id="Seat_11_">
		<path id="Seatt_11_" class="st2" d="M13.6,27.8c0.2-0.1,0.4-0.2,0.6-0.2c0.2,0,0.6-1.5,0.6-1.8c0-0.6-0.3-0.6-0.9-0.8
			c-0.9-0.3-6.9-0.3-8.1,0c-0.2,0.1-0.9,0.2-0.7,0.8c0.1,0.3,0.5,1.8,0.6,1.8c0.2,0,0.4,0.1,0.6,0.2c-0.5,0.2-0.9,0.4-0.9,0.8v4.8
			C5.6,35.2,7,35,8,35.1s1.4,0.2,2,0.2c0.7,0,1.4-0.1,2.1-0.2c0.7-0.1,2.5,0.1,2.5-1.8v-4.8C14.5,28.2,14.2,27.9,13.6,27.8z"/>
		<path id="ShadowSeat_11_" class="st3" d="M14.3,27.5c0.2,0,0.6-1.5,0.6-1.8c0-0.6-0.3-0.6-0.9-0.8c-0.9-0.3-6.9-0.3-8.1,0
			c-0.2,0.1-0.9,0.2-0.7,0.8c0.1,0.3,0.5,1.8,0.6,1.8c0.2,0,0.4,0.1,0.6,0.2h7.3C13.9,27.6,14.1,27.6,14.3,27.5z"/>
	</g>
</g>
<g>
	<g id="Seat_10_">
		<path id="Seatt_10_" class="st2" d="M25.1,27.8c0.2-0.1,0.4-0.2,0.6-0.2c0.2,0,0.6-1.5,0.6-1.8c0-0.6-0.3-0.6-0.9-0.8
			c-0.9-0.3-6.9-0.3-8.1,0c-0.2,0.1-0.9,0.2-0.7,0.8c0.1,0.3,0.5,1.8,0.6,1.8c0.2,0,0.4,0.1,0.6,0.2c-0.5,0.2-0.9,0.4-0.9,0.8v4.8
			c0,1.8,1.5,1.7,2.4,1.8c0.9,0.1,1.4,0.2,2,0.2c0.7,0,1.4-0.1,2.1-0.2c0.7-0.1,2.5,0.1,2.5-1.8v-4.8C26,28.2,25.6,27.9,25.1,27.8z"
			/>
		<path id="ShadowSeat_10_" class="st3" d="M25.7,27.5c0.2,0,0.6-1.5,0.6-1.8c0-0.6-0.3-0.6-0.9-0.8c-0.9-0.3-6.9-0.3-8.1,0
			c-0.2,0.1-0.9,0.2-0.7,0.8c0.1,0.3,0.5,1.8,0.6,1.8c0.2,0,0.4,0.1,0.6,0.2h7.3C25.3,27.6,25.5,27.6,25.7,27.5z"/>
	</g>
	<g id="BaseBody_10_">
		<path id="r_foot_10_" class="st4" d="M22.1,35.8c0,0.3,0,1.1,1.2,1.1c1.2,0,1.2-1.1,1.2-1.4C24.2,35.8,22.1,35.8,22.1,35.8z"/>
		<path id="r_foot-2_10_" class="st4" d="M20.7,35.8c0,0.3,0,1.1-1.2,1.1c-1.2,0-1.2-1.1-1.2-1.4C18.6,35.8,20.7,35.8,20.7,35.8z"/>
		<path id="pants_inline_10_" class="st4" d="M20.8,32.4l0.1,3.3l0,0c0.2-0.1,0.3-0.2,0.4-0.3c0.2,0.2,0.4,0.4,0.6,0.5v-3.4
			C21.8,31.6,21,31.6,20.8,32.4z"/>
		<path id="pants_10_" class="st5" d="M24.5,31.1c0,0-6.2,0-6.4,0c-0.7,0-0.7,0.7-0.3,3.7c0.1,1,0.5,1.3,1.8,1.3s1.2-0.4,1.3-0.4
			l-0.1-3.3c0.1-0.8,1-0.8,1.1,0v3.4c0.1,0,0.2,0.3,1.4,0.3c1.2,0,1.5-0.4,1.6-1.3C25.1,32.3,25.2,31.2,24.5,31.1z"/>
		<path id="r_hand_10_" class="st6" d="M16.7,31.1c0,1.2,0.8,1.8,1.5,1.2c0.3-0.3-0.6-0.4-0.5-0.8c0.1,0.1,0.2,0.1,0.4,0.1
			c0.2-0.1,0.1-0.4,0.1-0.4C17.6,30.9,17.1,30.9,16.7,31.1z"/>
		<path id="l_hand_10_" class="st6" d="M24.8,31c-0.1,0-0.2,0-0.3,0.1c-0.1,0.1-0.1,0.3-0.1,0.4c0,0.2,0.2,0.1,0.2,0.1
			c0,0,0.2-0.2,0.2-0.2c0,0.1,0.1,0.2,0.1,0.3c-0.1,0.2-0.1,0.5-0.2,0.7c0,0.1,0.1,0.2,0.4,0.2c0.3,0,0.6-0.2,0.7-0.4
			c0.1-0.2,0.2-0.4,0.2-0.6l0,0C25.7,31.1,25.3,30.9,24.8,31z"/>
	</g>
	<path id="Short_10_" class="st7" d="M19.3,24.6c-0.8,0.3-1.5,0.7-2,1.4c-0.4,0.8-0.7,1.6-0.9,2.4c0,0.4,0.2,2.7,0.3,2.7
		c0.5-0.1,1-0.1,1.4,0c1,0.3,2.1,0.4,3.1,0.5c1.2,0,2.4-0.2,3.6-0.5c0.5-0.1,1,0.1,1.3,0.5c0,0,0.2-2,0.2-2.6c0-0.6-0.6-2.6-0.7-3
		c-0.4-0.7-2-1.4-2.3-1.4L19.3,24.6z"/>
	<path id="shadow_20_" class="st8" d="M18.5,28c0,0,0.8,1.3,3.1,1.4s2.7-0.7,2.7-0.7c0,0.6,0.2,2.3,0.2,2.3
		c-1.1,0.3-2.3,0.5-3.5,0.5c-1-0.1-2-0.2-3-0.5C18,30,18.1,29,18.5,28z"/>
	<path class="st6" d="M23.1,25.1c0,0.4-0.5,2.6-1.7,2.6s-1.5-1.3-1.7-1.9C19.5,25.3,23.1,24.7,23.1,25.1z"/>
	<path class="st9" d="M21.3,22.5c-3,0-1.8,3.3-1.7,3.3c0.1,0,0.5-0.4,0.9-0.5c0.3,0.1,0.5,0.3,0.7,0.5c0.2-0.3,0.5-0.4,0.9-0.3
		c0.1-0.2,0.2-0.4,0.3-0.5c0.3-0.1,0.6,0.2,0.7,0.2C23.2,25.2,24.1,22.5,21.3,22.5z"/>
</g>
<g>
	<g id="Seat_9_">
		<path id="Seatt_9_" class="st2" d="M36.5,27.8c0.2-0.1,0.4-0.2,0.6-0.2c0.2,0,0.6-1.5,0.6-1.8c0-0.6-0.3-0.6-0.9-0.8
			c-0.9-0.3-6.9-0.3-8.1,0c-0.2,0.1-0.9,0.2-0.7,0.8c0.1,0.3,0.5,1.8,0.6,1.8c0.2,0,0.4,0.1,0.6,0.2c-0.5,0.2-0.9,0.4-0.9,0.8v4.8
			c0,1.8,1.5,1.7,2.4,1.8s1.4,0.2,2,0.2c0.7,0,1.4-0.1,2.1-0.2c0.7-0.1,2.5,0.1,2.5-1.8v-4.8C37.4,28.2,37,27.9,36.5,27.8z"/>
		<path id="ShadowSeat_9_" class="st3" d="M37.2,27.5c0.2,0,0.6-1.5,0.6-1.8c0-0.6-0.3-0.6-0.9-0.8c-0.9-0.3-6.9-0.3-8.1,0
			c-0.2,0.1-0.9,0.2-0.7,0.8c0.1,0.3,0.5,1.8,0.6,1.8c0.2,0,0.4,0.1,0.6,0.2h7.3C36.8,27.6,37,27.6,37.2,27.5z"/>
	</g>
	<g id="BaseBody_9_">
		<path id="r_foot_9_" class="st4" d="M33.5,35.8c0,0.3,0,1.1,1.2,1.1c1.2,0,1.2-1.1,1.2-1.4C35.6,35.8,33.5,35.8,33.5,35.8z"/>
		<path id="r_foot-2_9_" class="st4" d="M32.1,35.8c0,0.3,0,1.1-1.2,1.1c-1.2,0-1.2-1.1-1.2-1.4C30,35.8,32.1,35.8,32.1,35.8z"/>
		<path id="pants_inline_9_" class="st4" d="M32.2,32.4l0.1,3.3l0,0c0.2-0.1,0.3-0.2,0.4-0.3c0.2,0.2,0.4,0.4,0.6,0.5v-3.4
			C33.2,31.6,32.4,31.6,32.2,32.4z"/>
		<path id="pants_9_" class="st5" d="M36,31.1c0,0-6.2,0-6.4,0c-0.7,0-0.7,0.7-0.3,3.7c0.1,1,0.5,1.3,1.8,1.3s1.2-0.4,1.3-0.4
			l-0.1-3.3c0.1-0.8,1-0.8,1.1,0v3.4c0.1,0,0.2,0.3,1.4,0.3c1.2,0,1.5-0.4,1.6-1.3C36.6,32.3,36.7,31.2,36,31.1z"/>
		<path id="r_hand_9_" class="st6" d="M28.1,31.1c0,1.2,0.8,1.8,1.5,1.2c0.3-0.3-0.6-0.4-0.5-0.8c0.1,0.1,0.2,0.1,0.4,0.1
			c0.2-0.1,0.1-0.4,0.1-0.4C29.1,30.9,28.6,30.9,28.1,31.1z"/>
		<path id="l_hand_9_" class="st6" d="M36.2,31c-0.1,0-0.2,0-0.3,0.1c-0.1,0.1-0.1,0.3-0.1,0.4c0,0.2,0.2,0.1,0.2,0.1
			c0,0,0.2-0.2,0.2-0.2c0,0.1,0.1,0.2,0.1,0.3c-0.1,0.2-0.1,0.5-0.2,0.7c0,0.1,0.1,0.2,0.4,0.2c0.3,0,0.6-0.2,0.7-0.4
			c0.1-0.2,0.2-0.4,0.2-0.6l0,0C37.2,31.1,36.7,30.9,36.2,31z"/>
	</g>
	<path id="Short_9_" class="st7" d="M30.8,24.6c-0.8,0.3-1.5,0.7-2,1.4c-0.4,0.8-0.7,1.6-0.9,2.4c0,0.4,0.2,2.7,0.3,2.7
		c0.5-0.1,1-0.1,1.4,0c1,0.3,2.1,0.4,3.1,0.5c1.2,0,2.4-0.2,3.6-0.5c0.5-0.1,1,0.1,1.3,0.5c0,0,0.2-2,0.2-2.6c0-0.6-0.6-2.6-0.7-3
		c-0.4-0.7-2-1.4-2.3-1.4L30.8,24.6z"/>
	<path id="shadow_18_" class="st8" d="M30,28c0,0,0.8,1.3,3.1,1.4s2.7-0.7,2.7-0.7c0,0.6,0.2,2.3,0.2,2.3c-1.1,0.3-2.3,0.5-3.5,0.5
		c-1-0.1-2-0.2-3-0.5C29.4,30,29.5,29,30,28z"/>
	<path class="st6" d="M34.5,25.1c0,0.4-0.5,2.6-1.7,2.6c-1.2,0-1.5-1.3-1.7-1.9C30.9,25.3,34.5,24.7,34.5,25.1z"/>
	<path class="st9" d="M32.8,22.5c-3,0-1.8,3.3-1.7,3.3c0.1,0,0.5-0.4,0.9-0.5c0.3,0.1,0.5,0.3,0.7,0.5c0.2-0.3,0.5-0.4,0.9-0.3
		c0.1-0.2,0.2-0.4,0.3-0.5c0.3-0.1,0.6,0.2,0.7,0.2C34.6,25.2,35.6,22.5,32.8,22.5z"/>
</g>
<g>
	<g id="Seat_8_">
		<path id="Seatt_8_" class="st2" d="M48,27.8c0.2-0.1,0.4-0.2,0.6-0.2c0.2,0,0.6-1.5,0.6-1.8c0-0.6-0.3-0.6-0.9-0.8
			c-0.9-0.3-6.9-0.3-8.1,0c-0.2,0.1-0.9,0.2-0.7,0.8c0.1,0.3,0.5,1.8,0.6,1.8c0.2,0,0.4,0.1,0.6,0.2c-0.5,0.2-0.9,0.4-0.9,0.8v4.8
			c0,1.8,1.5,1.7,2.4,1.8c0.9,0.1,1.4,0.2,2,0.2c0.7,0,1.4-0.1,2.1-0.2c0.7-0.1,2.5,0.1,2.5-1.8v-4.8C48.8,28.2,48.5,27.9,48,27.8z"
			/>
		<path id="ShadowSeat_8_" class="st3" d="M48.6,27.5c0.2,0,0.6-1.5,0.6-1.8c0-0.6-0.3-0.6-0.9-0.8c-0.9-0.3-6.9-0.3-8.1,0
			c-0.2,0.1-0.9,0.2-0.7,0.8c0.1,0.3,0.5,1.8,0.6,1.8c0.2,0,0.4,0.1,0.6,0.2H48C48.2,27.6,48.4,27.6,48.6,27.5z"/>
	</g>
	<g id="BaseBody_8_">
		<path id="r_foot_8_" class="st4" d="M45,35.8c0,0.3,0,1.1,1.2,1.1s1.2-1.1,1.2-1.4C47,35.8,45,35.8,45,35.8z"/>
		<path id="r_foot-2_8_" class="st4" d="M43.6,35.8c0,0.3,0,1.1-1.2,1.1s-1.2-1.1-1.2-1.4C41.5,35.8,43.6,35.8,43.6,35.8z"/>
		<path id="pants_inline_8_" class="st4" d="M43.7,32.4l0.1,3.3l0,0c0.2-0.1,0.3-0.2,0.4-0.3c0.2,0.2,0.4,0.4,0.6,0.5v-3.4
			C44.7,31.6,43.8,31.6,43.7,32.4z"/>
		<path id="pants_8_" class="st5" d="M47.4,31.1c0,0-6.2,0-6.4,0c-0.7,0-0.7,0.7-0.3,3.7c0.1,1,0.5,1.3,1.8,1.3
			c1.3,0,1.2-0.4,1.3-0.4l-0.1-3.3c0.1-0.8,1-0.8,1.1,0v3.4c0.1,0,0.2,0.3,1.4,0.3c1.2,0,1.5-0.4,1.6-1.3
			C48,32.3,48.1,31.2,47.4,31.1z"/>
		<path id="r_hand_8_" class="st6" d="M39.6,31.1c0,1.2,0.8,1.8,1.5,1.2c0.3-0.3-0.6-0.4-0.5-0.8c0.1,0.1,0.2,0.1,0.4,0.1
			c0.2-0.1,0.1-0.4,0.1-0.4C40.5,30.9,40,30.9,39.6,31.1z"/>
		<path id="l_hand_8_" class="st6" d="M47.7,31c-0.1,0-0.2,0-0.3,0.1c-0.1,0.1-0.1,0.3-0.1,0.4c0,0.2,0.2,0.1,0.2,0.1
			c0,0,0.2-0.2,0.2-0.2c0,0.1,0.1,0.2,0.1,0.3c-0.1,0.2-0.1,0.5-0.2,0.7c0,0.1,0.1,0.2,0.4,0.2c0.3,0,0.6-0.2,0.7-0.4
			c0.1-0.2,0.2-0.4,0.2-0.6l0,0C48.6,31.1,48.1,30.9,47.7,31z"/>
	</g>
	<path id="Short_8_" class="st7" d="M42.2,24.6c-0.8,0.3-1.5,0.7-2,1.4c-0.4,0.8-0.7,1.6-0.9,2.4c0,0.4,0.2,2.7,0.3,2.7
		c0.5-0.1,1-0.1,1.4,0c1,0.3,2.1,0.4,3.1,0.5c1.2,0,2.4-0.2,3.6-0.5c0.5-0.1,1,0.1,1.3,0.5c0,0,0.2-2,0.2-2.6c0-0.6-0.6-2.6-0.7-3
		c-0.4-0.7-2-1.4-2.3-1.4L42.2,24.6z"/>
	<path id="shadow_16_" class="st8" d="M41.4,28c0,0,0.8,1.3,3.1,1.4c2.3,0.2,2.7-0.7,2.7-0.7c0,0.6,0.2,2.3,0.2,2.3
		c-1.1,0.3-2.3,0.5-3.5,0.5c-1-0.1-2-0.2-3-0.5C40.8,30,41,29,41.4,28z"/>
	<path class="st6" d="M46,25.1c0,0.4-0.5,2.6-1.7,2.6c-1.2,0-1.5-1.3-1.7-1.9C42.4,25.3,46,24.7,46,25.1z"/>
	<path class="st9" d="M44.2,22.5c-3,0-1.8,3.3-1.7,3.3s0.5-0.4,0.9-0.5c0.3,0.1,0.5,0.3,0.7,0.5c0.2-0.3,0.5-0.4,0.9-0.3
		c0.1-0.2,0.2-0.4,0.3-0.5c0.3-0.1,0.6,0.2,0.7,0.2C46,25.2,47,22.5,44.2,22.5z"/>
</g>
<g>
	<g id="Seat_7_">
		<path id="Seatt_7_" class="st2" d="M59.4,27.8c0.2-0.1,0.4-0.2,0.6-0.2c0.2,0,0.6-1.5,0.6-1.8c0-0.6-0.3-0.6-0.9-0.8
			c-0.9-0.3-6.9-0.3-8.1,0c-0.2,0.1-0.9,0.2-0.7,0.8c0.1,0.3,0.5,1.8,0.6,1.8c0.2,0,0.4,0.1,0.6,0.2c-0.5,0.2-0.9,0.4-0.9,0.8v4.8
			c0,1.8,1.5,1.7,2.4,1.8c0.9,0.1,1.4,0.2,2,0.2c0.7,0,1.4-0.1,2.1-0.2c0.7-0.1,2.5,0.1,2.5-1.8v-4.8C60.3,28.2,59.9,27.9,59.4,27.8
			z"/>
		<path id="ShadowSeat_7_" class="st3" d="M60,27.5c0.2,0,0.6-1.5,0.6-1.8c0-0.6-0.3-0.6-0.9-0.8c-0.9-0.3-6.9-0.3-8.1,0
			c-0.2,0.1-0.9,0.2-0.7,0.8c0.1,0.3,0.5,1.8,0.6,1.8c0.2,0,0.4,0.1,0.6,0.2h7.3C59.6,27.6,59.8,27.6,60,27.5z"/>
	</g>
	<g id="BaseBody_7_">
		<path id="r_foot_7_" class="st4" d="M56.4,35.8c0,0.3,0,1.1,1.2,1.1c1.2,0,1.2-1.1,1.2-1.4C58.5,35.8,56.4,35.8,56.4,35.8z"/>
		<path id="r_foot-2_7_" class="st4" d="M55,35.8c0,0.3,0,1.1-1.2,1.1c-1.2,0-1.2-1.1-1.2-1.4C52.9,35.8,55,35.8,55,35.8z"/>
		<path id="pants_inline_7_" class="st4" d="M55.1,32.4l0.1,3.3l0,0c0.2-0.1,0.3-0.2,0.4-0.3c0.2,0.2,0.4,0.4,0.6,0.5v-3.4
			C56.1,31.6,55.3,31.6,55.1,32.4z"/>
		<path id="pants_7_" class="st5" d="M58.8,31.1c0,0-6.2,0-6.4,0c-0.7,0-0.7,0.7-0.3,3.7c0.1,1,0.5,1.3,1.8,1.3s1.2-0.4,1.3-0.4
			l-0.1-3.3c0.1-0.8,1-0.8,1.1,0v3.4c0.1,0,0.2,0.3,1.4,0.3s1.5-0.4,1.6-1.3C59.4,32.3,59.6,31.2,58.8,31.1z"/>
		<path id="r_hand_7_" class="st6" d="M51,31.1c0,1.2,0.8,1.8,1.5,1.2c0.3-0.3-0.6-0.4-0.5-0.8c0.1,0.1,0.2,0.1,0.4,0.1
			c0.2-0.1,0.1-0.4,0.1-0.4C52,30.9,51.5,30.9,51,31.1z"/>
		<path id="l_hand_7_" class="st6" d="M59.1,31c-0.1,0-0.2,0-0.3,0.1c-0.1,0.1-0.1,0.3-0.1,0.4c0,0.2,0.2,0.1,0.2,0.1
			c0,0,0.2-0.2,0.2-0.2c0,0.1,0.1,0.2,0.1,0.3c-0.1,0.2-0.1,0.5-0.2,0.7c0,0.1,0.1,0.2,0.4,0.2c0.3,0,0.6-0.2,0.7-0.4
			c0.1-0.2,0.2-0.4,0.2-0.6l0,0C60.1,31.1,59.6,30.9,59.1,31z"/>
	</g>
	<path id="Short_7_" class="st7" d="M53.6,24.6c-0.8,0.3-1.5,0.7-2,1.4c-0.4,0.8-0.7,1.6-0.9,2.4c0,0.4,0.2,2.7,0.3,2.7
		c0.5-0.1,1-0.1,1.4,0c1,0.3,2.1,0.4,3.1,0.5c1.2,0,2.4-0.2,3.6-0.5c0.5-0.1,1,0.1,1.3,0.5c0,0,0.2-2,0.2-2.6c0-0.6-0.6-2.6-0.7-3
		c-0.4-0.7-2-1.4-2.3-1.4L53.6,24.6z"/>
	<path id="shadow_14_" class="st8" d="M52.9,28c0,0,0.8,1.3,3.1,1.4s2.7-0.7,2.7-0.7c0,0.6,0.2,2.3,0.2,2.3
		c-1.1,0.3-2.3,0.5-3.5,0.5c-1-0.1-2-0.2-3-0.5C52.3,30,52.4,29,52.9,28z"/>
	<path class="st6" d="M57.4,25.1c0,0.4-0.5,2.6-1.7,2.6c-1.2,0-1.5-1.3-1.7-1.9S57.4,24.7,57.4,25.1z"/>
	<path class="st9" d="M55.7,22.5c-3,0-1.8,3.3-1.7,3.3c0.1,0,0.5-0.4,0.9-0.5c0.3,0.1,0.5,0.3,0.7,0.5c0.2-0.3,0.5-0.4,0.9-0.3
		c0.1-0.2,0.2-0.4,0.3-0.5c0.3-0.1,0.6,0.2,0.7,0.2C57.5,25.2,58.4,22.5,55.7,22.5z"/>
</g>
<g>
	<g id="Seat_6_">
		<path id="Seatt_6_" class="st2" d="M70.8,27.8c0.2-0.1,0.4-0.2,0.6-0.2c0.2,0,0.6-1.5,0.6-1.8c0-0.6-0.3-0.6-0.9-0.8
			c-0.9-0.3-6.9-0.3-8.1,0c-0.2,0.1-0.9,0.2-0.7,0.8c0.1,0.3,0.5,1.8,0.6,1.8c0.2,0,0.4,0.1,0.6,0.2c-0.5,0.2-0.9,0.4-0.9,0.8v4.8
			c0,1.8,1.5,1.7,2.4,1.8c0.9,0.1,1.4,0.2,2,0.2c0.7,0,1.4-0.1,2.1-0.2c0.7-0.1,2.5,0.1,2.5-1.8v-4.8C71.7,28.2,71.4,27.9,70.8,27.8
			z"/>
		<path id="ShadowSeat_6_" class="st3" d="M71.5,27.5c0.2,0,0.6-1.5,0.6-1.8c0-0.6-0.3-0.6-0.9-0.8c-0.9-0.3-6.9-0.3-8.1,0
			c-0.2,0.1-0.9,0.2-0.7,0.8c0.1,0.3,0.5,1.8,0.6,1.8c0.2,0,0.4,0.1,0.6,0.2h7.3C71.1,27.6,71.3,27.6,71.5,27.5z"/>
	</g>
	<g id="BaseBody_6_">
		<path id="r_foot_6_" class="st4" d="M67.9,35.8c0,0.3,0,1.1,1.2,1.1s1.2-1.1,1.2-1.4C69.9,35.8,67.8,35.8,67.9,35.8z"/>
		<path id="r_foot-2_6_" class="st4" d="M66.4,35.8c0,0.3,0,1.1-1.2,1.1S64,35.9,64,35.5C64.4,35.8,66.4,35.8,66.4,35.8z"/>
		<path id="pants_inline_6_" class="st4" d="M66.6,32.4l0.1,3.3l0,0c0.2-0.1,0.3-0.2,0.4-0.3c0.2,0.2,0.4,0.4,0.6,0.5v-3.4
			C67.5,31.6,66.7,31.6,66.6,32.4z"/>
		<path id="pants_6_" class="st5" d="M70.3,31.1c0,0-6.2,0-6.4,0c-0.7,0-0.7,0.7-0.3,3.7c0.1,1,0.5,1.3,1.8,1.3s1.2-0.4,1.3-0.4
			l-0.1-3.3c0.1-0.8,1-0.8,1.1,0v3.4c0.1,0,0.2,0.3,1.4,0.3s1.5-0.4,1.6-1.3C70.9,32.3,71,31.2,70.3,31.1z"/>
		<path id="r_hand_6_" class="st6" d="M62.5,31.1c0,1.2,0.8,1.8,1.5,1.2c0.3-0.3-0.6-0.4-0.5-0.8c0.1,0.1,0.2,0.1,0.4,0.1
			c0.2-0.1,0.1-0.4,0.1-0.4C63.4,30.9,62.9,30.9,62.5,31.1z"/>
		<path id="l_hand_6_" class="st6" d="M70.5,31c-0.1,0-0.2,0-0.3,0.1c-0.1,0.1-0.1,0.3-0.1,0.4c0,0.2,0.2,0.1,0.2,0.1
			c0,0,0.2-0.2,0.2-0.2c0,0.1,0.1,0.2,0.1,0.3c-0.1,0.2-0.1,0.5-0.2,0.7c0,0.1,0.1,0.2,0.4,0.2c0.3,0,0.6-0.2,0.7-0.4
			c0.1-0.2,0.2-0.4,0.2-0.6l0,0C71.5,31.1,71,30.9,70.5,31z"/>
	</g>
	<path id="Short_6_" class="st7" d="M65.1,24.6c-0.8,0.3-1.5,0.7-2,1.4c-0.4,0.8-0.7,1.6-0.9,2.4c0,0.4,0.2,2.7,0.3,2.7
		c0.5-0.1,1-0.1,1.4,0c1,0.3,2.1,0.4,3.1,0.5c1.2,0,2.4-0.2,3.6-0.5c0.5-0.1,1,0.1,1.3,0.5c0,0,0.2-2,0.2-2.6c0-0.6-0.6-2.6-0.7-3
		c-0.4-0.7-2-1.4-2.3-1.4L65.1,24.6z"/>
	<path id="shadow_12_" class="st8" d="M64.3,28c0,0,0.8,1.3,3.1,1.4s2.7-0.7,2.7-0.7c0,0.6,0.2,2.3,0.2,2.3
		c-1.1,0.3-2.3,0.5-3.5,0.5c-1-0.1-2-0.2-3-0.5C63.7,30,63.9,29,64.3,28z"/>
	<path class="st6" d="M68.8,25.1c0,0.4-0.5,2.6-1.7,2.6s-1.5-1.3-1.7-1.9C65.2,25.3,68.9,24.7,68.8,25.1z"/>
	<path class="st9" d="M67.1,22.5c-3,0-1.8,3.3-1.7,3.3c0.1,0,0.5-0.4,0.9-0.5c0.3,0.1,0.5,0.3,0.7,0.5c0.2-0.3,0.5-0.4,0.9-0.3
		c0.1-0.2,0.2-0.4,0.3-0.5c0.3-0.1,0.6,0.2,0.7,0.2C68.9,25.2,69.9,22.5,67.1,22.5z"/>
</g>
<g>
	<g id="Seat_17_">
		<path id="Seatt_17_" class="st2" d="M13.6,44.6c0.2-0.1,0.4-0.2,0.6-0.2c0.2,0,0.6-1.5,0.6-1.8c0-0.6-0.3-0.6-0.9-0.8
			c-0.9-0.3-6.9-0.3-8.1,0c-0.2,0.1-0.9,0.2-0.7,0.8c0.1,0.3,0.5,1.8,0.6,1.8c0.2,0,0.4,0.1,0.6,0.2c-0.5,0.2-0.9,0.4-0.9,0.8v4.8
			C5.6,52,7,51.9,8,52c0.9,0.1,1.4,0.2,2,0.2c0.7,0,1.4-0.1,2.1-0.2c0.7-0.1,2.5,0.1,2.5-1.8v-4.8C14.5,45,14.2,44.7,13.6,44.6z"/>
		<path id="ShadowSeat_17_" class="st3" d="M14.3,44.4c0.2,0,0.6-1.5,0.6-1.8c0-0.6-0.3-0.6-0.9-0.8c-0.9-0.3-6.9-0.3-8.1,0
			c-0.2,0.1-0.9,0.2-0.7,0.8c0.1,0.3,0.5,1.8,0.6,1.8c0.2,0,0.4,0.1,0.6,0.2h7.3C13.9,44.5,14.1,44.4,14.3,44.4z"/>
	</g>
	<g id="BaseBody_17_">
		<path id="r_foot_17_" class="st4" d="M10.7,52.7c0,0.3,0,1.1,1.2,1.1s1.2-1.1,1.2-1.4C12.7,52.7,10.6,52.6,10.7,52.7z"/>
		<path id="r_foot-2_17_" class="st4" d="M9.2,52.7c0,0.3,0,1.1-1.2,1.1s-1.2-1.1-1.2-1.4C7.2,52.7,9.2,52.6,9.2,52.7z"/>
		<path id="pants_inline_17_" class="st4" d="M9.4,49.2l0.1,3.3l0,0c0.2-0.1,0.3-0.2,0.4-0.3c0.2,0.2,0.4,0.4,0.6,0.5v-3.4
			C10.3,48.4,9.5,48.4,9.4,49.2z"/>
		<path id="pants_17_" class="st5" d="M13.1,47.9c0,0-6.2,0-6.4,0c-0.7,0-0.7,0.7-0.3,3.7c0.1,1,0.5,1.3,1.8,1.3s1.2-0.4,1.3-0.4
			l-0.1-3.3c0.1-0.8,1-0.8,1.1,0v3.4c0.1,0,0.2,0.3,1.4,0.3s1.5-0.4,1.6-1.3C13.7,49.1,13.8,48.1,13.1,47.9z"/>
		<path id="r_hand_17_" class="st6" d="M5.3,47.9c0,1.2,0.8,1.8,1.5,1.2c0.3-0.3-0.6-0.4-0.5-0.8c0.1,0.1,0.2,0.1,0.4,0.1
			c0.2-0.1,0.1-0.4,0.1-0.4C6.2,47.7,5.7,47.7,5.3,47.9z"/>
		<path id="l_hand_17_" class="st6" d="M13.3,47.8c-0.1,0-0.2,0-0.3,0.1C13,48,13,48.2,13,48.3c0,0.2,0.2,0.1,0.2,0.1
			s0.2-0.2,0.2-0.2c0,0.1,0.1,0.2,0.1,0.3c-0.1,0.2-0.1,0.5-0.2,0.7c0,0.1,0.1,0.2,0.4,0.2c0.3,0,0.6-0.2,0.7-0.4
			c0.1-0.2,0.2-0.4,0.2-0.6l0,0C14.3,48,13.8,47.8,13.3,47.8z"/>
	</g>
	<path id="Short_17_" class="st7" d="M7.9,41.4c-0.8,0.3-1.5,0.7-2,1.4c-0.4,0.8-0.7,1.6-0.9,2.4c0,0.4,0.2,2.7,0.3,2.7
		c0.5-0.1,1-0.1,1.4,0c1,0.3,2.1,0.4,3.1,0.5c1.2,0,2.4-0.2,3.6-0.5c0.5-0.1,1,0.1,1.3,0.5c0,0,0.2-2,0.2-2.6c0-0.6-0.6-2.6-0.7-3
		c-0.4-0.7-2-1.4-2.3-1.4L7.9,41.4z"/>
	<path id="shadow_34_" class="st8" d="M7.1,44.9c0,0,0.8,1.3,3.1,1.4s2.7-0.7,2.7-0.7c0,0.6,0.2,2.3,0.2,2.3
		c-1.1,0.3-2.3,0.5-3.5,0.5c-1-0.1-2-0.2-3-0.5C6.5,46.9,6.7,45.8,7.1,44.9z"/>
	<path class="st6" d="M11.6,42c0,0.4-0.5,2.6-1.7,2.6s-1.5-1.3-1.7-1.9S11.7,41.6,11.6,42z"/>
	<path class="st9" d="M9.9,39.4c-3,0-1.8,3.3-1.7,3.3c0.1,0,0.5-0.4,0.9-0.5c0.3,0.1,0.5,0.3,0.7,0.5c0.2-0.3,0.5-0.4,0.9-0.3
		c0.1-0.2,0.2-0.4,0.3-0.5c0.3-0.1,0.6,0.2,0.7,0.2C11.7,42,12.7,39.4,9.9,39.4z"/>
</g>
<g>
	<g id="Seat_16_">
		<path id="Seatt_16_" class="st2" d="M25.1,44.6c0.2-0.1,0.4-0.2,0.6-0.2c0.2,0,0.6-1.5,0.6-1.8c0-0.6-0.3-0.6-0.9-0.8
			c-0.9-0.3-6.9-0.3-8.1,0c-0.2,0.1-0.9,0.2-0.7,0.8c0.1,0.3,0.5,1.8,0.6,1.8c0.2,0,0.4,0.1,0.6,0.2C17.3,44.7,17,45,17,45.4v4.8
			c0,1.8,1.5,1.7,2.4,1.8c0.9,0.1,1.4,0.2,2,0.2c0.7,0,1.4-0.1,2.1-0.2c0.7-0.1,2.5,0.1,2.5-1.8v-4.8C26,45,25.6,44.7,25.1,44.6z"/>
		<path id="ShadowSeat_16_" class="st3" d="M25.7,44.4c0.2,0,0.6-1.5,0.6-1.8c0-0.6-0.3-0.6-0.9-0.8c-0.9-0.3-6.9-0.3-8.1,0
			c-0.2,0.1-0.9,0.2-0.7,0.8c0.1,0.3,0.5,1.8,0.6,1.8c0.2,0,0.4,0.1,0.6,0.2h7.3C25.3,44.5,25.5,44.4,25.7,44.4z"/>
	</g>
	<g id="BaseBody_16_">
		<path id="r_foot_16_" class="st4" d="M22.1,52.7c0,0.3,0,1.1,1.2,1.1c1.2,0,1.2-1.1,1.2-1.4C24.2,52.7,22.1,52.6,22.1,52.7z"/>
		<path id="r_foot-2_16_" class="st4" d="M20.7,52.7c0,0.3,0,1.1-1.2,1.1c-1.2,0-1.2-1.1-1.2-1.4C18.6,52.7,20.7,52.6,20.7,52.7z"/>
		<path id="pants_inline_16_" class="st4" d="M20.8,49.2l0.1,3.3l0,0c0.2-0.1,0.3-0.2,0.4-0.3c0.2,0.2,0.4,0.4,0.6,0.5v-3.4
			C21.8,48.4,21,48.4,20.8,49.2z"/>
		<path id="pants_16_" class="st5" d="M24.5,47.9c0,0-6.2,0-6.4,0c-0.7,0-0.7,0.7-0.3,3.7c0.1,1,0.5,1.3,1.8,1.3s1.2-0.4,1.3-0.4
			l-0.1-3.3c0.1-0.8,1-0.8,1.1,0v3.4c0.1,0,0.2,0.3,1.4,0.3c1.2,0,1.5-0.4,1.6-1.3C25.1,49.1,25.2,48.1,24.5,47.9z"/>
		<path id="r_hand_16_" class="st6" d="M16.7,47.9c0,1.2,0.8,1.8,1.5,1.2c0.3-0.3-0.6-0.4-0.5-0.8c0.1,0.1,0.2,0.1,0.4,0.1
			c0.2-0.1,0.1-0.4,0.1-0.4C17.6,47.7,17.1,47.7,16.7,47.9z"/>
		<path id="l_hand_16_" class="st6" d="M24.8,47.8c-0.1,0-0.2,0-0.3,0.1c-0.1,0.1-0.1,0.3-0.1,0.4c0,0.2,0.2,0.1,0.2,0.1
			c0,0,0.2-0.2,0.2-0.2c0,0.1,0.1,0.2,0.1,0.3c-0.1,0.2-0.1,0.5-0.2,0.7c0,0.1,0.1,0.2,0.4,0.2c0.3,0,0.6-0.2,0.7-0.4
			c0.1-0.2,0.2-0.4,0.2-0.6l0,0C25.7,48,25.3,47.8,24.8,47.8z"/>
	</g>
	<path id="Short_16_" class="st7" d="M19.3,41.4c-0.8,0.3-1.5,0.7-2,1.4c-0.4,0.8-0.7,1.6-0.9,2.4c0,0.4,0.2,2.7,0.3,2.7
		c0.5-0.1,1-0.1,1.4,0c1,0.3,2.1,0.4,3.1,0.5c1.2,0,2.4-0.2,3.6-0.5c0.5-0.1,1,0.1,1.3,0.5c0,0,0.2-2,0.2-2.6c0-0.6-0.6-2.6-0.7-3
		c-0.4-0.7-2-1.4-2.3-1.4L19.3,41.4z"/>
	<path id="shadow_32_" class="st8" d="M18.5,44.9c0,0,0.8,1.3,3.1,1.4s2.7-0.7,2.7-0.7c0,0.6,0.2,2.3,0.2,2.3
		c-1.1,0.3-2.3,0.5-3.5,0.5c-1-0.1-2-0.2-3-0.5C18,46.9,18.1,45.8,18.5,44.9z"/>
	<path class="st6" d="M23.1,42c0,0.4-0.5,2.6-1.7,2.6s-1.5-1.3-1.7-1.9C19.5,42.1,23.1,41.6,23.1,42z"/>
	<path class="st9" d="M21.3,39.4c-3,0-1.8,3.3-1.7,3.3c0.1,0,0.5-0.4,0.9-0.5c0.3,0.1,0.5,0.3,0.7,0.5c0.2-0.3,0.5-0.4,0.9-0.3
		c0.1-0.2,0.2-0.4,0.3-0.5c0.3-0.1,0.6,0.2,0.7,0.2C23.2,42,24.1,39.4,21.3,39.4z"/>
</g>
<g>
	<g id="Seat_15_">
		<path id="Seatt_15_" class="st2" d="M36.5,44.6c0.2-0.1,0.4-0.2,0.6-0.2c0.2,0,0.6-1.5,0.6-1.8c0-0.6-0.3-0.6-0.9-0.8
			c-0.9-0.3-6.9-0.3-8.1,0c-0.2,0.1-0.9,0.2-0.7,0.8c0.1,0.3,0.5,1.8,0.6,1.8c0.2,0,0.4,0.1,0.6,0.2c-0.5,0.2-0.9,0.4-0.9,0.8v4.8
			c0,1.8,1.5,1.7,2.4,1.8c0.9,0.1,1.4,0.2,2,0.2c0.7,0,1.4-0.1,2.1-0.2c0.7-0.1,2.5,0.1,2.5-1.8v-4.8C37.4,45,37,44.7,36.5,44.6z"/>
		<path id="ShadowSeat_15_" class="st3" d="M37.2,44.4c0.2,0,0.6-1.5,0.6-1.8c0-0.6-0.3-0.6-0.9-0.8c-0.9-0.3-6.9-0.3-8.1,0
			c-0.2,0.1-0.9,0.2-0.7,0.8c0.1,0.3,0.5,1.8,0.6,1.8c0.2,0,0.4,0.1,0.6,0.2h7.3C36.8,44.5,37,44.4,37.2,44.4z"/>
	</g>
	<g id="BaseBody_15_">
		<path id="r_foot_15_" class="st4" d="M33.5,52.7c0,0.3,0,1.1,1.2,1.1c1.2,0,1.2-1.1,1.2-1.4C35.6,52.7,33.5,52.6,33.5,52.7z"/>
		<path id="r_foot-2_15_" class="st4" d="M32.1,52.7c0,0.3,0,1.1-1.2,1.1c-1.2,0-1.2-1.1-1.2-1.4C30,52.7,32.1,52.6,32.1,52.7z"/>
		<path id="pants_inline_15_" class="st4" d="M32.2,49.2l0.1,3.3l0,0c0.2-0.1,0.3-0.2,0.4-0.3c0.2,0.2,0.4,0.4,0.6,0.5v-3.4
			C33.2,48.4,32.4,48.4,32.2,49.2z"/>
		<path id="pants_15_" class="st5" d="M36,47.9c0,0-6.2,0-6.4,0c-0.7,0-0.7,0.7-0.3,3.7c0.1,1,0.5,1.3,1.8,1.3s1.2-0.4,1.3-0.4
			l-0.1-3.3c0.1-0.8,1-0.8,1.1,0v3.4c0.1,0,0.2,0.3,1.4,0.3c1.2,0,1.5-0.4,1.6-1.3C36.6,49.1,36.7,48.1,36,47.9z"/>
		<path id="r_hand_15_" class="st6" d="M28.1,47.9c0,1.2,0.8,1.8,1.5,1.2c0.3-0.3-0.6-0.4-0.5-0.8c0.1,0.1,0.2,0.1,0.4,0.1
			c0.2-0.1,0.1-0.4,0.1-0.4C29.1,47.7,28.6,47.7,28.1,47.9z"/>
		<path id="l_hand_15_" class="st6" d="M36.2,47.8c-0.1,0-0.2,0-0.3,0.1c-0.1,0.1-0.1,0.3-0.1,0.4c0,0.2,0.2,0.1,0.2,0.1
			s0.2-0.2,0.2-0.2c0,0.1,0.1,0.2,0.1,0.3c-0.1,0.2-0.1,0.5-0.2,0.7c0,0.1,0.1,0.2,0.4,0.2c0.3,0,0.6-0.2,0.7-0.4
			c0.1-0.2,0.2-0.4,0.2-0.6l0,0C37.2,48,36.7,47.8,36.2,47.8z"/>
	</g>
	<path id="Short_15_" class="st7" d="M30.8,41.4c-0.8,0.3-1.5,0.7-2,1.4c-0.4,0.8-0.7,1.6-0.9,2.4c0,0.4,0.2,2.7,0.3,2.7
		c0.5-0.1,1-0.1,1.4,0c1,0.3,2.1,0.4,3.1,0.5c1.2,0,2.4-0.2,3.6-0.5c0.5-0.1,1,0.1,1.3,0.5c0,0,0.2-2,0.2-2.6c0-0.6-0.6-2.6-0.7-3
		c-0.4-0.7-2-1.4-2.3-1.4L30.8,41.4z"/>
	<path id="shadow_30_" class="st8" d="M30,44.9c0,0,0.8,1.3,3.1,1.4s2.7-0.7,2.7-0.7c0,0.6,0.2,2.3,0.2,2.3
		c-1.1,0.3-2.3,0.5-3.5,0.5c-1-0.1-2-0.2-3-0.5C29.4,46.9,29.5,45.8,30,44.9z"/>
	<path class="st6" d="M34.5,42c0,0.4-0.5,2.6-1.7,2.6c-1.2,0-1.5-1.3-1.7-1.9C30.9,42.1,34.5,41.6,34.5,42z"/>
	<path class="st9" d="M32.8,39.4c-3,0-1.8,3.3-1.7,3.3c0.1,0,0.5-0.4,0.9-0.5c0.3,0.1,0.5,0.3,0.7,0.5c0.2-0.3,0.5-0.4,0.9-0.3
		c0.1-0.2,0.2-0.4,0.3-0.5c0.3-0.1,0.6,0.2,0.7,0.2C34.6,42,35.6,39.4,32.8,39.4z"/>
</g>
<g>
	<g id="Seat_14_">
		<path id="Seatt_14_" class="st2" d="M48,44.6c0.2-0.1,0.4-0.2,0.6-0.2c0.2,0,0.6-1.5,0.6-1.8c0-0.6-0.3-0.6-0.9-0.8
			c-0.9-0.3-6.9-0.3-8.1,0c-0.2,0.1-0.9,0.2-0.7,0.8c0.1,0.3,0.5,1.8,0.6,1.8c0.2,0,0.4,0.1,0.6,0.2c-0.5,0.2-0.9,0.4-0.9,0.8v4.8
			c0,1.8,1.5,1.7,2.4,1.8c0.9,0.1,1.4,0.2,2,0.2c0.7,0,1.4-0.1,2.1-0.2c0.7-0.1,2.5,0.1,2.5-1.8v-4.8C48.8,45,48.5,44.7,48,44.6z"/>
		<path id="ShadowSeat_14_" class="st3" d="M48.6,44.4c0.2,0,0.6-1.5,0.6-1.8c0-0.6-0.3-0.6-0.9-0.8c-0.9-0.3-6.9-0.3-8.1,0
			c-0.2,0.1-0.9,0.2-0.7,0.8c0.1,0.3,0.5,1.8,0.6,1.8c0.2,0,0.4,0.1,0.6,0.2H48C48.2,44.5,48.4,44.4,48.6,44.4z"/>
	</g>
</g>
<g>
	<g id="Seat_13_">
		<path id="Seatt_13_" class="st2" d="M59.4,44.6c0.2-0.1,0.4-0.2,0.6-0.2c0.2,0,0.6-1.5,0.6-1.8c0-0.6-0.3-0.6-0.9-0.8
			c-0.9-0.3-6.9-0.3-8.1,0c-0.2,0.1-0.9,0.2-0.7,0.8c0.1,0.3,0.5,1.8,0.6,1.8c0.2,0,0.4,0.1,0.6,0.2c-0.5,0.2-0.9,0.4-0.9,0.8v4.8
			c0,1.8,1.5,1.7,2.4,1.8c0.9,0.1,1.4,0.2,2,0.2c0.7,0,1.4-0.1,2.1-0.2c0.7-0.1,2.5,0.1,2.5-1.8v-4.8C60.3,45,59.9,44.7,59.4,44.6z"
			/>
		<path id="ShadowSeat_13_" class="st3" d="M60,44.4c0.2,0,0.6-1.5,0.6-1.8c0-0.6-0.3-0.6-0.9-0.8c-0.9-0.3-6.9-0.3-8.1,0
			c-0.2,0.1-0.9,0.2-0.7,0.8c0.1,0.3,0.5,1.8,0.6,1.8c0.2,0,0.4,0.1,0.6,0.2h7.3C59.6,44.5,59.8,44.4,60,44.4z"/>
	</g>
</g>
<g>
	<g id="Seat_12_">
		<path id="Seatt_12_" class="st2" d="M70.8,44.6c0.2-0.1,0.4-0.2,0.6-0.2c0.2,0,0.6-1.5,0.6-1.8c0-0.6-0.3-0.6-0.9-0.8
			c-0.9-0.3-6.9-0.3-8.1,0c-0.2,0.1-0.9,0.2-0.7,0.8c0.1,0.3,0.5,1.8,0.6,1.8c0.2,0,0.4,0.1,0.6,0.2c-0.5,0.2-0.9,0.4-0.9,0.8v4.8
			c0,1.8,1.5,1.7,2.4,1.8c0.9,0.1,1.4,0.2,2,0.2c0.7,0,1.4-0.1,2.1-0.2c0.7-0.1,2.5,0.1,2.5-1.8v-4.8C71.7,45,71.4,44.7,70.8,44.6z"
			/>
		<path id="ShadowSeat_12_" class="st3" d="M71.5,44.4c0.2,0,0.6-1.5,0.6-1.8c0-0.6-0.3-0.6-0.9-0.8c-0.9-0.3-6.9-0.3-8.1,0
			c-0.2,0.1-0.9,0.2-0.7,0.8c0.1,0.3,0.5,1.8,0.6,1.8c0.2,0,0.4,0.1,0.6,0.2h7.3C71.1,44.5,71.3,44.4,71.5,44.4z"/>
	</g>
	<g id="BaseBody_12_">
		<path id="r_foot_12_" class="st4" d="M67.9,52.7c0,0.3,0,1.1,1.2,1.1s1.2-1.1,1.2-1.4C69.9,52.7,67.8,52.6,67.9,52.7z"/>
		<path id="r_foot-2_12_" class="st4" d="M66.4,52.7c0,0.3,0,1.1-1.2,1.1S64,52.7,64,52.4C64.4,52.7,66.4,52.6,66.4,52.7z"/>
		<path id="pants_inline_12_" class="st4" d="M66.6,49.2l0.1,3.3l0,0c0.2-0.1,0.3-0.2,0.4-0.3c0.2,0.2,0.4,0.4,0.6,0.5v-3.4
			C67.5,48.4,66.7,48.4,66.6,49.2z"/>
		<path id="pants_12_" class="st5" d="M70.3,47.9c0,0-6.2,0-6.4,0c-0.7,0-0.7,0.7-0.3,3.7c0.1,1,0.5,1.3,1.8,1.3s1.2-0.4,1.3-0.4
			l-0.1-3.3c0.1-0.8,1-0.8,1.1,0v3.4c0.1,0,0.2,0.3,1.4,0.3s1.5-0.4,1.6-1.3C70.9,49.1,71,48.1,70.3,47.9z"/>
		<path id="r_hand_12_" class="st6" d="M62.5,47.9c0,1.2,0.8,1.8,1.5,1.2c0.3-0.3-0.6-0.4-0.5-0.8c0.1,0.1,0.2,0.1,0.4,0.1
			c0.2-0.1,0.1-0.4,0.1-0.4C63.4,47.7,62.9,47.7,62.5,47.9z"/>
		<path id="l_hand_12_" class="st6" d="M70.5,47.8c-0.1,0-0.2,0-0.3,0.1c-0.1,0.1-0.1,0.3-0.1,0.4c0,0.2,0.2,0.1,0.2,0.1
			c0,0,0.2-0.2,0.2-0.2c0,0.1,0.1,0.2,0.1,0.3c-0.1,0.2-0.1,0.5-0.2,0.7c0,0.1,0.1,0.2,0.4,0.2c0.3,0,0.6-0.2,0.7-0.4
			c0.1-0.2,0.2-0.4,0.2-0.6l0,0C71.5,48,71,47.8,70.5,47.8z"/>
	</g>
	<path id="Short_12_" class="st7" d="M65.1,41.4c-0.8,0.3-1.5,0.7-2,1.4c-0.4,0.8-0.7,1.6-0.9,2.4c0,0.4,0.2,2.7,0.3,2.7
		c0.5-0.1,1-0.1,1.4,0c1,0.3,2.1,0.4,3.1,0.5c1.2,0,2.4-0.2,3.6-0.5c0.5-0.1,1,0.1,1.3,0.5c0,0,0.2-2,0.2-2.6c0-0.6-0.6-2.6-0.7-3
		c-0.4-0.7-2-1.4-2.3-1.4L65.1,41.4z"/>
	<path id="shadow_24_" class="st8" d="M64.3,44.9c0,0,0.8,1.3,3.1,1.4s2.7-0.7,2.7-0.7c0,0.6,0.2,2.3,0.2,2.3
		c-1.1,0.3-2.3,0.5-3.5,0.5c-1-0.1-2-0.2-3-0.5C63.7,46.9,63.9,45.8,64.3,44.9z"/>
	<path class="st6" d="M68.8,42c0,0.4-0.5,2.6-1.7,2.6s-1.5-1.3-1.7-1.9C65.2,42.1,68.9,41.6,68.8,42z"/>
	<path class="st9" d="M67.1,39.4c-3,0-1.8,3.3-1.7,3.3c0.1,0,0.5-0.4,0.9-0.5c0.3,0.1,0.5,0.3,0.7,0.5c0.2-0.3,0.5-0.4,0.9-0.3
		c0.1-0.2,0.2-0.4,0.3-0.5c0.3-0.1,0.6,0.2,0.7,0.2C68.9,42,69.9,39.4,67.1,39.4z"/>
</g>
<g>
	<g id="Seat_23_">
		<path id="Seatt_23_" class="st2" d="M13.6,61.4c0.2-0.1,0.4-0.2,0.6-0.2c0.2,0,0.6-1.5,0.6-1.8c0-0.6-0.3-0.6-0.9-0.8
			c-0.9-0.3-6.9-0.3-8.1,0c-0.2,0.1-0.9,0.2-0.7,0.8c0.1,0.3,0.5,1.8,0.6,1.8c0.2,0,0.4,0.1,0.6,0.2c-0.5,0.2-0.9,0.4-0.9,0.8V67
			c0,1.8,1.5,1.7,2.4,1.8S9.3,69,10,69c0.7,0,1.4-0.1,2.1-0.2c0.7-0.1,2.5,0.1,2.5-1.8v-4.8C14.5,61.8,14.2,61.6,13.6,61.4z"/>
		<path id="ShadowSeat_23_" class="st3" d="M14.3,61.2c0.2,0,0.6-1.5,0.6-1.8c0-0.6-0.3-0.6-0.9-0.8c-0.9-0.3-6.9-0.3-8.1,0
			c-0.2,0.1-0.9,0.2-0.7,0.8c0.1,0.3,0.5,1.8,0.6,1.8c0.2,0,0.4,0.1,0.6,0.2h7.3C13.9,61.3,14.1,61.2,14.3,61.2z"/>
	</g>
	<g id="BaseBody_23_">
		<path id="r_foot_23_" class="st4" d="M10.7,69.5c0,0.3,0,1.1,1.2,1.1s1.2-1.1,1.2-1.4C12.7,69.5,10.6,69.5,10.7,69.5z"/>
		<path id="r_foot-2_23_" class="st4" d="M9.2,69.5c0,0.3,0,1.1-1.2,1.1s-1.2-1.1-1.2-1.4C7.2,69.5,9.2,69.5,9.2,69.5z"/>
		<path id="pants_inline_23_" class="st4" d="M9.4,66.1l0.1,3.3l0,0c0.2-0.1,0.3-0.2,0.4-0.3c0.2,0.2,0.4,0.4,0.6,0.5v-3.4
			C10.3,65.2,9.5,65.2,9.4,66.1z"/>
		<path id="pants_23_" class="st5" d="M13.1,64.7c0,0-6.2,0-6.4,0c-0.7,0-0.7,0.7-0.3,3.7c0.1,1,0.5,1.3,1.8,1.3s1.2-0.4,1.3-0.4
			l-0.1-3.3c0.1-0.8,1-0.8,1.1,0v3.4c0.1,0,0.2,0.3,1.4,0.3s1.5-0.4,1.6-1.3C13.7,65.9,13.8,64.9,13.1,64.7z"/>
		<path id="r_hand_23_" class="st6" d="M5.3,64.7c0,1.2,0.8,1.8,1.5,1.2C7,65.6,6.1,65.5,6.2,65c0.1,0.1,0.2,0.1,0.4,0.1
			c0.2-0.1,0.1-0.4,0.1-0.4C6.2,64.6,5.7,64.6,5.3,64.7z"/>
		<path id="l_hand_23_" class="st6" d="M13.3,64.7c-0.1,0-0.2,0-0.3,0.1C13,64.9,13,65,13,65.2c0,0.2,0.2,0.1,0.2,0.1
			s0.2-0.2,0.2-0.2c0,0.1,0.1,0.2,0.1,0.3c-0.1,0.2-0.1,0.5-0.2,0.7c0,0.1,0.1,0.2,0.4,0.2c0.3,0,0.6-0.2,0.7-0.4
			c0.1-0.2,0.2-0.4,0.2-0.6l0,0C14.3,64.8,13.8,64.6,13.3,64.7z"/>
	</g>
	<path id="Short_23_" class="st7" d="M7.9,58.2c-0.8,0.3-1.5,0.7-2,1.4C5.5,60.4,5.2,61.2,5,62c0,0.4,0.2,2.7,0.3,2.7
		c0.5-0.1,1-0.1,1.4,0c1,0.3,2.1,0.4,3.1,0.5c1.2,0,2.4-0.2,3.6-0.5c0.5-0.1,1,0.1,1.3,0.5c0,0,0.2-2,0.2-2.6s-0.6-2.6-0.7-3
		c-0.4-0.7-2-1.4-2.3-1.4L7.9,58.2z"/>
	<path id="shadow_46_" class="st8" d="M7.1,61.7c0,0,0.8,1.3,3.1,1.4c2.3,0.2,2.7-0.7,2.7-0.7c0,0.6,0.2,2.3,0.2,2.3
		c-1.1,0.3-2.3,0.5-3.5,0.5c-1-0.1-2-0.2-3-0.5C6.5,63.7,6.7,62.6,7.1,61.7z"/>
	<path class="st6" d="M11.6,58.8c0,0.4-0.5,2.6-1.7,2.6s-1.5-1.3-1.7-1.9S11.7,58.4,11.6,58.8z"/>
	<path class="st9" d="M9.9,56.2c-3,0-1.8,3.3-1.7,3.3c0.1,0,0.5-0.4,0.9-0.5c0.3,0.1,0.5,0.3,0.7,0.5c0.2-0.3,0.5-0.4,0.9-0.3
		c0.1-0.2,0.2-0.4,0.3-0.5c0.3-0.1,0.6,0.2,0.7,0.2S12.7,56.2,9.9,56.2z"/>
</g>
<g>
	<g id="Seat_22_">
		<path id="Seatt_22_" class="st2" d="M25.1,61.4c0.2-0.1,0.4-0.2,0.6-0.2c0.2,0,0.6-1.5,0.6-1.8c0-0.6-0.3-0.6-0.9-0.8
			c-0.9-0.3-6.9-0.3-8.1,0c-0.2,0.1-0.9,0.2-0.7,0.8c0.1,0.3,0.5,1.8,0.6,1.8c0.2,0,0.4,0.1,0.6,0.2c-0.5,0.2-0.9,0.4-0.9,0.8V67
			c0,1.8,1.5,1.7,2.4,1.8c0.9,0.1,1.4,0.2,2,0.2c0.7,0,1.4-0.1,2.1-0.2c0.7-0.1,2.5,0.1,2.5-1.8v-4.8C26,61.8,25.6,61.6,25.1,61.4z"
			/>
		<path id="ShadowSeat_22_" class="st3" d="M25.7,61.2c0.2,0,0.6-1.5,0.6-1.8c0-0.6-0.3-0.6-0.9-0.8c-0.9-0.3-6.9-0.3-8.1,0
			c-0.2,0.1-0.9,0.2-0.7,0.8c0.1,0.3,0.5,1.8,0.6,1.8c0.2,0,0.4,0.1,0.6,0.2h7.3C25.3,61.3,25.5,61.2,25.7,61.2z"/>
	</g>
	<g id="BaseBody_22_">
		<path id="r_foot_22_" class="st4" d="M22.1,69.5c0,0.3,0,1.1,1.2,1.1c1.2,0,1.2-1.1,1.2-1.4C24.2,69.5,22.1,69.5,22.1,69.5z"/>
		<path id="r_foot-2_22_" class="st4" d="M20.7,69.5c0,0.3,0,1.1-1.2,1.1c-1.2,0-1.2-1.1-1.2-1.4C18.6,69.5,20.7,69.5,20.7,69.5z"/>
		<path id="pants_inline_22_" class="st4" d="M20.8,66.1l0.1,3.3l0,0c0.2-0.1,0.3-0.2,0.4-0.3c0.2,0.2,0.4,0.4,0.6,0.5v-3.4
			C21.8,65.2,21,65.2,20.8,66.1z"/>
		<path id="pants_22_" class="st5" d="M24.5,64.7c0,0-6.2,0-6.4,0c-0.7,0-0.7,0.7-0.3,3.7c0.1,1,0.5,1.3,1.8,1.3s1.2-0.4,1.3-0.4
			l-0.1-3.3c0.1-0.8,1-0.8,1.1,0v3.4c0.1,0,0.2,0.3,1.4,0.3c1.2,0,1.5-0.4,1.6-1.3C25.1,65.9,25.2,64.9,24.5,64.7z"/>
		<path id="r_hand_22_" class="st6" d="M16.7,64.7c0,1.2,0.8,1.8,1.5,1.2c0.3-0.3-0.6-0.4-0.5-0.8c0.1,0.1,0.2,0.1,0.4,0.1
			c0.2-0.1,0.1-0.4,0.1-0.4C17.6,64.6,17.1,64.6,16.7,64.7z"/>
		<path id="l_hand_22_" class="st6" d="M24.8,64.7c-0.1,0-0.2,0-0.3,0.1c-0.1,0.1-0.1,0.3-0.1,0.4c0,0.2,0.2,0.1,0.2,0.1
			c0,0,0.2-0.2,0.2-0.2c0,0.1,0.1,0.2,0.1,0.3c-0.1,0.2-0.1,0.5-0.2,0.7c0,0.1,0.1,0.2,0.4,0.2c0.3,0,0.6-0.2,0.7-0.4
			c0.1-0.2,0.2-0.4,0.2-0.6l0,0C25.7,64.8,25.3,64.6,24.8,64.7z"/>
	</g>
	<path id="Short_22_" class="st7" d="M19.3,58.2c-0.8,0.3-1.5,0.7-2,1.4c-0.4,0.8-0.7,1.6-0.9,2.4c0,0.4,0.2,2.7,0.3,2.7
		c0.5-0.1,1-0.1,1.4,0c1,0.3,2.1,0.4,3.1,0.5c1.2,0,2.4-0.2,3.6-0.5c0.5-0.1,1,0.1,1.3,0.5c0,0,0.2-2,0.2-2.6s-0.6-2.6-0.7-3
		c-0.4-0.7-2-1.4-2.3-1.4L19.3,58.2z"/>
	<path id="shadow_44_" class="st8" d="M18.5,61.7c0,0,0.8,1.3,3.1,1.4c2.3,0.2,2.7-0.7,2.7-0.7c0,0.6,0.2,2.3,0.2,2.3
		c-1.1,0.3-2.3,0.5-3.5,0.5c-1-0.1-2-0.2-3-0.5C18,63.7,18.1,62.6,18.5,61.7z"/>
	<path class="st6" d="M23.1,58.8c0,0.4-0.5,2.6-1.7,2.6s-1.5-1.3-1.7-1.9C19.5,58.9,23.1,58.4,23.1,58.8z"/>
	<path class="st9" d="M21.3,56.2c-3,0-1.8,3.3-1.7,3.3c0.1,0,0.5-0.4,0.9-0.5c0.3,0.1,0.5,0.3,0.7,0.5c0.2-0.3,0.5-0.4,0.9-0.3
		c0.1-0.2,0.2-0.4,0.3-0.5c0.3-0.1,0.6,0.2,0.7,0.2C23.2,58.8,24.1,56.2,21.3,56.2z"/>
</g>
<g>
	<g id="Seat_21_">
		<path id="Seatt_21_" class="st2" d="M36.5,61.4c0.2-0.1,0.4-0.2,0.6-0.2c0.2,0,0.6-1.5,0.6-1.8c0-0.6-0.3-0.6-0.9-0.8
			c-0.9-0.3-6.9-0.3-8.1,0c-0.2,0.1-0.9,0.2-0.7,0.8c0.1,0.3,0.5,1.8,0.6,1.8c0.2,0,0.4,0.1,0.6,0.2c-0.5,0.2-0.9,0.4-0.9,0.8V67
			c0,1.8,1.5,1.7,2.4,1.8s1.4,0.2,2,0.2c0.7,0,1.4-0.1,2.1-0.2c0.7-0.1,2.5,0.1,2.5-1.8v-4.8C37.4,61.8,37,61.6,36.5,61.4z"/>
		<path id="ShadowSeat_21_" class="st3" d="M37.2,61.2c0.2,0,0.6-1.5,0.6-1.8c0-0.6-0.3-0.6-0.9-0.8c-0.9-0.3-6.9-0.3-8.1,0
			c-0.2,0.1-0.9,0.2-0.7,0.8c0.1,0.3,0.5,1.8,0.6,1.8c0.2,0,0.4,0.1,0.6,0.2h7.3C36.8,61.3,37,61.2,37.2,61.2z"/>
	</g>
	<g id="BaseBody_21_">
		<path id="r_foot_21_" class="st4" d="M33.5,69.5c0,0.3,0,1.1,1.2,1.1c1.2,0,1.2-1.1,1.2-1.4C35.6,69.5,33.5,69.5,33.5,69.5z"/>
		<path id="r_foot-2_21_" class="st4" d="M32.1,69.5c0,0.3,0,1.1-1.2,1.1c-1.2,0-1.2-1.1-1.2-1.4C30,69.5,32.1,69.5,32.1,69.5z"/>
		<path id="pants_inline_21_" class="st4" d="M32.2,66.1l0.1,3.3l0,0c0.2-0.1,0.3-0.2,0.4-0.3c0.2,0.2,0.4,0.4,0.6,0.5v-3.4
			C33.2,65.2,32.4,65.2,32.2,66.1z"/>
		<path id="pants_21_" class="st5" d="M36,64.7c0,0-6.2,0-6.4,0c-0.7,0-0.7,0.7-0.3,3.7c0.1,1,0.5,1.3,1.8,1.3s1.2-0.4,1.3-0.4
			l-0.1-3.3c0.1-0.8,1-0.8,1.1,0v3.4c0.1,0,0.2,0.3,1.4,0.3c1.2,0,1.5-0.4,1.6-1.3C36.6,65.9,36.7,64.9,36,64.7z"/>
		<path id="r_hand_21_" class="st6" d="M28.1,64.7c0,1.2,0.8,1.8,1.5,1.2c0.3-0.3-0.6-0.4-0.5-0.8c0.1,0.1,0.2,0.1,0.4,0.1
			c0.2-0.1,0.1-0.4,0.1-0.4C29.1,64.6,28.6,64.6,28.1,64.7z"/>
		<path id="l_hand_21_" class="st6" d="M36.2,64.7c-0.1,0-0.2,0-0.3,0.1c-0.1,0.1-0.1,0.3-0.1,0.4c0,0.2,0.2,0.1,0.2,0.1
			s0.2-0.2,0.2-0.2c0,0.1,0.1,0.2,0.1,0.3c-0.1,0.2-0.1,0.5-0.2,0.7c0,0.1,0.1,0.2,0.4,0.2c0.3,0,0.6-0.2,0.7-0.4
			c0.1-0.2,0.2-0.4,0.2-0.6l0,0C37.2,64.8,36.7,64.6,36.2,64.7z"/>
	</g>
	<path id="Short_21_" class="st7" d="M30.8,58.2c-0.8,0.3-1.5,0.7-2,1.4c-0.4,0.8-0.7,1.6-0.9,2.4c0,0.4,0.2,2.7,0.3,2.7
		c0.5-0.1,1-0.1,1.4,0c1,0.3,2.1,0.4,3.1,0.5c1.2,0,2.4-0.2,3.6-0.5c0.5-0.1,1,0.1,1.3,0.5c0,0,0.2-2,0.2-2.6c0-0.6-0.6-2.6-0.7-3
		c-0.4-0.7-2-1.4-2.3-1.4L30.8,58.2z"/>
	<path id="shadow_42_" class="st8" d="M30,61.7c0,0,0.8,1.3,3.1,1.4c2.3,0.2,2.7-0.7,2.7-0.7c0,0.6,0.2,2.3,0.2,2.3
		c-1.1,0.3-2.3,0.5-3.5,0.5c-1-0.1-2-0.2-3-0.5C29.4,63.7,29.5,62.6,30,61.7z"/>
	<path class="st6" d="M34.5,58.8c0,0.4-0.5,2.6-1.7,2.6c-1.2,0-1.5-1.3-1.7-1.9C30.9,58.9,34.5,58.4,34.5,58.8z"/>
	<path class="st9" d="M32.8,56.2c-3,0-1.8,3.3-1.7,3.3c0.1,0,0.5-0.4,0.9-0.5c0.3,0.1,0.5,0.3,0.7,0.5c0.2-0.3,0.5-0.4,0.9-0.3
		c0.1-0.2,0.2-0.4,0.3-0.5c0.3-0.1,0.6,0.2,0.7,0.2C34.6,58.8,35.6,56.2,32.8,56.2z"/>
</g>
<g>
	<g id="Seat_20_">
		<path id="Seatt_20_" class="st2" d="M48,61.4c0.2-0.1,0.4-0.2,0.6-0.2c0.2,0,0.6-1.5,0.6-1.8c0-0.6-0.3-0.6-0.9-0.8
			c-0.9-0.3-6.9-0.3-8.1,0c-0.2,0.1-0.9,0.2-0.7,0.8c0.1,0.3,0.5,1.8,0.6,1.8c0.2,0,0.4,0.1,0.6,0.2c-0.5,0.2-0.9,0.4-0.9,0.8V67
			c0,1.8,1.5,1.7,2.4,1.8c0.9,0.1,1.4,0.2,2,0.2c0.7,0,1.4-0.1,2.1-0.2c0.7-0.1,2.5,0.1,2.5-1.8v-4.8C48.8,61.8,48.5,61.6,48,61.4z"
			/>
		<path id="ShadowSeat_20_" class="st3" d="M48.6,61.2c0.2,0,0.6-1.5,0.6-1.8c0-0.6-0.3-0.6-0.9-0.8c-0.9-0.3-6.9-0.3-8.1,0
			c-0.2,0.1-0.9,0.2-0.7,0.8c0.1,0.3,0.5,1.8,0.6,1.8c0.2,0,0.4,0.1,0.6,0.2H48C48.2,61.3,48.4,61.2,48.6,61.2z"/>
	</g>
	<g id="BaseBody_20_">
		<path id="r_foot_20_" class="st4" d="M45,69.5c0,0.3,0,1.1,1.2,1.1s1.2-1.1,1.2-1.4C47,69.5,45,69.5,45,69.5z"/>
		<path id="r_foot-2_20_" class="st4" d="M43.6,69.5c0,0.3,0,1.1-1.2,1.1s-1.2-1.1-1.2-1.4C41.5,69.5,43.6,69.5,43.6,69.5z"/>
		<path id="pants_inline_20_" class="st4" d="M43.7,66.1l0.1,3.3l0,0c0.2-0.1,0.3-0.2,0.4-0.3c0.2,0.2,0.4,0.4,0.6,0.5v-3.4
			C44.7,65.2,43.8,65.2,43.7,66.1z"/>
		<path id="pants_20_" class="st5" d="M47.4,64.7c0,0-6.2,0-6.4,0c-0.7,0-0.7,0.7-0.3,3.7c0.1,1,0.5,1.3,1.8,1.3
			c1.3,0,1.2-0.4,1.3-0.4l-0.1-3.3c0.1-0.8,1-0.8,1.1,0v3.4c0.1,0,0.2,0.3,1.4,0.3c1.2,0,1.5-0.4,1.6-1.3
			C48,65.9,48.1,64.9,47.4,64.7z"/>
		<path id="r_hand_20_" class="st6" d="M39.6,64.7c0,1.2,0.8,1.8,1.5,1.2c0.3-0.3-0.6-0.4-0.5-0.8c0.1,0.1,0.2,0.1,0.4,0.1
			c0.2-0.1,0.1-0.4,0.1-0.4C40.5,64.6,40,64.6,39.6,64.7z"/>
		<path id="l_hand_20_" class="st6" d="M47.7,64.7c-0.1,0-0.2,0-0.3,0.1c-0.1,0.1-0.1,0.3-0.1,0.4c0,0.2,0.2,0.1,0.2,0.1
			c0,0,0.2-0.2,0.2-0.2c0,0.1,0.1,0.2,0.1,0.3c-0.1,0.2-0.1,0.5-0.2,0.7c0,0.1,0.1,0.2,0.4,0.2c0.3,0,0.6-0.2,0.7-0.4
			c0.1-0.2,0.2-0.4,0.2-0.6l0,0C48.6,64.8,48.1,64.6,47.7,64.7z"/>
	</g>
	<path id="Short_20_" class="st7" d="M42.2,58.2c-0.8,0.3-1.5,0.7-2,1.4c-0.4,0.8-0.7,1.6-0.9,2.4c0,0.4,0.2,2.7,0.3,2.7
		c0.5-0.1,1-0.1,1.4,0c1,0.3,2.1,0.4,3.1,0.5c1.2,0,2.4-0.2,3.6-0.5c0.5-0.1,1,0.1,1.3,0.5c0,0,0.2-2,0.2-2.6c0-0.6-0.6-2.6-0.7-3
		c-0.4-0.7-2-1.4-2.3-1.4L42.2,58.2z"/>
	<path id="shadow_40_" class="st8" d="M41.4,61.7c0,0,0.8,1.3,3.1,1.4c2.3,0.2,2.7-0.7,2.7-0.7c0,0.6,0.2,2.3,0.2,2.3
		c-1.1,0.3-2.3,0.5-3.5,0.5c-1-0.1-2-0.2-3-0.5C40.8,63.7,41,62.6,41.4,61.7z"/>
	<path class="st6" d="M46,58.8c0,0.4-0.5,2.6-1.7,2.6c-1.2,0-1.5-1.3-1.7-1.9C42.4,58.9,46,58.4,46,58.8z"/>
	<path class="st9" d="M44.2,56.2c-3,0-1.8,3.3-1.7,3.3c0.1,0,0.5-0.4,0.9-0.5c0.3,0.1,0.5,0.3,0.7,0.5c0.2-0.3,0.5-0.4,0.9-0.3
		c0.1-0.2,0.2-0.4,0.3-0.5c0.3-0.1,0.6,0.2,0.7,0.2C46,58.8,47,56.2,44.2,56.2z"/>
</g>
<g>
	<g id="Seat_19_">
		<path id="Seatt_19_" class="st2" d="M59.4,61.4c0.2-0.1,0.4-0.2,0.6-0.2c0.2,0,0.6-1.5,0.6-1.8c0-0.6-0.3-0.6-0.9-0.8
			c-0.9-0.3-6.9-0.3-8.1,0c-0.2,0.1-0.9,0.2-0.7,0.8c0.1,0.3,0.5,1.8,0.6,1.8c0.2,0,0.4,0.1,0.6,0.2c-0.5,0.2-0.9,0.4-0.9,0.8V67
			c0,1.8,1.5,1.7,2.4,1.8c0.9,0.1,1.4,0.2,2,0.2c0.7,0,1.4-0.1,2.1-0.2c0.7-0.1,2.5,0.1,2.5-1.8v-4.8C60.3,61.8,59.9,61.6,59.4,61.4
			z"/>
		<path id="ShadowSeat_19_" class="st3" d="M60,61.2c0.2,0,0.6-1.5,0.6-1.8c0-0.6-0.3-0.6-0.9-0.8c-0.9-0.3-6.9-0.3-8.1,0
			c-0.2,0.1-0.9,0.2-0.7,0.8c0.1,0.3,0.5,1.8,0.6,1.8c0.2,0,0.4,0.1,0.6,0.2h7.3C59.6,61.3,59.8,61.2,60,61.2z"/>
	</g>
	<g id="BaseBody_19_">
		<path id="r_foot_19_" class="st4" d="M56.4,69.5c0,0.3,0,1.1,1.2,1.1c1.2,0,1.2-1.1,1.2-1.4C58.5,69.5,56.4,69.5,56.4,69.5z"/>
		<path id="r_foot-2_19_" class="st4" d="M55,69.5c0,0.3,0,1.1-1.2,1.1c-1.2,0-1.2-1.1-1.2-1.4C52.9,69.5,55,69.5,55,69.5z"/>
		<path id="pants_inline_19_" class="st4" d="M55.1,66.1l0.1,3.3l0,0c0.2-0.1,0.3-0.2,0.4-0.3c0.2,0.2,0.4,0.4,0.6,0.5v-3.4
			C56.1,65.2,55.3,65.2,55.1,66.1z"/>
		<path id="pants_19_" class="st5" d="M58.8,64.7c0,0-6.2,0-6.4,0c-0.7,0-0.7,0.7-0.3,3.7c0.1,1,0.5,1.3,1.8,1.3s1.2-0.4,1.3-0.4
			l-0.1-3.3c0.1-0.8,1-0.8,1.1,0v3.4c0.1,0,0.2,0.3,1.4,0.3s1.5-0.4,1.6-1.3C59.4,65.9,59.6,64.9,58.8,64.7z"/>
		<path id="r_hand_19_" class="st6" d="M51,64.7c0,1.2,0.8,1.8,1.5,1.2c0.3-0.3-0.6-0.4-0.5-0.8c0.1,0.1,0.2,0.1,0.4,0.1
			c0.2-0.1,0.1-0.4,0.1-0.4C52,64.6,51.5,64.6,51,64.7z"/>
		<path id="l_hand_19_" class="st6" d="M59.1,64.7c-0.1,0-0.2,0-0.3,0.1c-0.1,0.1-0.1,0.3-0.1,0.4c0,0.2,0.2,0.1,0.2,0.1
			s0.2-0.2,0.2-0.2c0,0.1,0.1,0.2,0.1,0.3c-0.1,0.2-0.1,0.5-0.2,0.7c0,0.1,0.1,0.2,0.4,0.2c0.3,0,0.6-0.2,0.7-0.4
			c0.1-0.2,0.2-0.4,0.2-0.6l0,0C60.1,64.8,59.6,64.6,59.1,64.7z"/>
	</g>
	<path id="Short_19_" class="st7" d="M53.6,58.2c-0.8,0.3-1.5,0.7-2,1.4c-0.4,0.8-0.7,1.6-0.9,2.4c0,0.4,0.2,2.7,0.3,2.7
		c0.5-0.1,1-0.1,1.4,0c1,0.3,2.1,0.4,3.1,0.5c1.2,0,2.4-0.2,3.6-0.5c0.5-0.1,1,0.1,1.3,0.5c0,0,0.2-2,0.2-2.6c0-0.6-0.6-2.6-0.7-3
		c-0.4-0.7-2-1.4-2.3-1.4L53.6,58.2z"/>
	<path id="shadow_38_" class="st8" d="M52.9,61.7c0,0,0.8,1.3,3.1,1.4c2.3,0.2,2.7-0.7,2.7-0.7c0,0.6,0.2,2.3,0.2,2.3
		c-1.1,0.3-2.3,0.5-3.5,0.5c-1-0.1-2-0.2-3-0.5C52.3,63.7,52.4,62.6,52.9,61.7z"/>
	<path class="st6" d="M57.4,58.8c0,0.4-0.5,2.6-1.7,2.6c-1.2,0-1.5-1.3-1.7-1.9S57.4,58.4,57.4,58.8z"/>
	<path class="st9" d="M55.7,56.2c-3,0-1.8,3.3-1.7,3.3c0.1,0,0.5-0.4,0.9-0.5c0.3,0.1,0.5,0.3,0.7,0.5c0.2-0.3,0.5-0.4,0.9-0.3
		c0.1-0.2,0.2-0.4,0.3-0.5c0.3-0.1,0.6,0.2,0.7,0.2S58.4,56.2,55.7,56.2z"/>
</g>
<g>
	<g id="Seat_18_">
		<path id="Seatt_18_" class="st2" d="M70.8,61.4c0.2-0.1,0.4-0.2,0.6-0.2c0.2,0,0.6-1.5,0.6-1.8c0-0.6-0.3-0.6-0.9-0.8
			c-0.9-0.3-6.9-0.3-8.1,0c-0.2,0.1-0.9,0.2-0.7,0.8c0.1,0.3,0.5,1.8,0.6,1.8c0.2,0,0.4,0.1,0.6,0.2c-0.5,0.2-0.9,0.4-0.9,0.8V67
			c0,1.8,1.5,1.7,2.4,1.8c0.9,0.1,1.4,0.2,2,0.2c0.7,0,1.4-0.1,2.1-0.2c0.7-0.1,2.5,0.1,2.5-1.8v-4.8C71.7,61.8,71.4,61.6,70.8,61.4
			z"/>
		<path id="ShadowSeat_18_" class="st3" d="M71.5,61.2c0.2,0,0.6-1.5,0.6-1.8c0-0.6-0.3-0.6-0.9-0.8c-0.9-0.3-6.9-0.3-8.1,0
			c-0.2,0.1-0.9,0.2-0.7,0.8c0.1,0.3,0.5,1.8,0.6,1.8c0.2,0,0.4,0.1,0.6,0.2h7.3C71.1,61.3,71.3,61.2,71.5,61.2z"/>
	</g>
	<g id="BaseBody_18_">
		<path id="r_foot_18_" class="st4" d="M67.9,69.5c0,0.3,0,1.1,1.2,1.1s1.2-1.1,1.2-1.4C69.9,69.5,67.8,69.5,67.9,69.5z"/>
		<path id="r_foot-2_18_" class="st4" d="M66.4,69.5c0,0.3,0,1.1-1.2,1.1S64,69.5,64,69.2C64.4,69.5,66.4,69.5,66.4,69.5z"/>
		<path id="pants_inline_18_" class="st4" d="M66.6,66.1l0.1,3.3l0,0c0.2-0.1,0.3-0.2,0.4-0.3c0.2,0.2,0.4,0.4,0.6,0.5v-3.4
			C67.5,65.2,66.7,65.2,66.6,66.1z"/>
		<path id="pants_18_" class="st5" d="M70.3,64.7c0,0-6.2,0-6.4,0c-0.7,0-0.7,0.7-0.3,3.7c0.1,1,0.5,1.3,1.8,1.3s1.2-0.4,1.3-0.4
			l-0.1-3.3c0.1-0.8,1-0.8,1.1,0v3.4c0.1,0,0.2,0.3,1.4,0.3s1.5-0.4,1.6-1.3C70.9,65.9,71,64.9,70.3,64.7z"/>
		<path id="r_hand_18_" class="st6" d="M62.5,64.7c0,1.2,0.8,1.8,1.5,1.2c0.3-0.3-0.6-0.4-0.5-0.8c0.1,0.1,0.2,0.1,0.4,0.1
			c0.2-0.1,0.1-0.4,0.1-0.4C63.4,64.6,62.9,64.6,62.5,64.7z"/>
		<path id="l_hand_18_" class="st6" d="M70.5,64.7c-0.1,0-0.2,0-0.3,0.1c-0.1,0.1-0.1,0.3-0.1,0.4c0,0.2,0.2,0.1,0.2,0.1
			c0,0,0.2-0.2,0.2-0.2c0,0.1,0.1,0.2,0.1,0.3c-0.1,0.2-0.1,0.5-0.2,0.7c0,0.1,0.1,0.2,0.4,0.2c0.3,0,0.6-0.2,0.7-0.4
			c0.1-0.2,0.2-0.4,0.2-0.6l0,0C71.5,64.8,71,64.6,70.5,64.7z"/>
	</g>
	<path id="Short_18_" class="st7" d="M65.1,58.2c-0.8,0.3-1.5,0.7-2,1.4c-0.4,0.8-0.7,1.6-0.9,2.4c0,0.4,0.2,2.7,0.3,2.7
		c0.5-0.1,1-0.1,1.4,0c1,0.3,2.1,0.4,3.1,0.5c1.2,0,2.4-0.2,3.6-0.5c0.5-0.1,1,0.1,1.3,0.5c0,0,0.2-2,0.2-2.6c0-0.6-0.6-2.6-0.7-3
		c-0.4-0.7-2-1.4-2.3-1.4L65.1,58.2z"/>
	<path id="shadow_36_" class="st8" d="M64.3,61.7c0,0,0.8,1.3,3.1,1.4c2.3,0.2,2.7-0.7,2.7-0.7c0,0.6,0.2,2.3,0.2,2.3
		c-1.1,0.3-2.3,0.5-3.5,0.5c-1-0.1-2-0.2-3-0.5C63.7,63.7,63.9,62.6,64.3,61.7z"/>
	<path class="st6" d="M68.8,58.8c0,0.4-0.5,2.6-1.7,2.6s-1.5-1.3-1.7-1.9C65.2,58.9,68.9,58.4,68.8,58.8z"/>
	<path class="st9" d="M67.1,56.2c-3,0-1.8,3.3-1.7,3.3c0.1,0,0.5-0.4,0.9-0.5c0.3,0.1,0.5,0.3,0.7,0.5c0.2-0.3,0.5-0.4,0.9-0.3
		c0.1-0.2,0.2-0.4,0.3-0.5c0.3-0.1,0.6,0.2,0.7,0.2S69.9,56.2,67.1,56.2z"/>
</g>
</svg>
